SplineFontDB: 3.0
FontName: Shabnam-Bold
FullName: Shabnam Bold
FamilyName: Shabnam
Weight: Bold
Copyright: Copyright (c) 2003 by Bitstream, Inc. All Rights Reserved.\nDejaVu changes are in public domain\nCopyright (c) 2015 by Saber Rastikerdar. All Rights Reserved.
Version: 0.7.1
ItalicAngle: 0
UnderlinePosition: -100
UnderlineWidth: 100
Ascent: 1536
Descent: 512
InvalidEm: 0
LayerCount: 2
Layer: 0 1 "Back" 1
Layer: 1 1 "Fore" 0
XUID: [1021 502 1027637223 12941557]
UniqueID: 4123783
UseUniqueID: 1
FSType: 0
OS2Version: 1
OS2_WeightWidthSlopeOnly: 0
OS2_UseTypoMetrics: 1
CreationTime: 1431850356
ModificationTime: 1451624741
PfmFamily: 33
TTFWeight: 400
TTFWidth: 5
LineGap: 0
VLineGap: 0
Panose: 2 11 6 3 3 8 4 2 2 4
OS2TypoAscent: 2000
OS2TypoAOffset: 0
OS2TypoDescent: -1000
OS2TypoDOffset: 0
OS2TypoLinegap: 0
OS2WinAscent: 2000
OS2WinAOffset: 0
OS2WinDescent: 1000
OS2WinDOffset: 0
HheadAscent: 2000
HheadAOffset: 0
HheadDescent: -1000
HheadDOffset: 0
OS2SubXSize: 1331
OS2SubYSize: 1433
OS2SubXOff: 0
OS2SubYOff: 286
OS2SupXSize: 1331
OS2SupYSize: 1433
OS2SupXOff: 0
OS2SupYOff: 983
OS2StrikeYSize: 102
OS2StrikeYPos: 530
OS2Vendor: 'PfEd'
OS2CodePages: 600001ff.dfff0000
Lookup: 1 0 0 "'case' Case-Sensitive Forms in Latin lookup 0" { "'case' Case-Sensitive Forms in Latin lookup 0 subtable"  } ['case' ('DFLT' <'dflt' > 'latn' <'CAT ' 'ESP ' 'GAL ' 'dflt' > ) ]
Lookup: 6 1 0 "'ccmp' Glyph Composition/Decomposition lookup 2" { "'ccmp' Glyph Composition/Decomposition lookup 2 subtable"  } ['ccmp' ('arab' <'KUR ' 'SND ' 'URD ' 'dflt' > 'hebr' <'dflt' > 'nko ' <'dflt' > ) ]
Lookup: 6 0 0 "'ccmp' Glyph Composition/Decomposition lookup 3" { "'ccmp' Glyph Composition/Decomposition lookup 3 subtable"  } ['ccmp' ('cyrl' <'MKD ' 'SRB ' 'dflt' > 'grek' <'dflt' > 'latn' <'ISM ' 'KSM ' 'LSM ' 'MOL ' 'NSM ' 'ROM ' 'SKS ' 'SSM ' 'dflt' > ) ]

StartChar: exclam
Encoding: 33 33 1
Width: 915
VWidth: 2431
GlyphClass: 2
Flags: W
LayerCount: 2
Fore
SplineSet
290.919921875 172.381835938 m 128,-1,1
 290.919921875 242.950195312 290.919921875 242.950195312 340.635742188 292.666015625 c 128,-1,2
 390.19921875 342.23046875 390.19921875 342.23046875 461.416992188 342.883789062 c 0,3,4
 533.637695312 342.232421875 533.637695312 342.232421875 583.204101562 292.666015625 c 128,-1,5
 632.919921875 242.950195312 632.919921875 242.950195312 632.919921875 172.381835938 c 128,-1,6
 632.919921875 101.813476562 632.919921875 101.813476562 583.204101562 52.09765625 c 0,7,8
 571.061523438 39.955078125 571.061523438 39.955078125 557.205078125 30.626953125 c 128,-1,9
 543.349609375 21.2998046875 543.349609375 21.2998046875 528.153320312 14.978515625 c 128,-1,10
 512.956054688 8.6572265625 512.956054688 8.6572265625 496.421875 5.3486328125 c 128,-1,11
 479.88671875 2.0400390625 479.88671875 2.0400390625 462.422851562 1.8798828125 c 0,12,13
 390.202148438 2.53125 390.202148438 2.53125 340.635742188 52.09765625 c 128,-1,0
 290.919921875 101.813476562 290.919921875 101.813476562 290.919921875 172.381835938 c 128,-1,1
315.510742188 1525.35449219 m 1,14,-1
 600.2421875 1525.35449219 l 1,15,-1
 576.6953125 529.609375 l 1,16,-1
 340.234375 529.609375 l 1,17,-1
 315.510742188 1525.35449219 l 1,14,-1
EndSplineSet
EndChar

StartChar: parenleft
Encoding: 40 40 2
Width: 891
VWidth: 2431
GlyphClass: 2
Flags: W
GlyphCompositionVertical: 3  uni239D%0,0,44,2632 uni239C%1,44,44,2658 uni239B%0,44,0,2668
LayerCount: 2
Fore
SplineSet
652.288085938 1541.42480469 m 2,0,1
 527.342773438 1321.8125 527.342773438 1321.8125 465.170898438 1103.31738281 c 128,-1,2
 402.999023438 884.822265625 402.999023438 884.822265625 402.999023438 666.709960938 c 0,3,4
 402.999023438 230.133789062 402.999023438 230.133789062 652.342773438 -209.427734375 c 2,5,-1
 686.228515625 -269.1640625 l 1,6,-1
 460.34375 -269.1640625 l 1,7,-1
 448.563476562 -250.576171875 l 2,8,9
 299.823242188 -15.8798828125 299.823242188 -15.8798828125 224.984375 213.51953125 c 128,-1,10
 150.145507812 442.91796875 150.145507812 442.91796875 150.145507812 666.51171875 c 0,11,12
 150.145507812 1112.74707031 150.145507812 1112.74707031 448.575195312 1582.64941406 c 2,13,-1
 460.359375 1601.20507812 l 1,14,-1
 686.299804688 1601.20507812 l 1,15,-1
 652.288085938 1541.42480469 l 2,0,1
EndSplineSet
EndChar

StartChar: parenright
Encoding: 41 41 3
Width: 891
VWidth: 2431
GlyphClass: 2
Flags: W
GlyphCompositionVertical: 3  uni23A0%0,0,44,2632 uni239F%1,44,44,2658 uni239E%0,44,0,2668
LayerCount: 2
Fore
SplineSet
151.022460938 -209.43359375 m 2,0,1
 400.369140625 230.302734375 400.369140625 230.302734375 400.369140625 665.356445312 c 128,-1,2
 400.369140625 1100.43554688 400.369140625 1100.43554688 150.961914062 1541.51660156 c 2,3,-1
 117.211914062 1601.20507812 l 1,4,-1
 343.064453125 1601.20507812 l 1,5,-1
 354.834960938 1582.546875 l 2,6,7
 653.22265625 1109.54882812 653.22265625 1109.54882812 653.22265625 664.948242188 c 128,-1,8
 653.22265625 220.301757812 653.22265625 220.301757812 354.801757812 -250.576171875 c 2,9,-1
 343.021484375 -269.1640625 l 1,10,-1
 117.15234375 -269.1640625 l 1,11,-1
 151.022460938 -209.43359375 l 2,0,1
EndSplineSet
EndChar

StartChar: period
Encoding: 46 46 4
Width: 592
VWidth: 2431
GlyphClass: 2
Flags: W
LayerCount: 2
Fore
SplineSet
126.255859375 169.43359375 m 128,-1,1
 126.255859375 240.001953125 126.255859375 240.001953125 175.971679688 289.717773438 c 128,-1,2
 225.53515625 339.282226562 225.53515625 339.282226562 296.752929688 339.935546875 c 0,3,4
 368.973632812 339.284179688 368.973632812 339.284179688 418.540039062 289.717773438 c 128,-1,5
 468.255859375 240.001953125 468.255859375 240.001953125 468.255859375 169.43359375 c 128,-1,6
 468.255859375 98.865234375 468.255859375 98.865234375 418.540039062 49.1494140625 c 0,7,8
 368.25 0.0029296875 368.25 0.0029296875 297.758789062 -1.068359375 c 0,9,10
 225.538085938 -0.4169921875 225.538085938 -0.4169921875 175.971679688 49.1494140625 c 128,-1,0
 126.255859375 98.865234375 126.255859375 98.865234375 126.255859375 169.43359375 c 128,-1,1
EndSplineSet
EndChar

StartChar: colon
Encoding: 58 58 5
Width: 770
VWidth: 2431
GlyphClass: 2
Flags: W
LayerCount: 2
Fore
SplineSet
218.203125 874.43359375 m 128,-1,1
 218.203125 945.001953125 218.203125 945.001953125 267.918945312 994.717773438 c 128,-1,2
 317.482421875 1044.28222656 317.482421875 1044.28222656 388.700195312 1044.93554688 c 0,3,4
 424.140625 1044.61621094 424.140625 1044.61621094 455.107421875 1031.87304688 c 128,-1,5
 486.07421875 1019.13085938 486.07421875 1019.13085938 510.487304688 994.717773438 c 0,6,7
 560.203125 945.001953125 560.203125 945.001953125 560.203125 874.43359375 c 128,-1,8
 560.203125 803.865234375 560.203125 803.865234375 510.487304688 754.149414062 c 128,-1,9
 460.923828125 704.584960938 460.923828125 704.584960938 389.706054688 703.931640625 c 0,10,11
 372.0390625 704.090820312 372.0390625 704.090820312 355.361328125 707.377929688 c 128,-1,12
 338.682617188 710.665039062 338.682617188 710.665039062 323.35546875 716.965820312 c 128,-1,13
 308.02734375 723.266601562 308.02734375 723.266601562 294.069335938 732.611328125 c 128,-1,14
 280.111328125 741.95703125 280.111328125 741.95703125 267.918945312 754.149414062 c 0,15,0
 218.203125 803.865234375 218.203125 803.865234375 218.203125 874.43359375 c 128,-1,1
218.203125 169.43359375 m 128,-1,17
 218.203125 240.001953125 218.203125 240.001953125 267.918945312 289.717773438 c 128,-1,18
 317.482421875 339.282226562 317.482421875 339.282226562 388.700195312 339.935546875 c 0,19,20
 460.920898438 339.284179688 460.920898438 339.284179688 510.487304688 289.717773438 c 128,-1,21
 560.203125 240.001953125 560.203125 240.001953125 560.203125 169.43359375 c 128,-1,22
 560.203125 98.865234375 560.203125 98.865234375 510.487304688 49.1494140625 c 0,23,24
 460.197265625 0.0029296875 460.197265625 0.0029296875 389.706054688 -1.068359375 c 0,25,26
 317.485351562 -0.4169921875 317.485351562 -0.4169921875 267.918945312 49.1494140625 c 128,-1,16
 218.203125 98.865234375 218.203125 98.865234375 218.203125 169.43359375 c 128,-1,17
EndSplineSet
EndChar

StartChar: afii57388
Encoding: 1548 1548 7
Width: 777
VWidth: 2438
GlyphClass: 2
Flags: W
LayerCount: 2
Fore
SplineSet
479.442382812 8.2724609375 m 0,0,1
 447.110351562 -1.06640625 447.110351562 -1.06640625 392.662109375 -1.06640625 c 0,2,3
 323.9609375 -1.06640625 323.9609375 -1.06640625 278.3828125 39.4453125 c 128,-1,4
 232.8046875 79.9580078125 232.8046875 79.9580078125 217.504882812 151.459960938 c 0,5,6
 203.33984375 217.681640625 203.33984375 217.681640625 227.999023438 325.077148438 c 0,7,8
 271.95703125 516.528320312 271.95703125 516.528320312 472.922851562 710.475585938 c 2,9,-1
 497.147460938 733.853515625 l 1,10,-1
 625.911132812 639.653320312 l 1,11,-1
 594.427734375 606.671875 l 2,12,13
 550.729492188 560.895507812 550.729492188 560.895507812 518.575195312 516.412109375 c 128,-1,14
 486.420898438 471.927734375 486.420898438 471.927734375 466.758789062 431.123046875 c 128,-1,15
 447.096679688 390.318359375 447.096679688 390.318359375 438.391601562 351.625976562 c 1,16,17
 502.873046875 344.05859375 502.873046875 344.05859375 543.529296875 308.747070312 c 128,-1,18
 584.186523438 273.435546875 584.186523438 273.435546875 591.768554688 214.6640625 c 0,19,20
 597.211914062 177.424804688 597.211914062 177.424804688 592.317382812 143.98046875 c 128,-1,21
 587.421875 110.536132812 587.421875 110.536132812 574.212890625 83.80859375 c 128,-1,22
 561.002929688 57.0810546875 561.002929688 57.0810546875 536.8046875 37.4658203125 c 128,-1,23
 512.606445312 17.8515625 512.606445312 17.8515625 479.442382812 8.2724609375 c 0,0,1
EndSplineSet
EndChar

StartChar: uni0615
Encoding: 1557 1557 8
Width: 11
VWidth: 2553
GlyphClass: 4
Flags: W
AnchorPoint: "Anchor-10" 648 1490.29 mark 0
AnchorPoint: "Anchor-9" 648 1490.29 mark 0
AnchorPoint: "Anchor-1" 648 2306.6 basemark 0
AnchorPoint: "Anchor-1" 648 1490.29 mark 0
LayerCount: 2
Fore
SplineSet
870.814453125 1786.56335474 m 0,0,1
 870.814453125 1852.77112533 870.814453125 1852.77112533 818.121627196 1881.69234277 c 0,2,3
 802.940163369 1890.02490813 802.940163369 1890.02490813 763.751819966 1872.45044235 c 128,-1,4
 724.563476562 1854.87597656 724.563476562 1854.87597656 707.224425216 1847.97997027 c 0,5,6
 636.434541421 1819.82574924 636.434541421 1819.82574924 563.982421875 1729.93261719 c 2,7,-1
 530.350585938 1688.1953125 l 1,8,-1
 653.0234375 1688.1953125 l 2,9,10
 786.861868056 1688.1953125 786.861868056 1688.1953125 849.307617188 1751.54199219 c 0,11,12
 870.814453125 1773.31811574 870.814453125 1773.31811574 870.814453125 1786.56335474 c 0,0,1
950.134765625 1816.81933594 m 0,13,14
 950.134765625 1612.640625 950.134765625 1612.640625 681.908203125 1612.640625 c 2,15,-1
 347.12109375 1612.640625 l 1,16,-1
 347.12109375 1688.1953125 l 1,17,-1
 448.844726562 1688.1953125 l 1,18,-1
 448.844726562 2189.28320312 l 1,19,-1
 525.655273438 2189.28320312 l 1,20,-1
 525.655273438 1701.82226562 l 1,21,-1
 574.297851562 1800.453125 l 2,22,23
 615.064950461 1883.11452369 615.064950461 1883.11452369 736.248046875 1929.74316406 c 0,24,25
 806.352200303 1956.4497873 806.352200303 1956.4497873 885.073242188 1927.20996094 c 0,26,27
 950.134765625 1902.18426886 950.134765625 1902.18426886 950.134765625 1816.81933594 c 0,13,14
EndSplineSet
EndChar

StartChar: uni061B
Encoding: 1563 1563 9
Width: 777
VWidth: 2438
GlyphClass: 2
Flags: W
LayerCount: 2
Fore
SplineSet
224.907226562 169.43359375 m 128,-1,1
 224.907226562 240.001953125 224.907226562 240.001953125 274.623046875 289.717773438 c 128,-1,2
 324.186523438 339.282226562 324.186523438 339.282226562 395.404296875 339.935546875 c 0,3,4
 467.625 339.284179688 467.625 339.284179688 517.19140625 289.717773438 c 128,-1,5
 566.907226562 240.001953125 566.907226562 240.001953125 566.907226562 169.43359375 c 128,-1,6
 566.907226562 98.865234375 566.907226562 98.865234375 517.19140625 49.1494140625 c 0,7,8
 466.901367188 0.0029296875 466.901367188 0.0029296875 396.41015625 -1.068359375 c 0,9,10
 324.189453125 -0.4169921875 324.189453125 -0.4169921875 274.623046875 49.1494140625 c 128,-1,0
 224.907226562 98.865234375 224.907226562 98.865234375 224.907226562 169.43359375 c 128,-1,1
579.293945312 672.165039062 m 0,11,12
 574.618164062 594.961914062 574.618164062 594.961914062 527.643554688 551.412109375 c 128,-1,13
 480.669921875 507.862304688 480.669921875 507.862304688 402.744140625 507.862304688 c 0,14,15
 328.555664062 507.862304688 328.555664062 507.862304688 298.508789062 526.0546875 c 0,16,17
 292.225585938 529.859375 292.225585938 529.859375 288.5 532.159179688 c 128,-1,18
 284.775390625 534.458984375 284.775390625 534.458984375 280.618164062 537.13671875 c 128,-1,19
 276.4609375 539.815429688 276.4609375 539.815429688 273.352539062 542.047851562 c 128,-1,20
 270.244140625 544.280273438 270.244140625 544.280273438 267.418945312 546.569335938 c 0,21,22
 166.7734375 628.0546875 166.7734375 628.0546875 213.853515625 833.094726562 c 0,23,24
 258.022460938 1025.4609375 258.022460938 1025.4609375 458.987304688 1219.40625 c 2,25,-1
 483.211914062 1242.78515625 l 1,26,-1
 611.974609375 1148.58398438 l 1,27,-1
 580.491210938 1115.60253906 l 2,28,29
 515.268554688 1047.27832031 515.268554688 1047.27832031 476.436523438 983.138671875 c 128,-1,30
 437.604492188 918.999023438 437.604492188 918.999023438 424.455078125 860.552734375 c 1,31,32
 466.997070312 855.530273438 466.997070312 855.530273438 499.405273438 838.501953125 c 128,-1,33
 531.813476562 821.47265625 531.813476562 821.47265625 552.262695312 792.173828125 c 128,-1,34
 572.711914062 762.875 572.711914062 762.875 577.8125 723.659179688 c 0,35,36
 580.892578125 699.984375 580.892578125 699.984375 579.293945312 672.165039062 c 0,11,12
EndSplineSet
EndChar

StartChar: uni061F
Encoding: 1567 1567 10
Width: 1281
VWidth: 2438
GlyphClass: 2
Flags: W
LayerCount: 2
Fore
SplineSet
525.284179688 169.43359375 m 128,-1,1
 525.284179688 240.001953125 525.284179688 240.001953125 575 289.717773438 c 128,-1,2
 624.563476562 339.282226562 624.563476562 339.282226562 695.78125 339.935546875 c 0,3,4
 768.001953125 339.284179688 768.001953125 339.284179688 817.568359375 289.717773438 c 128,-1,5
 867.284179688 240.001953125 867.284179688 240.001953125 867.284179688 169.43359375 c 128,-1,6
 867.284179688 98.865234375 867.284179688 98.865234375 817.568359375 49.1494140625 c 0,7,8
 767.278320312 0.0029296875 767.278320312 0.0029296875 696.787109375 -1.068359375 c 0,9,10
 624.56640625 -0.4169921875 624.56640625 -0.4169921875 575 49.1494140625 c 128,-1,0
 525.284179688 98.865234375 525.284179688 98.865234375 525.284179688 169.43359375 c 128,-1,1
558.525390625 521.380859375 m 2,11,12
 557.828125 610.763671875 557.828125 610.763671875 528.546875 670.448242188 c 128,-1,13
 499.266601562 730.1328125 499.266601562 730.1328125 441.010742188 765.94921875 c 0,14,15
 188.48046875 922.01953125 188.48046875 922.01953125 194.008789062 1160.85742188 c 0,16,17
 197.358398438 1330.5546875 197.358398438 1330.5546875 321.704101562 1438.51953125 c 0,18,19
 539.02734375 1625.16210938 539.02734375 1625.16210938 918.110351562 1522.11230469 c 0,20,21
 991.590820312 1502.21875 991.590820312 1502.21875 1079.41015625 1450.88671875 c 2,22,-1
 1108.82714844 1433.69238281 l 1,23,-1
 1016.25878906 1194.5234375 l 1,24,-1
 975.623046875 1218.57910156 l 2,25,26
 916.659179688 1253.48632812 916.659179688 1253.48632812 855.177734375 1274.13574219 c 128,-1,27
 793.6953125 1294.78613281 793.6953125 1294.78613281 729.11328125 1301.46875 c 0,28,29
 544.651367188 1320.546875 544.651367188 1320.546875 487.654296875 1222.02246094 c 0,30,31
 466.608398438 1185.38671875 466.608398438 1185.38671875 468.92578125 1144.43945312 c 0,32,33
 475.65234375 1041.86035156 475.65234375 1041.86035156 580.791015625 968.872070312 c 0,34,35
 699.998046875 886.221679688 699.998046875 886.221679688 765.313476562 774.188476562 c 128,-1,36
 830.629882812 662.154296875 830.629882812 662.154296875 839.462890625 524.25 c 2,37,-1
 842.188476562 481.693359375 l 1,38,-1
 558.834960938 481.693359375 l 1,39,-1
 558.525390625 521.380859375 l 2,11,12
EndSplineSet
EndChar

StartChar: uni0621
Encoding: 1569 1569 11
Width: 1043
VWidth: 2593
GlyphClass: 2
Flags: W
AnchorPoint: "Anchor-7" 523.775 -173.329 basechar 0
AnchorPoint: "Anchor-10" 460.982 1496.26 basechar 0
LayerCount: 2
Fore
SplineSet
93.2373046875 -4.265625 m 1,0,-1
 93.2373046875 244.537109375 l 1,1,-1
 123.250976562 252.275390625 l 2,2,3
 258.92578125 287.25390625 258.92578125 287.25390625 374.818359375 338.826171875 c 1,4,5
 245.771484375 377.440429688 245.771484375 377.440429688 182.573242188 457.961914062 c 0,6,7
 101.130859375 561.728515625 101.130859375 561.728515625 101.130859375 704.59765625 c 0,8,9
 101.130859375 965.227539062 101.130859375 965.227539062 299.43359375 1086.96875 c 0,10,11
 492.395507812 1205.43261719 492.395507812 1205.43261719 787.428710938 1141.45410156 c 2,12,-1
 818.951171875 1134.61816406 l 1,13,-1
 818.951171875 872.32421875 l 1,14,-1
 768.4375 886.084960938 l 2,15,16
 716.149414062 900.330078125 716.149414062 900.330078125 670.228515625 907.166015625 c 128,-1,17
 624.307617188 914.001953125 624.307617188 914.001953125 586.6171875 913.653320312 c 128,-1,18
 548.926757812 913.3046875 548.926757812 913.3046875 517.106445312 906.3046875 c 128,-1,19
 485.286132812 899.305664062 485.286132812 899.305664062 460.6171875 886.529296875 c 128,-1,20
 435.948242188 873.752929688 435.948242188 873.752929688 416.651367188 855.083984375 c 0,21,22
 360.5625 800.8203125 360.5625 800.8203125 360.5625 690.739257812 c 0,23,24
 360.5625 619.180664062 360.5625 619.180664062 408.10546875 574.37890625 c 128,-1,25
 455.649414062 529.578125 455.649414062 529.578125 563.69140625 508.303710938 c 0,26,27
 728.364257812 475.879882812 728.364257812 475.879882812 860.884765625 545.17578125 c 2,28,-1
 919.419921875 575.784179688 l 1,29,-1
 919.419921875 313.267578125 l 1,30,-1
 902.358398438 301.32421875 l 2,31,32
 858.0234375 270.290039062 858.0234375 270.290039062 540.349609375 132.5234375 c 1,33,34
 281.284179688 30.8505859375 281.284179688 30.8505859375 140.580078125 4.5751953125 c 2,35,-1
 93.2373046875 -4.265625 l 1,0,-1
EndSplineSet
EndChar

StartChar: uni0627
Encoding: 1575 1575 17
Width: 531
VWidth: 2593
GlyphClass: 2
Flags: W
AnchorPoint: "Anchor-10" 239.338 1475.41 basechar 0
AnchorPoint: "Anchor-7" 237.805 -247.859 basechar 0
LayerCount: 2
Fore
SplineSet
117.299804688 1387.72753906 m 1,0,-1
 372.393554688 1387.72753906 l 5,1,-1
 372.393554688 0.6943359375 l 1,2,-1
 117.299804688 0.6943359375 l 1,3,-1
 117.299804688 1387.72753906 l 1,0,-1
EndSplineSet
Substitution2: "'fina' Terminal Forms in Arabic lookup 9 subtable" uniFE8E
EndChar

StartChar: uni062D
Encoding: 1581 1581 23
Width: 1375
VWidth: 2593
GlyphClass: 2
Flags: W
AnchorPoint: "Anchor-10" 594.649 1490.91 basechar 0
AnchorPoint: "Anchor-7" 312.854 -853.488 basechar 0
LayerCount: 2
Fore
SplineSet
937.923828125 495.26953125 m 0,0,1
 312.685546875 264.817382812 312.685546875 264.817382812 299.16796875 -100.520507812 c 0,2,3
 298.685546875 -112.763671875 298.685546875 -112.763671875 298.688476562 -124.571289062 c 0,4,5
 298.728515625 -313.186523438 298.728515625 -313.186523438 423.263671875 -405.758789062 c 128,-1,6
 547.798828125 -498.331054688 547.798828125 -498.331054688 815.327148438 -498.172851562 c 2,7,-1
 1283.33007812 -497.895507812 l 1,8,-1
 1283.33007812 -755.555664062 l 1,9,-1
 802.356445312 -754.58203125 l 2,10,11
 398.05078125 -753.650390625 398.05078125 -753.650390625 218.541992188 -582.448242188 c 0,12,13
 37.8408203125 -409.143554688 37.8408203125 -409.143554688 50.9365234375 -102.081054688 c 0,14,15
 62.9091796875 178.66015625 62.9091796875 178.66015625 259.899414062 379.568359375 c 128,-1,16
 456.889648438 580.477539062 456.889648438 580.477539062 828.413085938 699.786132812 c 1,17,18
 790.33203125 712.8671875 790.33203125 712.8671875 751.653320312 725.642578125 c 128,-1,19
 712.974609375 738.416992188 712.974609375 738.416992188 673.708984375 750.8828125 c 0,20,21
 541.053710938 792.99609375 541.053710938 792.99609375 461.283203125 787.469726562 c 0,22,23
 427.805664062 785.29296875 427.805664062 785.29296875 391.772460938 748.228515625 c 128,-1,24
 355.73828125 711.1640625 355.73828125 711.1640625 320.9765625 631.70703125 c 2,25,-1
 305.756835938 596.920898438 l 1,26,-1
 89.8798828125 678.267578125 l 1,27,-1
 104.479492188 715.918945312 l 2,28,29
 120.033203125 756.030273438 120.033203125 756.030273438 134.51171875 788.587890625 c 128,-1,30
 148.989257812 821.14453125 148.989257812 821.14453125 162.5625 846.380859375 c 0,31,32
 224.453125 962.986328125 224.453125 962.986328125 327.114257812 1009.39746094 c 128,-1,33
 429.775390625 1055.80859375 429.775390625 1055.80859375 563.310546875 1028.34863281 c 0,34,35
 660.0234375 1008.87402344 660.0234375 1008.87402344 874.9296875 927.780273438 c 2,36,-1
 1265.27734375 781.1484375 l 1,37,-1
 1265.171875 562.591796875 l 1,38,-1
 1228.73339844 559.350585938 l 2,39,40
 1076.60058594 545.81640625 1076.60058594 545.81640625 937.923828125 495.26953125 c 0,0,1
EndSplineSet
Substitution2: "'fina' Terminal Forms in Arabic lookup 9 subtable" uniFEA2
Substitution2: "'medi' Medial Forms in Arabic lookup 11 subtable" uniFEA4
Substitution2: "'init' Initial Forms in Arabic lookup 13 subtable" uniFEA3
EndChar

StartChar: uni062F
Encoding: 1583 1583 25
Width: 1040
VWidth: 2593
GlyphClass: 2
Flags: W
AnchorPoint: "Anchor-10" 333.659 1340.16 basechar 0
AnchorPoint: "Anchor-7" 386.382 -262.53 basechar 0
LayerCount: 2
Fore
SplineSet
487.936523438 -1.0634765625 m 2,0,-1
 51.8994140625 -1.0615234375 l 1,1,-1
 51.8994140625 268.419921875 l 1,2,-1
 95.0673828125 268.251953125 l 2,3,4
 467.80078125 266.799804688 467.80078125 266.799804688 544.538085938 273.638671875 c 0,5,6
 579.259765625 276.733398438 579.259765625 276.733398438 604.607421875 280.866210938 c 128,-1,7
 629.955078125 284.999023438 629.955078125 284.999023438 636.829101562 287.673828125 c 0,8,9
 659.06640625 296.330078125 659.06640625 296.330078125 669.072265625 307.1875 c 128,-1,10
 679.079101562 318.043945312 679.079101562 318.043945312 679.192382812 337.583984375 c 128,-1,11
 679.305664062 357.124023438 679.305664062 357.124023438 667.545898438 388.731445312 c 0,12,13
 660.577148438 407.4609375 660.577148438 407.4609375 614.98046875 468.259765625 c 128,-1,14
 569.383789062 529.057617188 569.383789062 529.057617188 495.916992188 613.930664062 c 2,15,-1
 289.881835938 851.9609375 l 1,16,-1
 461.083984375 1043.03222656 l 1,17,-1
 656.693359375 818.99609375 l 2,18,19
 676.166992188 796.692382812 676.166992188 796.692382812 698.4296875 771.205078125 c 128,-1,20
 720.692382812 745.716796875 720.692382812 745.716796875 735.627929688 728.62109375 c 128,-1,21
 750.563476562 711.525390625 750.563476562 711.525390625 767.182617188 692.49609375 c 128,-1,22
 783.801757812 673.466796875 783.801757812 673.466796875 794.576171875 661.1171875 c 128,-1,23
 805.3515625 648.768554688 805.3515625 648.768554688 816.532226562 635.934570312 c 128,-1,24
 827.712890625 623.100585938 827.712890625 623.100585938 834.53125 615.233398438 c 128,-1,25
 841.349609375 607.3671875 841.349609375 607.3671875 847.296875 600.46484375 c 128,-1,26
 853.243164062 593.561523438 853.243164062 593.561523438 856.310546875 589.9140625 c 128,-1,27
 859.377929688 586.265625 859.377929688 586.265625 860.46875 584.833007812 c 0,28,29
 985.177734375 409.006835938 985.177734375 409.006835938 926.930664062 231.090820312 c 0,30,31
 847.2734375 -1.80859375 847.2734375 -1.80859375 487.936523438 -1.0634765625 c 2,0,-1
EndSplineSet
Substitution2: "'fina' Terminal Forms in Arabic lookup 9 subtable" uniFEAA
EndChar

StartChar: uni0631
Encoding: 1585 1585 27
Width: 836
VWidth: 2593
GlyphClass: 2
Flags: W
AnchorPoint: "Anchor-10" 489.527 975.269 basechar 0
AnchorPoint: "Anchor-7" 372.998 -826.627 basechar 0
LayerCount: 2
Fore
SplineSet
163.110351562 -256.440429688 m 5,0,1
 390.401367188 -255.259765625 390.401367188 -255.259765625 452.399414062 -122.262695312 c 4,2,3
 479.201171875 -63.5849609375 479.201171875 -63.5849609375 479.3828125 22.53125 c 6,4,-1
 479.383789062 628.400390625 l 5,5,-1
 745.180664062 629.913085938 l 5,6,-1
 745.180664062 25.0263671875 l 6,7,8
 745.177734375 -242.623046875 745.177734375 -242.623046875 596.971679688 -382.221679688 c 132,-1,9
 448.765625 -521.8203125 448.765625 -521.8203125 165.66015625 -523.411132812 c 6,10,-1
 20.9482421875 -524.225585938 l 5,11,-1
 20.953125 -256.342773438 l 5,12,-1
 163.110351562 -256.440429688 l 5,0,1
EndSplineSet
PairPos2: "'kern' Horizontal Kerning lookup 15-2" uniFB90 dx=-142 dy=0 dh=-142 dv=0 dx=0 dy=0 dh=0 dv=0
PairPos2: "'kern' Horizontal Kerning lookup 15-2" uniFB8E dx=-142 dy=0 dh=-142 dv=0 dx=0 dy=0 dh=0 dv=0
PairPos2: "'kern' Horizontal Kerning lookup 15-2" uni06A9 dx=-142 dy=0 dh=-142 dv=0 dx=0 dy=0 dh=0 dv=0
PairPos2: "'kern' Horizontal Kerning lookup 15-2" uni064A dx=-47 dy=0 dh=-47 dv=0 dx=0 dy=0 dh=0 dv=0
PairPos2: "'kern' Horizontal Kerning lookup 15-2" uni0649 dx=-47 dy=0 dh=-47 dv=0 dx=0 dy=0 dh=0 dv=0
PairPos2: "'kern' Horizontal Kerning lookup 15-2" uni0648 dx=-47 dy=0 dh=-47 dv=0 dx=0 dy=0 dh=0 dv=0
PairPos2: "'kern' Horizontal Kerning lookup 15-2" uniFEEB dx=-142 dy=0 dh=-142 dv=0 dx=0 dy=0 dh=0 dv=0
PairPos2: "'kern' Horizontal Kerning lookup 15-2" uni0647 dx=-142 dy=0 dh=-142 dv=0 dx=0 dy=0 dh=0 dv=0
PairPos2: "'kern' Horizontal Kerning lookup 15-2" uniFEE7 dx=-142 dy=0 dh=-142 dv=0 dx=0 dy=0 dh=0 dv=0
PairPos2: "'kern' Horizontal Kerning lookup 15-2" uni0646 dx=-47 dy=0 dh=-47 dv=0 dx=0 dy=0 dh=0 dv=0
PairPos2: "'kern' Horizontal Kerning lookup 15-2" uniFEE3 dx=-142 dy=0 dh=-142 dv=0 dx=0 dy=0 dh=0 dv=0
PairPos2: "'kern' Horizontal Kerning lookup 15-2" uni0645 dx=-142 dy=0 dh=-142 dv=0 dx=0 dy=0 dh=0 dv=0
PairPos2: "'kern' Horizontal Kerning lookup 15-2" uni0644 dx=-47 dy=0 dh=-47 dv=0 dx=0 dy=0 dh=0 dv=0
PairPos2: "'kern' Horizontal Kerning lookup 15-2" uniFEDB dx=-142 dy=0 dh=-142 dv=0 dx=0 dy=0 dh=0 dv=0
PairPos2: "'kern' Horizontal Kerning lookup 15-2" uni0643 dx=-142 dy=0 dh=-142 dv=0 dx=0 dy=0 dh=0 dv=0
PairPos2: "'kern' Horizontal Kerning lookup 15-2" uniFED7 dx=-142 dy=0 dh=-142 dv=0 dx=0 dy=0 dh=0 dv=0
PairPos2: "'kern' Horizontal Kerning lookup 15-2" uni0642 dx=-47 dy=0 dh=-47 dv=0 dx=0 dy=0 dh=0 dv=0
PairPos2: "'kern' Horizontal Kerning lookup 15-2" uniFED3 dx=-142 dy=0 dh=-142 dv=0 dx=0 dy=0 dh=0 dv=0
PairPos2: "'kern' Horizontal Kerning lookup 15-2" uni0641 dx=-142 dy=0 dh=-142 dv=0 dx=0 dy=0 dh=0 dv=0
PairPos2: "'kern' Horizontal Kerning lookup 15-2" uniFECF dx=-142 dy=0 dh=-142 dv=0 dx=0 dy=0 dh=0 dv=0
PairPos2: "'kern' Horizontal Kerning lookup 15-2" uniFECB dx=-142 dy=0 dh=-142 dv=0 dx=0 dy=0 dh=0 dv=0
PairPos2: "'kern' Horizontal Kerning lookup 15-2" uniFEC7 dx=-142 dy=0 dh=-142 dv=0 dx=0 dy=0 dh=0 dv=0
PairPos2: "'kern' Horizontal Kerning lookup 15-2" uni0638 dx=-142 dy=0 dh=-142 dv=0 dx=0 dy=0 dh=0 dv=0
PairPos2: "'kern' Horizontal Kerning lookup 15-2" uniFEC3 dx=-142 dy=0 dh=-142 dv=0 dx=0 dy=0 dh=0 dv=0
PairPos2: "'kern' Horizontal Kerning lookup 15-2" uni0637 dx=-142 dy=0 dh=-142 dv=0 dx=0 dy=0 dh=0 dv=0
PairPos2: "'kern' Horizontal Kerning lookup 15-2" uniFEBF dx=-142 dy=0 dh=-142 dv=0 dx=0 dy=0 dh=0 dv=0
PairPos2: "'kern' Horizontal Kerning lookup 15-2" uni0636 dx=-142 dy=0 dh=-142 dv=0 dx=0 dy=0 dh=0 dv=0
PairPos2: "'kern' Horizontal Kerning lookup 15-2" uniFEBB dx=-142 dy=0 dh=-142 dv=0 dx=0 dy=0 dh=0 dv=0
PairPos2: "'kern' Horizontal Kerning lookup 15-2" uni0635 dx=-142 dy=0 dh=-142 dv=0 dx=0 dy=0 dh=0 dv=0
PairPos2: "'kern' Horizontal Kerning lookup 15-2" uniFEB7 dx=-142 dy=0 dh=-142 dv=0 dx=0 dy=0 dh=0 dv=0
PairPos2: "'kern' Horizontal Kerning lookup 15-2" uni0634 dx=-142 dy=0 dh=-142 dv=0 dx=0 dy=0 dh=0 dv=0
PairPos2: "'kern' Horizontal Kerning lookup 15-2" uniFEB3 dx=-142 dy=0 dh=-142 dv=0 dx=0 dy=0 dh=0 dv=0
PairPos2: "'kern' Horizontal Kerning lookup 15-2" uni0633 dx=-142 dy=0 dh=-142 dv=0 dx=0 dy=0 dh=0 dv=0
PairPos2: "'kern' Horizontal Kerning lookup 15-2" uni0632 dx=-47 dy=0 dh=-47 dv=0 dx=0 dy=0 dh=0 dv=0
PairPos2: "'kern' Horizontal Kerning lookup 15-2" uni0631 dx=-47 dy=0 dh=-47 dv=0 dx=0 dy=0 dh=0 dv=0
PairPos2: "'kern' Horizontal Kerning lookup 15-2" uniFEA7 dx=-142 dy=0 dh=-142 dv=0 dx=0 dy=0 dh=0 dv=0
PairPos2: "'kern' Horizontal Kerning lookup 15-2" uniFEA3 dx=-142 dy=0 dh=-142 dv=0 dx=0 dy=0 dh=0 dv=0
PairPos2: "'kern' Horizontal Kerning lookup 15-2" uniFE9F dx=-142 dy=0 dh=-142 dv=0 dx=0 dy=0 dh=0 dv=0
PairPos2: "'kern' Horizontal Kerning lookup 15-2" uniFE9B dx=-142 dy=0 dh=-142 dv=0 dx=0 dy=0 dh=0 dv=0
PairPos2: "'kern' Horizontal Kerning lookup 15-2" uni062B dx=-142 dy=0 dh=-142 dv=0 dx=0 dy=0 dh=0 dv=0
PairPos2: "'kern' Horizontal Kerning lookup 15-2" uniFE97 dx=-142 dy=0 dh=-142 dv=0 dx=0 dy=0 dh=0 dv=0
PairPos2: "'kern' Horizontal Kerning lookup 15-2" uni062A dx=-142 dy=0 dh=-142 dv=0 dx=0 dy=0 dh=0 dv=0
PairPos2: "'kern' Horizontal Kerning lookup 15-2" uni0629 dx=-142 dy=0 dh=-142 dv=0 dx=0 dy=0 dh=0 dv=0
PairPos2: "'kern' Horizontal Kerning lookup 15-2" uniFE91 dx=-47 dy=0 dh=-47 dv=0 dx=0 dy=0 dh=0 dv=0
PairPos2: "'kern' Horizontal Kerning lookup 15-2" uni0628 dx=-142 dy=0 dh=-142 dv=0 dx=0 dy=0 dh=0 dv=0
PairPos2: "'kern' Horizontal Kerning lookup 15-2" uni0627 dx=-188 dy=0 dh=-188 dv=0 dx=0 dy=0 dh=0 dv=0
PairPos2: "'kern' Horizontal Kerning lookup 15-2" uni0622 dx=-188 dy=0 dh=-188 dv=0 dx=0 dy=0 dh=0 dv=0
PairPos2: "'kern' Horizontal Kerning lookup 15-2" uni0621 dx=-142 dy=0 dh=-142 dv=0 dx=0 dy=0 dh=0 dv=0
PairPos2: "'kern' Horizontal Kerning lookup 15-2" uniFB94 dx=-142 dy=0 dh=-142 dv=0 dx=0 dy=0 dh=0 dv=0
PairPos2: "'kern' Horizontal Kerning lookup 15-2" uniFB92 dx=-142 dy=0 dh=-142 dv=0 dx=0 dy=0 dh=0 dv=0
PairPos2: "'kern' Horizontal Kerning lookup 15-2" afii57509 dx=-142 dy=0 dh=-142 dv=0 dx=0 dy=0 dh=0 dv=0
PairPos2: "'kern' Horizontal Kerning lookup 15-2" afii57508 dx=-47 dy=0 dh=-47 dv=0 dx=0 dy=0 dh=0 dv=0
PairPos2: "'kern' Horizontal Kerning lookup 15-2" uniFB7C dx=-142 dy=0 dh=-142 dv=0 dx=0 dy=0 dh=0 dv=0
PairPos2: "'kern' Horizontal Kerning lookup 15-2" afii57506 dx=-142 dy=0 dh=-142 dv=0 dx=0 dy=0 dh=0 dv=0
PairPos2: "'kern' Horizontal Kerning lookup 15-2" afii57440 dx=-94 dy=0 dh=-94 dv=0 dx=0 dy=0 dh=0 dv=0
Substitution2: "'fina' Terminal Forms in Arabic lookup 9 subtable" uniFEAE
EndChar

StartChar: uni0633
Encoding: 1587 1587 29
Width: 2503
VWidth: 2593
GlyphClass: 2
Flags: W
AnchorPoint: "Anchor-10" 547.364 1027.96 basechar 0
AnchorPoint: "Anchor-7" 309.092 -601.765 basechar 0
LayerCount: 2
Fore
SplineSet
1359.04101562 64.7431640625 m 1,0,1
 1332 -434 1332 -434 729.025390625 -452.787109375 c 1,2,-1
 701.23828125 -452.787109375 l 2,3,4
 384 -453 384 -453 217.860351562 -317.3828125 c 0,5,6
 51.2655604172 -182.215463505 51.2655604172 -182.215463505 51.16015625 83.2607421875 c 2,7,-1
 50.984375 525.9921875 l 1,8,-1
 309.91796875 526.041015625 l 1,9,-1
 309.91796875 84.4580078125 l 2,10,11
 310.061200958 -183.490234375 310.061200958 -183.490234375 703.396484375 -183.490234375 c 6,12,-1
 728.2578125 -183.490234375 l 1,13,-1
 755.552734375 -182.91015625 l 2,14,15
 938 -179 938 -179 1021.09960938 -112.548828125 c 0,16,17
 1103.96001665 -46.0320968911 1103.96001665 -46.0320968911 1103.88574219 88.53515625 c 2,18,-1
 1103.55664062 684.787109375 l 1,19,-1
 1373.78808594 685.025390625 l 1,20,-1
 1374.48339844 422.245117188 l 2,21,22
 1375 260 1375 260 1540.92773438 257.523925781 c 0,23,24
 1651.27072986 255.996251806 1651.27072986 255.996251806 1650.69042969 436.658203125 c 2,25,-1
 1649.87011719 692.041992188 l 1,26,-1
 1903.83007812 692.041992188 l 1,27,-1
 1904.58886719 430.748046875 l 2,28,29
 1905 257 1905 257 2032.93164062 258.494628906 c 0,30,31
 2152.39550781 260.005000371 2152.39550781 260.005000371 2152.39550781 451.665039062 c 2,32,-1
 2152.39550781 693.979492188 l 1,33,-1
 2411.15234375 693.979492188 l 1,34,-1
 2411.15234375 457.6328125 l 2,35,36
 2411 82 2411 82 2150.60058594 13.015625 c 0,37,38
 2098 -1 2098 -1 2036.57714844 -1.06640625 c 0,39,40
 1856 -2 1856 -2 1771.453125 126.453125 c 1,41,42
 1693 -3 1693 -3 1542.27148438 -0.9970703125 c 0,43,44
 1416 0 1416 0 1359.04101562 64.7431640625 c 1,0,1
EndSplineSet
Substitution2: "'fina' Terminal Forms in Arabic lookup 9 subtable" uniFEB2
Substitution2: "'medi' Medial Forms in Arabic lookup 11 subtable" uniFEB4
Substitution2: "'init' Initial Forms in Arabic lookup 13 subtable" uniFEB3
EndChar

StartChar: uni0635
Encoding: 1589 1589 31
Width: 2633
VWidth: 2593
GlyphClass: 2
Flags: W
AnchorPoint: "Anchor-10" 539.495 1027.96 basechar 0
AnchorPoint: "Anchor-7" 246.07 -590.58 basechar 0
LayerCount: 2
Fore
SplineSet
1671.91015625 281.52734375 m 1,0,-1
 1983.07519531 281.52734375 l 2,1,2
 2085.9453125 281.271484375 2085.9453125 281.271484375 2171.06054688 318.36328125 c 0,3,4
 2227.73144531 342.374023438 2227.73144531 342.374023438 2252.78417969 386.823242188 c 128,-1,5
 2277.8359375 431.272460938 2277.8359375 431.272460938 2274.04394531 505.225585938 c 0,6,7
 2269.90429688 585.727539062 2269.90429688 585.727539062 2238.97265625 618.047851562 c 128,-1,8
 2208.04003906 650.3671875 2208.04003906 650.3671875 2141.66015625 648.556640625 c 0,9,10
 2062.61230469 646.674804688 2062.61230469 646.674804688 1934.97363281 538.16015625 c 0,11,12
 1809.59863281 431.5703125 1809.59863281 431.5703125 1671.91015625 281.52734375 c 1,0,-1
50.98828125 525.9921875 m 1,13,-1
 309.877929688 526.041015625 l 1,14,-1
 309.877929688 84.46484375 l 2,15,16
 309.931640625 -50.4765625 309.931640625 -50.4765625 403.482421875 -116.983398438 c 128,-1,17
 497.032226562 -183.490234375 497.032226562 -183.490234375 703.356445312 -183.490234375 c 2,18,-1
 728.217773438 -183.490234375 l 1,19,-1
 755.532226562 -182.91015625 l 2,20,21
 938.219726562 -179.186523438 938.219726562 -179.186523438 1021.07519531 -112.549804688 c 128,-1,22
 1103.9296875 -45.9140625 1103.9296875 -45.9140625 1103.84570312 88.5322265625 c 2,23,-1
 1103.47167969 684.797851562 l 1,24,-1
 1364.91992188 684.931640625 l 1,25,-1
 1365.0390625 516.631835938 l 2,26,27
 1365.13378906 382.369140625 1365.13378906 382.369140625 1421.13476562 349.450195312 c 1,28,29
 1601.68066406 558.262695312 1601.68066406 558.262695312 1641.91308594 599.034179688 c 0,30,31
 1823.69726562 781.276367188 1823.69726562 781.276367188 1958.01367188 855.373046875 c 0,32,33
 2030.14257812 895.23046875 2030.14257812 895.23046875 2115.16503906 901.87890625 c 128,-1,34
 2200.18652344 908.526367188 2200.18652344 908.526367188 2292.49316406 882.754882812 c 0,35,36
 2415.52050781 849.061523438 2415.52050781 849.061523438 2477.49414062 742.168945312 c 128,-1,37
 2539.46777344 635.276367188 2539.46777344 635.276367188 2541.11914062 466.614257812 c 0,38,39
 2542.13378906 336.913085938 2542.13378906 336.913085938 2486.63964844 236.5546875 c 128,-1,40
 2431.14550781 136.196289062 2431.14550781 136.196289062 2321.86328125 70.5751953125 c 0,41,42
 2263.29492188 35.4853515625 2263.29492188 35.4853515625 2197.80761719 17.8515625 c 128,-1,43
 2132.3203125 0.2177734375 2132.3203125 0.2177734375 2061.04785156 0.1845703125 c 2,44,-1
 1661.75976562 0 l 2,45,46
 1461.70800781 0 1461.70800781 0 1359.92773438 61.0908203125 c 1,47,48
 1357.03125 -37.3671875 1357.03125 -37.3671875 1329.59667969 -117.74609375 c 128,-1,49
 1302.16210938 -198.124023438 1302.16210938 -198.124023438 1251.45605469 -258.732421875 c 128,-1,50
 1200.75 -319.341796875 1200.75 -319.341796875 1127.36914062 -361.35546875 c 128,-1,51
 1053.98828125 -403.369140625 1053.98828125 -403.369140625 959.147460938 -426.01171875 c 128,-1,52
 864.305664062 -448.654296875 864.305664062 -448.654296875 748.65234375 -452.186523438 c 2,53,-1
 728.985351562 -452.787109375 l 1,54,-1
 701.201171875 -452.787109375 l 2,55,56
 384.463867188 -452.897460938 384.463867188 -452.897460938 217.760742188 -317.379882812 c 128,-1,57
 51.056640625 -181.86328125 51.056640625 -181.86328125 51.12109375 83.2646484375 c 2,58,-1
 50.98828125 525.9921875 l 1,13,-1
EndSplineSet
Substitution2: "'fina' Terminal Forms in Arabic lookup 9 subtable" uniFEBA
Substitution2: "'medi' Medial Forms in Arabic lookup 11 subtable" uniFEBC
Substitution2: "'init' Initial Forms in Arabic lookup 13 subtable" uniFEBB
EndChar

StartChar: uni0637
Encoding: 1591 1591 33
Width: 1485
VWidth: 2593
GlyphClass: 2
Flags: W
AnchorPoint: "Anchor-10" 443.723 1580.59 basechar 0
AnchorPoint: "Anchor-7" 654.688 -237.098 basechar 0
LayerCount: 2
Fore
SplineSet
524.893554688 282.217773438 m 1,0,-1
 836.05859375 282.217773438 l 2,1,2
 938.926757812 281.962890625 938.926757812 281.962890625 1024.04492188 319.0546875 c 0,3,4
 1080.71484375 343.065429688 1080.71484375 343.065429688 1105.76757812 387.514648438 c 128,-1,5
 1130.81933594 431.962890625 1130.81933594 431.962890625 1127.02734375 505.916015625 c 0,6,7
 1122.88769531 586.41796875 1122.88769531 586.41796875 1091.95605469 618.73828125 c 128,-1,8
 1061.0234375 651.057617188 1061.0234375 651.057617188 994.643554688 649.247070312 c 0,9,10
 984.620117188 649.008789062 984.620117188 649.008789062 973.350585938 646.810546875 c 128,-1,11
 962.081054688 644.611328125 962.081054688 644.611328125 949.131835938 640.224609375 c 128,-1,12
 936.18359375 635.836914062 936.18359375 635.836914062 922.166992188 629.401367188 c 128,-1,13
 908.151367188 622.965820312 908.151367188 622.965820312 892.439453125 614.005859375 c 128,-1,14
 876.7265625 605.044921875 876.7265625 605.044921875 860.139648438 593.96484375 c 128,-1,15
 843.552734375 582.884765625 843.552734375 582.884765625 825.251953125 568.942382812 c 128,-1,16
 806.951171875 555.000976562 806.951171875 555.000976562 787.955078125 538.8515625 c 0,17,18
 662.581054688 432.26171875 662.581054688 432.26171875 524.893554688 282.217773438 c 1,0,-1
312.169921875 409.624023438 m 1,19,-1
 312.169921875 1388.74414062 l 5,20,-1
 567.264648438 1388.74414062 l 5,21,-1
 567.264648438 680.219726562 l 1,22,23
 692 793 692 793 810.252929688 851.631835938 c 0,24,25
 968 931 968 931 1145.28027344 883.5 c 0,26,27
 1228 861 1228 861 1283.59472656 804.502929688 c 128,-1,28
 1339 748 1339 748 1366.21875 663.428710938 c 0,29,30
 1393 579 1393 579 1394.10253906 467.309570312 c 0,31,32
 1395 338 1395 338 1339.79199219 237.181640625 c 0,33,34
 1282.78895301 134.825410615 1282.78895301 134.825410615 1174.69726562 71.17578125 c 0,35,36
 1054.8978254 0.940097356822 1054.8978254 0.940097356822 914.072265625 0.875 c 2,37,-1
 514.790039062 0.6904296875 l 1,38,-1
 49.7705078125 -0.0703125 l 1,39,-1
 49.7705078125 269.200195312 l 1,40,-1
 195.96484375 269.200195312 l 1,41,-1
 312.169921875 409.624023438 l 1,19,-1
EndSplineSet
Substitution2: "'fina' Terminal Forms in Arabic lookup 9 subtable" uniFEC2
Substitution2: "'medi' Medial Forms in Arabic lookup 11 subtable" uniFEC4
Substitution2: "'init' Initial Forms in Arabic lookup 13 subtable" uniFEC3
EndChar

StartChar: uni0639
Encoding: 1593 1593 35
Width: 1375
VWidth: 2593
GlyphClass: 2
Flags: W
AnchorPoint: "Anchor-10" 665.349 1495.99 basechar 0
AnchorPoint: "Anchor-7" 290.438 -831.494 basechar 0
LayerCount: 2
Fore
SplineSet
1282.27441406 -754.060546875 m 1,0,-1
 800.450195312 -753.098632812 l 2,1,2
 434 -752 434 -752 242.443359375 -593.931640625 c 0,3,4
 51 -435 51 -435 51.8046875 -125.692382812 c 0,5,6
 53 292 53 292 437.220703125 520.783203125 c 1,7,8
 374 558 374 558 338.026367188 610.450195312 c 0,9,10
 212 793 212 793 302.446289062 1002.69824219 c 0,11,12
 376 1173 376 1173 571.610351562 1220.10351562 c 0,13,14
 806.947970272 1276.98742379 806.947970272 1276.98742379 1034.57128906 1165.29492188 c 2,15,-1
 1064.72851562 1150.49707031 l 1,16,-1
 1001.04785156 931.099609375 l 1,17,-1
 960.68359375 946.125 l 2,18,19
 800 1006 800 1006 696.82784288 989.400225276 c 0,20,21
 594 973 594 973 556.709960938 934.221679688 c 0,22,23
 519 896 519 896 518.853515625 827.232910156 c 0,24,25
 518 759 518 759 564.033203125 720.498046875 c 128,-1,26
 610 682 610 682 715.844726562 671.025390625 c 1,27,-1
 1130.88085938 721.448242188 l 1,28,-1
 1130.64257812 469.555664062 l 1,29,-1
 1092.578125 467.74609375 l 2,30,31
 1014 464 1014 464 1004.87695312 464.01171875 c 0,32,33
 816 460 816 460 633.03125 353.302734375 c 4,34,35
 465 255 465 255 373.400390625 123.788085938 c 0,36,37
 293 7 293 7 292.932617188 -130.869140625 c 0,38,39
 292 -317 292 -317 413.71484375 -408.255859375 c 0,40,41
 534.948787624 -499.96126125 534.948787624 -499.96126125 796.642578125 -500.5 c 2,42,-1
 1283.81835938 -501.502929688 l 1,43,-1
 1282.27441406 -754.060546875 l 1,0,-1
EndSplineSet
Substitution2: "'fina' Terminal Forms in Arabic lookup 9 subtable" uniFECA
Substitution2: "'medi' Medial Forms in Arabic lookup 11 subtable" uniFECC
Substitution2: "'init' Initial Forms in Arabic lookup 13 subtable" uniFECB
EndChar

StartChar: afii57440
Encoding: 1600 1600 37
Width: 763
VWidth: 2593
GlyphClass: 2
Flags: W
AnchorPoint: "Anchor-10" 381.758 1531.26 basechar 0
AnchorPoint: "Anchor-7" 381.758 -101.351 basechar 0
LayerCount: 2
Fore
SplineSet
-9.0234375 -0.0966796875 m 5,0,-1
 -9.0234375 269.198242188 l 5,1,-1
 770.598632812 269.198242188 l 1,2,-1
 770.598632812 -0.0966796875 l 1,3,-1
 -9.0234375 -0.0966796875 l 5,0,-1
EndSplineSet
EndChar

StartChar: uni0643
Encoding: 1603 1603 40
Width: 1917
VWidth: 2593
GlyphClass: 2
Flags: W
AnchorPoint: "Anchor-10" 597.194 1591.14 basechar 0
AnchorPoint: "Anchor-7" 427.008 -249.033 basechar 0
LayerCount: 2
Fore
SplineSet
708.515625 813.330078125 m 6,0,1
 770.712890625 805.491210938 770.712890625 805.491210938 832.82421875 805.491210938 c 4,2,3
 889.9453125 805.491210938 889.9453125 805.491210938 938.538085938 824.377929688 c 4,4,5
 997.059570312 847.123046875 997.059570312 847.123046875 997.059570312 871.939453125 c 4,6,7
 997.059570312 875.459960938 997.059570312 875.459960938 995.52734375 878.637695312 c 132,-1,8
 993.99609375 881.815429688 993.99609375 881.815429688 979.958007812 888.348632812 c 132,-1,9
 965.919921875 894.880859375 965.919921875 894.880859375 939.92578125 898.993164062 c 4,10,11
 888.416992188 907.142578125 888.416992188 907.142578125 849.890625 925.810546875 c 132,-1,12
 811.365234375 944.478515625 811.365234375 944.478515625 787.447265625 975.76171875 c 4,13,14
 720.083984375 1063.86523438 720.083984375 1063.86523438 750.875 1160.64257812 c 4,15,16
 765.318359375 1206.04101562 765.318359375 1206.04101562 795.881835938 1241.04394531 c 132,-1,17
 826.4453125 1276.046875 826.4453125 1276.046875 871.303710938 1299.65136719 c 132,-1,18
 916.163085938 1323.25585938 916.163085938 1323.25585938 972.349609375 1337.21582031 c 132,-1,19
 1028.53613281 1351.17578125 1028.53613281 1351.17578125 1097.48144531 1356.29980469 c 6,20,-1
 1169.71484375 1361.66699219 l 5,21,-1
 1169.71484375 1181.28027344 l 5,22,-1
 1107.91796875 1176.25292969 l 6,23,24
 1034.63085938 1170.29199219 1034.63085938 1170.29199219 989.633789062 1153.76953125 c 132,-1,25
 944.637695312 1137.24707031 944.637695312 1137.24707031 928.873046875 1116.46582031 c 4,26,27
 928.592773438 1110.79589844 928.592773438 1110.79589844 928.592773438 1103.37695312 c 4,28,29
 928.592773438 1092.078125 928.592773438 1092.078125 933.108398438 1086.54882812 c 132,-1,30
 937.624023438 1081.01953125 937.624023438 1081.01953125 954.782226562 1075.49902344 c 4,31,32
 979.47265625 1067.55566406 979.47265625 1067.55566406 1027.60058594 1060.4765625 c 4,33,34
 1091.7578125 1051.04003906 1091.7578125 1051.04003906 1134.72753906 1009.41601562 c 4,35,36
 1180.609375 964.971679688 1180.609375 964.971679688 1180.609375 890.932617188 c 4,37,38
 1180.609375 868.862304688 1180.609375 868.862304688 1177.57519531 848.982421875 c 132,-1,39
 1174.54101562 829.102539062 1174.54101562 829.102539062 1167.91601562 810.352539062 c 132,-1,40
 1161.29003906 791.602539062 1161.29003906 791.602539062 1151.16210938 775.510742188 c 4,41,42
 1024.44335938 574.1875 1024.44335938 574.1875 689.719726562 626.505859375 c 6,43,-1
 632.857421875 635.396484375 l 5,44,-1
 632.857421875 822.864257812 l 5,45,-1
 708.515625 813.330078125 l 6,0,1
1371.83398438 268.23046875 m 2,46,47
 1452.17510902 268.23046875 1452.17510902 268.23046875 1490.95507812 319.270507812 c 0,48,49
 1529.41601562 370.538746083 1529.41601562 370.538746083 1529.41601562 490.396484375 c 2,50,-1
 1529.41601562 1387.18847656 l 1,51,-1
 1788.17382812 1387.18847656 l 1,52,-1
 1788.17382812 517.391601562 l 2,53,54
 1788 267 1788 267 1680.89941406 132.80078125 c 0,55,56
 1573.94694508 -1.06640625 1573.94694508 -1.06640625 1364.62988281 -1.06640625 c 2,57,-1
 462.944335938 -1.06640625 l 2,58,59
 261 -1 261 -1 155.840820312 123.497070312 c 0,60,61
 51.1503150564 247.821494482 51.1503150564 247.821494482 51.1494140625 481.006835938 c 2,62,-1
 51.1484375 733.75 l 1,63,-1
 309.904296875 733.75 l 1,64,-1
 309.904296875 491.5703125 l 2,65,66
 310 371 310 371 348.3984375 319.485351562 c 0,67,68
 386.827204174 268.23046875 386.827204174 268.23046875 467.470703125 268.23046875 c 2,69,-1
 1371.83398438 268.23046875 l 2,46,47
EndSplineSet
Substitution2: "'fina' Terminal Forms in Arabic lookup 9 subtable" uniFEDA
Substitution2: "'medi' Medial Forms in Arabic lookup 11 subtable" uniFEDC
Substitution2: "'init' Initial Forms in Arabic lookup 13 subtable" uniFEDB
EndChar

StartChar: uni0644
Encoding: 1604 1604 41
Width: 1490
VWidth: 2593
GlyphClass: 2
Flags: W
AnchorPoint: "Anchor-10" 444.625 1289.69 basechar 0
AnchorPoint: "Anchor-7" 407.231 -571.937 basechar 0
LayerCount: 2
Fore
SplineSet
309.877929688 84.44921875 m 2,0,1
 309.877929688 -68.9034158498 309.877929688 -68.9034158498 403.641894887 -143.215868081 c 128,-1,2
 497.405860087 -217.528320312 497.405860087 -217.528320312 703.356445312 -217.528320312 c 2,3,-1
 728.217773438 -217.528320312 l 1,4,-1
 755.541015625 -216.947265625 l 2,5,6
 1024.7260195 -211.216011245 1024.7260195 -211.216011245 1085.40625 -43.6484375 c 0,7,8
 1106.31582538 12.853423431 1106.31582538 12.853423431 1107.36914062 88.9697265625 c 2,9,-1
 1108.01757812 135.828125 l 2,10,11
 1107.37695312 145.383108266 1107.37695312 145.383108266 1107.37695312 473.754882812 c 2,12,-1
 1107.37695312 1386.63671875 l 5,13,-1
 1361.29882812 1386.63671875 l 5,14,-1
 1361.29882812 473.743164062 l 1,15,-1
 1360.91210938 140.083984375 l 1,16,-1
 1360.25195312 83.498046875 l 2,17,18
 1353.64957414 -467.719308542 1353.64957414 -467.719308542 728.986328125 -486.825195312 c 1,19,-1
 701.198242188 -486.825195312 l 2,20,21
 384 -487 384 -487 217.602761487 -342.589153042 c 128,-1,22
 51.2055229736 -198.178306083 51.2055229736 -198.178306083 51.12109375 83.2646484375 c 2,23,-1
 50.98828125 525.9921875 l 1,24,-1
 309.877929688 526.041015625 l 1,25,-1
 309.877929688 84.44921875 l 2,0,1
EndSplineSet
Substitution2: "'fina' Terminal Forms in Arabic lookup 9 subtable" uniFEDE
Substitution2: "'medi' Medial Forms in Arabic lookup 11 subtable" uniFEE0
Substitution2: "'init' Initial Forms in Arabic lookup 13 subtable" uniFEDF
EndChar

StartChar: uni0645
Encoding: 1605 1605 42
Width: 1324
VWidth: 2593
GlyphClass: 2
Flags: W
AnchorPoint: "Anchor-10" 635.137 1292.98 basechar 0
AnchorPoint: "Anchor-7" 134.119 -697.918 basechar 0
LayerCount: 2
Fore
SplineSet
949.1875 549.360351562 m 128,-1,1
 915.40234375 579.115234375 915.40234375 579.115234375 833.182128906 579.0625 c 128,-1,2
 750.961914062 579.009765625 750.961914062 579.009765625 716.018554688 574.709960938 c 1,3,4
 710.83203125 536.506687898 710.83203125 536.506687898 710.83203125 418.49236932 c 128,-1,5
 710.83203125 300.478050742 710.83203125 300.478050742 748.698242188 261.684337871 c 128,-1,6
 786.564453125 222.890625 786.564453125 222.890625 858.740234375 222.890625 c 0,7,8
 868.83203125 222.890625 868.83203125 222.890625 879.649414062 223.673828125 c 0,9,10
 982.97265625 230.961914062 982.97265625 230.961914062 982.97265625 451.822265625 c 0,11,0
 982.97265625 519.60546875 982.97265625 519.60546875 949.1875 549.360351562 c 128,-1,1
928.3828125 824.5390625 m 1,12,13
 1080.36816406 823.0703125 1080.36816406 823.0703125 1157.48730469 720.3828125 c 128,-1,14
 1234.60644531 617.694335938 1234.60644531 617.694335938 1233.04785156 431.860351562 c 0,15,16
 1232.49023438 144.041992188 1232.49023438 144.041992188 1064.32519531 33.8876953125 c 0,17,18
 978.010742188 -22.4912109375 978.010742188 -22.4912109375 829.082519531 -15.72265625 c 128,-1,19
 680.154296875 -8.9541015625 680.154296875 -8.9541015625 583.784179688 82.43359375 c 0,20,21
 450.66015625 205.495117188 450.66015625 205.495117188 458.909179688 466.51953125 c 0,22,23
 460.206808552 511.392660641 460.206808552 511.392660641 461.869140625 544.848632812 c 1,24,25
 305.010742188 495.493164062 305.010742188 495.493164062 305.010742188 201.032226562 c 2,26,-1
 305.010742188 -496.416992188 l 1,27,-1
 50.94921875 -496.416992188 l 1,28,-1
 50.9541015625 199.657226562 l 2,29,30
 51.9214787275 578.525557637 51.9214787275 578.525557637 245.840820312 732.041015625 c 0,31,32
 344.00120566 809.750058805 344.00120566 809.750058805 491.25 824.525390625 c 1,33,-1
 928.3828125 824.5390625 l 1,12,13
EndSplineSet
Substitution2: "'init' Initial Forms in Arabic lookup 13 subtable" uniFEE3
Substitution2: "'medi' Medial Forms in Arabic lookup 11 subtable" uniFEE4
Substitution2: "'fina' Terminal Forms in Arabic lookup 9 subtable" uniFEE2
EndChar

StartChar: uni0647
Encoding: 1607 1607 44
Width: 987
VWidth: 2370
GlyphClass: 2
Flags: W
AnchorPoint: "Anchor-10" 456.842 1270.09 basechar 0
AnchorPoint: "Anchor-7" 349.011 -218.527 basechar 0
LayerCount: 2
Fore
SplineSet
477.2578125 589.06640625 m 1,0,1
 316.364444532 423.251885905 316.364444532 423.251885905 316.364444532 358.589444863 c 0,2,3
 316.364444532 257.671928555 316.364444532 257.671928555 480.920842663 257.671928555 c 0,4,5
 641.957200914 257.671928555 641.957200914 257.671928555 641.957200914 343.306620844 c 4,6,7
 641.957200914 435.438741534 641.957200914 435.438741534 477.2578125 589.06640625 c 1,0,1
247.671070396 45.6872180267 m 0,8,9
 51.7858122664 139.365543854 51.7858122664 139.365543854 51.7858122664 314.171060206 c 0,10,11
 51.7858122664 415.756780247 51.7858122664 415.756780247 125.009605352 534.093722154 c 128,-1,12
 198.233398438 652.430664062 198.233398438 652.430664062 295.810546875 756.504882812 c 1,13,-1
 256.1640625 790.595703125 l 1,14,-1
 415.153320312 960.665039062 l 1,15,-1
 443.739257812 939.94140625 l 2,16,17
 763.141601562 708.389648438 763.141601562 708.389648438 847.431640625 503.806640625 c 0,18,19
 891.041208992 400.548099704 891.041208992 400.548099704 891.041208992 338.263907975 c 128,-1,20
 891.041208992 275.979716247 891.041208992 275.979716247 884 242.59765625 c 0,21,22
 859.435546875 126.138671875 859.435546875 126.138671875 758.425835786 64.91317222 c 128,-1,23
 657.416124697 3.68767256501 657.416124697 3.68767256501 501.259011574 3.68767256501 c 0,24,25
 335.49385898 3.68767256501 335.49385898 3.68767256501 247.671070396 45.6872180267 c 0,8,9
EndSplineSet
Substitution2: "'fina' Terminal Forms in Arabic lookup 9 subtable" uniFEEA
Substitution2: "'medi' Medial Forms in Arabic lookup 11 subtable" uniFEEC
Substitution2: "'init' Initial Forms in Arabic lookup 13 subtable" uniFEEB
EndChar

StartChar: uni0648
Encoding: 1608 1608 45
Width: 938
VWidth: 2593
GlyphClass: 2
Flags: W
AnchorPoint: "Anchor-10" 393.019 1245.88 basechar 0
AnchorPoint: "Anchor-7" 396.433 -677.366 basechar 0
LayerCount: 2
Fore
SplineSet
593.887695312 320.314453125 m 0,0,1
 594 507 594 507 532.646484375 537.76953125 c 0,2,3
 485 562 485 562 418.616210938 548.306640625 c 0,4,5
 329 530 329 530 332.708007812 386.791015625 c 0,6,7
 334 337 334 337 352 313 c 4,8,9
 403 246 403 246 592.57421875 267.271484375 c 1,10,11
 594 296 594 296 593.887695312 320.314453125 c 0,0,1
845.577148438 28.5380859375 m 2,12,13
 845.601035555 -523.594726563 845.601035555 -523.594726563 234.0078125 -523.594726562 c 0,14,15
 215.80067736 -523.594726562 215.80067736 -523.594726562 161.809570312 -523.362304688 c 2,16,-1
 119.015625 -523.1796875 l 1,17,-1
 118.870117188 -255.166992188 l 1,18,-1
 258.87109375 -255.265625 l 2,19,20
 427.681640625 -255.346679688 427.681640625 -255.346679688 503.729492188 -193.547851562 c 128,-1,21
 579.778320312 -131.749023438 579.778320312 -131.749023438 579.778320312 -2.2744140625 c 1,22,23
 552.426290447 -3.84269566682 552.426290447 -3.84269566682 465.955078125 -3.6669921875 c 0,24,25
 283.94921875 -3.7861328125 283.94921875 -3.7861328125 187.795898438 98.0546875 c 128,-1,26
 91.642578125 199.89453125 91.642578125 199.89453125 91.642578125 373.398925781 c 0,27,28
 91.642578125 673.320039696 91.642578125 673.320039696 285.307617188 770.797851562 c 0,29,30
 363.5625 810.184570312 363.5625 810.184570312 465.609375 810.184570312 c 2,31,-1
 487.809082031 810.184082031 l 2,32,33
 638.375452718 810.180680093 638.375452718 810.180680093 742.666730265 692.688307136 c 128,-1,34
 846.958007812 575.195934179 846.958007812 575.195934179 846.958007812 358.217773438 c 0,35,36
 846.958007812 355.712890625 846.958007812 355.712890625 846.948242188 353.170898438 c 2,37,-1
 845.577148438 35.5029296875 l 1,38,-1
 845.577148438 28.5380859375 l 2,12,13
EndSplineSet
Substitution2: "'fina' Terminal Forms in Arabic lookup 9 subtable" uniFEEE
EndChar

StartChar: uni0649
Encoding: 1609 1609 46
Width: 1516
VWidth: 2593
GlyphClass: 2
Flags: W
AnchorPoint: "Anchor-10" 444.637 1268.75 basechar 0
AnchorPoint: "Anchor-7" 285.837 -646.501 basechar 0
LayerCount: 2
Fore
SplineSet
1160.77441406 343.370117188 m 2,0,1
 1286.9296875 343.370117188 1286.9296875 343.370117188 1356.02929688 274.997070312 c 128,-1,2
 1425.12792969 206.625 1425.12792969 206.625 1425.12792969 81.36328125 c 2,3,-1
 1425.12792969 51.939453125 l 2,4,5
 1424.67773438 -57.03125 1424.67773438 -57.03125 1399.49902344 -145.874023438 c 128,-1,6
 1374.3203125 -234.715820312 1374.3203125 -234.715820312 1325.22558594 -301.725585938 c 128,-1,7
 1276.13183594 -368.734375 1276.13183594 -368.734375 1203.98339844 -414.490234375 c 128,-1,8
 1131.83496094 -460.245117188 1131.83496094 -460.245117188 1036.96484375 -483.853515625 c 128,-1,9
 942.09375 -507.461914062 942.09375 -507.461914062 825.844726562 -508.690429688 c 2,10,-1
 770.088867188 -509.279296875 l 1,11,-1
 690.922851562 -509.279296875 l 2,12,13
 257.228515625 -509.077148438 257.228515625 -509.077148438 114.811523438 -220.15625 c 0,14,15
 50.583984375 -88.68359375 50.583984375 -88.68359375 50.267578125 96.0087890625 c 2,16,-1
 49.9755859375 579 l 1,17,-1
 309.022460938 579 l 1,18,-1
 309.022460938 97.2041015625 l 2,19,20
 309.01171875 -75.677734375 309.01171875 -75.677734375 401.359375 -157.831054688 c 128,-1,21
 493.70703125 -239.985351562 493.70703125 -239.985351562 693.112304688 -239.982421875 c 2,22,-1
 769.844726562 -239.981445312 l 1,23,-1
 833.658203125 -239.396484375 l 2,24,25
 1009.20898438 -237.806640625 1009.20898438 -237.806640625 1088.96386719 -170.982421875 c 128,-1,26
 1168.71875 -104.158203125 1168.71875 -104.158203125 1168.71875 34.416015625 c 2,27,-1
 1168.71875 46.2236328125 l 2,28,29
 1168.80761719 70.8896484375 1168.80761719 70.8896484375 1162.17382812 77.4794921875 c 128,-1,30
 1155.54003906 84.0703125 1155.54003906 84.0703125 1130.16601562 84.1484375 c 2,31,-1
 938.884765625 84.7412109375 l 2,32,33
 872.599609375 84.8408203125 872.599609375 84.8408203125 824.697265625 109.099609375 c 128,-1,34
 776.794921875 133.358398438 776.794921875 133.358398438 751.280273438 179.978515625 c 128,-1,35
 725.765625 226.599609375 725.765625 226.599609375 725.765625 291.583007812 c 2,36,-1
 725.765625 357.397460938 l 2,37,38
 725.84765625 522.577148438 725.84765625 522.577148438 777.991210938 636.829101562 c 128,-1,39
 830.135742188 751.081054688 830.135742188 751.081054688 933.760742188 810.436523438 c 128,-1,40
 1037.38574219 869.791992188 1037.38574219 869.791992188 1188.50390625 869.901367188 c 2,41,-1
 1364.81152344 870.028320312 l 1,42,-1
 1366.08007812 600.604492188 l 1,43,-1
 1147.2421875 600.604492188 l 2,44,45
 1067.27734375 600.764648438 1067.27734375 600.764648438 1027.14746094 546.086914062 c 128,-1,46
 987.017578125 491.409179688 987.017578125 491.409179688 984.514648438 363.22265625 c 2,47,-1
 984.126953125 343.370117188 l 1,48,-1
 1160.77441406 343.370117188 l 2,0,1
EndSplineSet
Substitution2: "'fina' Terminal Forms in Arabic lookup 9 subtable" uniFEF0
Substitution2: "'medi' Medial Forms in Arabic lookup 11 subtable" uniFBE9
Substitution2: "'init' Initial Forms in Arabic lookup 13 subtable" uniFBE8
EndChar

StartChar: uni064B
Encoding: 1611 1611 48
Width: 0
VWidth: 2186
GlyphClass: 4
Flags: W
AnchorPoint: "Anchor-10" 547.84 1041.5 mark 0
AnchorPoint: "Anchor-9" 547.84 1041.5 mark 0
AnchorPoint: "Anchor-1" 547.84 1576.5 basemark 0
AnchorPoint: "Anchor-1" 547.84 1041.5 mark 0
LayerCount: 2
Fore
SplineSet
286 993 m 5,0,-1
 286 1120.0703125 l 5,1,-1
 780 1322.0703125 l 5,2,-1
 780 1195 l 5,3,-1
 286 993 l 5,0,-1
286 1252 m 5,4,-1
 286 1379.0703125 l 5,5,-1
 780 1581.0703125 l 5,6,-1
 780 1454 l 5,7,-1
 286 1252 l 5,4,-1
EndSplineSet
EndChar

StartChar: uni064C
Encoding: 1612 1612 49
Width: 0
VWidth: 2186
GlyphClass: 4
Flags: W
AnchorPoint: "Anchor-10" 554.386 1155.44 mark 0
AnchorPoint: "Anchor-9" 554.386 1155.44 mark 0
AnchorPoint: "Anchor-1" 546.386 1810.94 basemark 0
AnchorPoint: "Anchor-1" 554.386 1155.44 mark 0
LayerCount: 2
Fore
SplineSet
567.219 1298.72 m 0,0,1
 608.391 1338.78 608.391 1338.78 631.845 1385.69 c 2,2,-1
 639.364 1400.73 l 1,3,-1
 622.913 1404.22 l 2,4,5
 589.558 1411.29 589.558 1411.29 566.532 1424.31 c 0,6,7
 457.736 1481.73 457.736 1481.73 457.736 1574.47 c 0,8,9
 457.736 1661.08 457.736 1661.08 526.365 1712.8 c 0,10,11
 552.86 1732.67 552.86 1732.67 615.937 1732.67 c 0,12,13
 688.759 1732.67 688.759 1732.67 727.738 1694.66 c 0,14,15
 782.696 1640.71 782.696 1640.71 782.696 1561.63 c 0,16,17
 782.696 1521.9 782.696 1521.9 770.46 1483.15 c 2,18,-1
 765.402 1467.14 l 1,19,-1
 782.175 1466.26 l 2,20,21
 802.247 1465.2 802.247 1465.2 817.806 1465.17 c 0,22,23
 831.205 1464.45 831.205 1464.45 845.826 1464.2 c 1,24,-1
 845.826 1372.44 l 1,25,26
 806.232 1372.69 806.232 1372.69 788.381 1374.48 c 2,27,-1
 723.27 1380.74 l 1,28,-1
 719.537 1371.99 l 2,29,30
 692.652 1308.91 692.652 1308.91 614.12 1227.24 c 1,31,32
 527.043 1139.14 527.043 1139.14 431.896 1139.14 c 0,33,34
 319.02 1139.14 319.02 1139.14 262.205 1295.39 c 0,35,36
 247.89 1334.51 247.89 1334.51 246.994 1442.7 c 1,37,-1
 317.299 1442.7 l 1,38,39
 318.143 1347.11 318.143 1347.11 331.307 1318.59 c 0,40,41
 372.26 1230.84 372.26 1230.84 431.896 1230.84 c 0,42,43
 497.076 1230.84 497.076 1230.84 567.219 1298.72 c 0,0,1
669.292 1482.64 m 1,44,-1
 680.316 1508.36 l 2,45,46
 690.996 1533.28 690.996 1533.28 690.996 1561.63 c 0,47,48
 690.996 1604.15 690.996 1604.15 668.07 1623.02 c 0,49,50
 646.28 1640.97 646.28 1640.97 620.217 1640.97 c 0,51,52
 591.787 1640.97 591.787 1640.97 575.875 1628.63 c 0,53,54
 551.576 1610.34 551.576 1610.34 551.576 1574.47 c 0,55,56
 551.576 1526.08 551.576 1526.08 607.898 1503.55 c 0,57,58
 629.803 1494.79 629.803 1494.79 658.123 1486.08 c 2,59,-1
 669.292 1482.64 l 1,44,-1
EndSplineSet
EndChar

StartChar: uni064D
Encoding: 1613 1613 50
Width: 0
VWidth: 2186
GlyphClass: 4
Flags: W
AnchorPoint: "Anchor-7" 531.84 75.5 mark 0
AnchorPoint: "Anchor-6" 531.84 75.5 mark 0
AnchorPoint: "Anchor-0" 547.84 -439.5 basemark 0
AnchorPoint: "Anchor-0" 531.84 75.5 mark 0
LayerCount: 2
Fore
SplineSet
291 -497 m 5,0,-1
 291 -369.9296875 l 5,1,-1
 785 -167.9296875 l 5,2,-1
 785 -295 l 5,3,-1
 291 -497 l 5,0,-1
291 -238 m 5,4,-1
 291 -110.9296875 l 5,5,-1
 785 91.0703125 l 5,6,-1
 785 -36 l 5,7,-1
 291 -238 l 5,4,-1
EndSplineSet
EndChar

StartChar: uni064E
Encoding: 1614 1614 51
Width: 0
VWidth: 2186
GlyphClass: 4
Flags: W
AnchorPoint: "Anchor-10" 517.84 1279.5 mark 0
AnchorPoint: "Anchor-9" 517.84 1279.5 mark 0
AnchorPoint: "Anchor-1" 517.84 1600.5 basemark 0
AnchorPoint: "Anchor-1" 517.84 1279.5 mark 0
LayerCount: 2
Fore
SplineSet
257 1251 m 5,0,-1
 257 1378.0703125 l 5,1,-1
 751 1580.0703125 l 5,2,-1
 751 1453 l 5,3,-1
 257 1251 l 5,0,-1
EndSplineSet
EndChar

StartChar: uni064F
Encoding: 1615 1615 52
Width: 0
VWidth: 2186
GlyphClass: 4
Flags: W
AnchorPoint: "Anchor-10" 531.84 1205.5 mark 0
AnchorPoint: "Anchor-9" 531.84 1205.5 mark 0
AnchorPoint: "Anchor-1" 547.84 1825 basemark 0
AnchorPoint: "Anchor-1" 531.84 1205.5 mark 0
LayerCount: 2
Fore
SplineSet
594.529 1426.81 m 6,0,1
 586.598 1428.57 586.598 1428.57 567.734 1438.5 c 4,2,3
 459.19 1494.78 459.19 1494.78 459.19 1588.53 c 4,4,5
 459.19 1675.14 459.19 1675.14 527.819 1726.86 c 4,6,7
 554.314 1746.73 554.314 1746.73 617.39 1746.73 c 4,8,9
 690.212 1746.73 690.212 1746.73 729.192 1708.72 c 4,10,11
 784.15 1654.77 784.15 1654.77 784.15 1575.69 c 4,12,13
 784.15 1543.43 784.15 1543.43 769.757 1497.16 c 6,14,-1
 764.821 1481.3 l 5,15,-1
 781.407 1480.32 l 6,16,17
 799.81 1479.24 799.81 1479.24 819.259 1478.7 c 4,18,19
 832.229 1478.34 832.229 1478.34 847.28 1478.21 c 5,20,-1
 847.28 1386.53 l 5,21,22
 817.029 1386.85 817.029 1386.85 789.455 1388.57 c 4,23,24
 757.6 1390.7 757.6 1390.7 727.915 1393.88 c 6,25,-1
 720.312 1394.69 l 5,26,-1
 715.905 1388.44 l 6,27,28
 671.45 1325.37 671.45 1325.37 599.88 1281.81 c 4,29,30
 398.294 1157.85 398.294 1157.85 248.4 1152.36 c 5,31,-1
 248.4 1244.01 l 5,32,33
 408.671 1248.65 408.671 1248.65 554.781 1363.22 c 4,34,35
 580.142 1383.07 580.142 1383.07 601.135 1405.16 c 6,36,-1
 616.962 1421.83 l 5,37,-1
 594.529 1426.81 l 6,0,1
670.746 1496.7 m 5,38,-1
 681.77 1522.42 l 6,39,40
 692.45 1547.34 692.45 1547.34 692.45 1575.69 c 4,41,42
 692.45 1618.21 692.45 1618.21 669.524 1637.08 c 4,43,44
 647.734 1655.03 647.734 1655.03 621.67 1655.03 c 4,45,46
 593.241 1655.03 593.241 1655.03 577.329 1642.69 c 4,47,48
 553.03 1624.4 553.03 1624.4 553.03 1588.53 c 4,49,50
 553.03 1540.14 553.03 1540.14 609.352 1517.61 c 4,51,52
 631.256 1508.85 631.256 1508.85 659.577 1500.14 c 6,53,-1
 670.746 1496.7 l 5,38,-1
EndSplineSet
EndChar

StartChar: uni0650
Encoding: 1616 1616 53
Width: 0
VWidth: 2186
GlyphClass: 4
Flags: W
AnchorPoint: "Anchor-7" 509.84 -12.5 mark 0
AnchorPoint: "Anchor-6" 509.84 -12.5 mark 0
AnchorPoint: "Anchor-0" 556.84 -311.5 basemark 0
AnchorPoint: "Anchor-0" 509.84 -12.5 mark 0
LayerCount: 2
Fore
SplineSet
301 -343 m 1,0,-1
 301 -215.9296875 l 1,1,-1
 795 -13.9296875 l 1,2,-1
 795 -141 l 1,3,-1
 301 -343 l 1,0,-1
EndSplineSet
EndChar

StartChar: uni0651
Encoding: 1617 1617 54
Width: 0
VWidth: 2186
GlyphClass: 4
Flags: W
AnchorPoint: "Anchor-10" 547.84 1316.5 mark 0
AnchorPoint: "Anchor-9" 547.84 1316.5 mark 0
AnchorPoint: "Anchor-1" 535.84 1818.5 basemark 0
AnchorPoint: "Anchor-1" 547.84 1316.5 mark 0
LayerCount: 2
Fore
SplineSet
507.838 1339.09 m 128,-1,1
 469.58 1294.39 469.58 1294.39 378.78 1294.39 c 0,2,3
 301.302 1294.39 301.302 1294.39 261.261 1355.91 c 0,4,5
 227 1408.31 227 1408.31 227 1486.07 c 0,6,7
 227 1527.41 227 1527.41 242.222 1626.56 c 1,8,-1
 320.73 1626.56 l 1,9,10
 310.14 1502.98 310.14 1502.98 310.14 1459.89 c 0,11,12
 310.14 1394.86 310.14 1394.86 398.84 1393.09 c 0,13,14
 497.128 1391.16 497.128 1391.16 506.266 1518.54 c 0,15,16
 508.184 1545.08 508.184 1545.08 508.4 1680.83 c 1,17,-1
 586.06 1680.83 l 1,18,19
 588.34 1645.85 588.34 1645.85 588.34 1597.53 c 0,20,21
 588.34 1452.09 588.34 1452.09 700.84 1452.09 c 4,22,23
 785.54 1452.09 785.54 1452.09 785.54 1599.06 c 4,24,25
 785.54 1708.64 785.54 1708.64 774.521 1770.1 c 5,26,-1
 857.705 1770.1 l 5,27,28
 868.68 1694.87 868.68 1694.87 868.68 1580.87 c 4,29,30
 868.68 1511.69 868.68 1511.69 841.188 1456.65 c 4,31,32
 796.118 1367.27 796.118 1367.27 722.84 1358.99 c 4,33,34
 657.525 1351.76 657.525 1351.76 616.258 1379.33 c 4,35,36
 556.63 1418.62 556.63 1418.62 554.84 1431.09 c 1,37,38
 546.096 1383.79 546.096 1383.79 507.838 1339.09 c 128,-1,1
EndSplineSet
EndChar

StartChar: uni0652
Encoding: 1618 1618 55
Width: 0
VWidth: 2186
GlyphClass: 4
Flags: W
AnchorPoint: "Anchor-10" 565.84 1128.5 mark 0
AnchorPoint: "Anchor-9" 565.84 1128.5 mark 0
AnchorPoint: "Anchor-1" 551.84 1702 basemark 0
AnchorPoint: "Anchor-1" 565.84 1128.5 mark 0
LayerCount: 2
Fore
SplineSet
674.569 1383.62 m 0,0,1
 674.569 1428.15 674.569 1428.15 643.439 1459.28 c 128,-1,2
 612.312 1490.41 612.312 1490.41 567.126 1490.41 c 0,3,4
 521.285 1490.41 521.285 1490.41 490.485 1459.61 c 128,-1,5
 459.685 1428.81 459.685 1428.81 459.685 1383.62 c 0,6,7
 459.685 1337.78 459.685 1337.78 490.485 1306.98 c 128,-1,8
 521.285 1276.18 521.285 1276.18 567.126 1276.18 c 0,9,10
 612.314 1276.18 612.314 1276.18 643.439 1307.31 c 128,-1,11
 674.569 1338.44 674.569 1338.44 674.569 1383.62 c 0,0,1
750.396 1383.73 m 128,-1,13
 750.396 1306.88 750.396 1306.88 697.316 1253.46 c 128,-1,14
 644.259 1200.07 644.259 1200.07 567.436 1200.07 c 128,-1,15
 490.613 1200.07 490.613 1200.07 437.557 1253.46 c 128,-1,16
 384.476 1306.88 384.476 1306.88 384.476 1383.73 c 128,-1,17
 384.476 1460.56 384.476 1460.56 437.537 1513.63 c 128,-1,18
 490.596 1566.69 490.596 1566.69 567.436 1566.69 c 128,-1,19
 644.276 1566.69 644.276 1566.69 697.335 1513.63 c 128,-1,12
 750.396 1460.56 750.396 1460.56 750.396 1383.73 c 128,-1,13
EndSplineSet
EndChar

StartChar: uni0653
Encoding: 1619 1619 56
Width: 11
VWidth: 2553
GlyphClass: 4
Flags: W
AnchorPoint: "Anchor-10" 404.334 1442.64 mark 0
AnchorPoint: "Anchor-9" 404.334 1442.64 mark 0
AnchorPoint: "Anchor-1" 397.691 1800.13 basemark 0
AnchorPoint: "Anchor-1" 404.334 1442.64 mark 0
LayerCount: 2
Fore
SplineSet
305.553710938 1706.04003906 m 2,0,-1
 692.802871417 1706.04003906 l 1,1,-1
 694.718661433 1514.54003906 l 1,2,-1
 318.1640625 1514.54003906 l 2,3,4
 238.648277049 1514.54003906 238.648277049 1514.54003906 181.585520627 1440.18278388 c 2,5,-1
 146.698116277 1394.71892331 l 1,6,-1
 18.4784974043 1539.59538251 l 1,7,-1
 38.3289888393 1569.83016219 l 2,8,9
 128.031364011 1706.04003906 128.031364011 1706.04003906 305.553710938 1706.04003906 c 2,0,-1
EndSplineSet
EndChar

StartChar: uni0657
Encoding: 1623 1623 59
Width: 11
VWidth: 2553
GlyphClass: 4
Flags: W
AnchorPoint: "Anchor-10" 648 1490.29 mark 0
AnchorPoint: "Anchor-9" 648 1490.29 mark 0
AnchorPoint: "Anchor-1" 648 2306.6 basemark 0
AnchorPoint: "Anchor-1" 648 1490.29 mark 0
LayerCount: 2
Fore
SplineSet
306.93359375 1991.88769531 m 1,0,-1
 450.541015625 1981.86425781 l 1,1,2
 510.180800958 2066.46174183 510.180800958 2066.46174183 592.361328125 2116.48046875 c 0,3,4
 817.018263895 2254.62504563 817.018263895 2254.62504563 989.06640625 2266.37109375 c 1,5,-1
 989.06640625 2179.70019531 l 1,6,7
 801.000944794 2169.33489258 801.000944794 2169.33489258 633.450195312 2037.95410156 c 0,8,9
 603.086914062 2014.18554688 603.086914062 2014.18554688 577.916992188 1987.703125 c 2,10,-1
 546.705078125 1954.84375 l 1,11,-1
 590.9453125 1945.00195312 l 2,12,13
 598.904296875 1943.23632812 598.904296875 1943.23632812 639.939453125 1921.87646484 c 128,-1,14
 680.974609375 1900.51660156 680.974609375 1900.51660156 711.318359375 1858.87304688 c 128,-1,15
 741.662109375 1817.22949219 741.662109375 1817.22949219 741.662109375 1767.10302734 c 128,-1,16
 741.662109375 1716.9765625 741.662109375 1716.9765625 727.368164062 1688.15576172 c 0,17,18
 678.704817741 1590.03613281 678.704817741 1590.03613281 560.003986708 1590.03613281 c 0,19,20
 441.303155674 1590.03613281 441.303155674 1590.03613281 396.317382812 1698.92773438 c 0,21,22
 381.028320312 1735.93894084 381.028320312 1735.93894084 381.028320312 1776.31761495 c 128,-1,23
 381.028320312 1816.69628906 381.028320312 1816.69628906 397.453125 1869.484375 c 2,24,-1
 407.186523438 1900.77050781 l 1,25,-1
 374.467773438 1902.703125 l 2,26,27
 343.974695766 1904.49603037 343.974695766 1904.49603037 306.93359375 1905.08398438 c 1,28,-1
 306.93359375 1991.88769531 l 1,0,-1
497.87890625 1885.78320312 m 1,29,-1
 481.260742188 1847.01367188 l 2,30,31
 467.884765625 1815.82258117 467.884765625 1815.82258117 467.884765625 1770.71402496 c 128,-1,32
 467.884765625 1725.60546875 467.884765625 1725.60546875 497.455566406 1701.24902344 c 128,-1,33
 527.026367188 1676.89257812 527.026367188 1676.89257812 561.344726562 1676.89257812 c 0,34,35
 633.005376407 1678.9500117 633.005376407 1678.9500117 648.71484375 1736.82519531 c 0,36,37
 652.293945312 1750.00585938 652.293945312 1750.00585938 652.293945312 1761.6640625 c 0,38,39
 652.293945312 1838.29363789 652.293945312 1838.29363789 519.913085938 1878.99902344 c 2,40,-1
 497.87890625 1885.78320312 l 1,29,-1
EndSplineSet
EndChar

StartChar: uni065A
Encoding: 1626 1626 60
Width: 1295
VWidth: 2553
GlyphClass: 4
Flags: W
AnchorPoint: "Anchor-10" 648 1490.29 mark 0
AnchorPoint: "Anchor-9" 648 1490.29 mark 0
AnchorPoint: "Anchor-1" 645.488 2055.43 basemark 0
AnchorPoint: "Anchor-1" 648 1490.29 mark 0
LayerCount: 2
Fore
SplineSet
569.607421875 1593.80273438 m 1,0,-1
 355.39453125 1951.92480469 l 1,1,-1
 471.013671875 1951.92480469 l 1,2,-1
 648 1686.44140625 l 1,3,-1
 824.983398438 1951.92480469 l 1,4,-1
 940.604492188 1951.92480469 l 1,5,-1
 726.388671875 1593.80273438 l 1,6,-1
 569.607421875 1593.80273438 l 1,0,-1
EndSplineSet
EndChar

StartChar: afii57392
Encoding: 1632 1632 61
Width: 1300
VWidth: 2593
GlyphClass: 2
Flags: W
LayerCount: 2
Fore
SplineSet
654.650390625 424.7421875 m 4,0,1
 702.056640625 424.7421875 702.056640625 424.7421875 735.702148438 458.583007812 c 132,-1,2
 769.33203125 492.40625 769.33203125 492.40625 769.33203125 540.052734375 c 132,-1,3
 769.33203125 587.694335938 769.33203125 587.694335938 735.703125 621.5234375 c 132,-1,4
 702.057617188 655.365234375 702.057617188 655.365234375 654.650390625 655.365234375 c 132,-1,5
 607.2421875 655.365234375 607.2421875 655.365234375 573.60546875 621.530273438 c 132,-1,6
 539.96875 587.696289062 539.96875 587.696289062 539.96875 532.86328125 c 4,7,8
 539.96875 511.478515625 539.96875 511.478515625 552.135742188 487.782226562 c 4,9,10
 584.50390625 424.7421875 584.50390625 424.7421875 654.650390625 424.7421875 c 4,0,1
650 210.834960938 m 0,11,12
 449.583007812 210.834960938 449.583007812 210.834960938 357.1015625 390.94921875 c 0,13,14
 322.337890625 458.654296875 322.337890625 458.654296875 322.337890625 519.750976562 c 0,15,16
 322.337890625 676.41796875 322.337890625 676.41796875 418.443359375 773.087890625 c 128,-1,17
 514.549804688 869.756835938 514.549804688 869.756835938 650 869.756835938 c 128,-1,18
 785.450195312 869.756835938 785.450195312 869.756835938 881.581054688 773.067382812 c 128,-1,19
 977.662109375 676.413085938 977.662109375 676.413085938 977.662109375 540.294921875 c 128,-1,20
 977.662109375 404.161132812 977.662109375 404.161132812 881.577148438 307.521484375 c 128,-1,21
 785.446289062 210.834960938 785.446289062 210.834960938 650 210.834960938 c 0,11,12
EndSplineSet
EndChar

StartChar: afii57393
Encoding: 1633 1633 62
Width: 1300
VWidth: 2593
GlyphClass: 2
Flags: W
LayerCount: 2
Fore
SplineSet
896.337890625 3.9091796875 m 1,0,-1
 631.58984375 3.9091796875 l 1,1,-1
 631.466796875 51.779296875 l 1,2,3
 625.748046875 465.787109375 625.748046875 465.787109375 595.419921875 675.393554688 c 4,4,5
 535.681640625 1088.25195312 535.681640625 1088.25195312 429.985351562 1339.10351562 c 6,6,-1
 403.662109375 1401.57714844 l 5,7,-1
 693.467773438 1401.57714844 l 5,8,-1
 703.776367188 1370.90527344 l 6,9,10
 817.090820312 1032 817.090820312 1032 856.263671875 749.3828125 c 132,-1,11
 895.435546875 466.766601562 895.435546875 466.766601562 896.244140625 52.0029296875 c 2,12,-1
 896.337890625 3.9091796875 l 1,0,-1
EndSplineSet
EndChar

StartChar: afii57394
Encoding: 1634 1634 63
Width: 1300
VWidth: 2593
GlyphClass: 2
Flags: W
LayerCount: 2
Fore
SplineSet
572.756835938 737.438476562 m 1,0,1
 616.477539062 480.392578125 616.477539062 480.392578125 616.114257812 51.986328125 c 1,2,-1
 616.190429688 3.9091796875 l 1,3,-1
 351.450195312 3.9091796875 l 1,4,-1
 351.338867188 51.775390625 l 2,5,6
 350.262695312 479 350.262695312 479 292.842773438 815.030273438 c 128,-1,7
 235.421875 1151.06152344 235.421875 1151.06152344 154.842773438 1338.75488281 c 2,8,-1
 130.895507812 1394.53515625 l 1,9,-1
 417.301757812 1394.53515625 l 1,10,-1
 426.349609375 1367.03808594 l 2,11,12
 440.262695312 1323 440.262695312 1323 456.297851562 1274.16503906 c 128,-1,13
 472.333007812 1225.33007812 472.333007812 1225.33007812 488.6796875 1170.48535156 c 0,14,15
 518.262695312 1070 518.262695312 1070 578.762695312 1022.5 c 128,-1,16
 639.262695312 975 639.262695312 975 736.762695312 974 c 128,-1,17
 834.262695312 973 834.262695312 973 880.038085938 1014.65332031 c 128,-1,18
 925.813476562 1056.30566406 925.813476562 1056.30566406 929.309570312 1145.4375 c 0,19,20
 929.83984375 1153.53613281 929.83984375 1153.53613281 930.841796875 1354.73535156 c 2,21,-1
 931.040039062 1394.53515625 l 1,22,-1
 1167.60253906 1394.53515625 l 1,23,-1
 1168.18457031 1355.12597656 l 2,24,25
 1172.26269531 1105 1172.26269531 1105 1158.26269531 1022.5 c 0,26,27
 1105.43359375 711.18359375 1105.43359375 711.18359375 738.696289062 710.942382812 c 0,28,29
 643.262695312 711 643.262695312 711 572.756835938 737.438476562 c 1,0,1
EndSplineSet
EndChar

StartChar: afii57395
Encoding: 1635 1635 64
Width: 1300
VWidth: 2593
GlyphClass: 2
Flags: W
LayerCount: 2
Fore
SplineSet
740.88671875 803.859375 m 1,0,1
 642.819335938 677.134765625 642.819335938 677.134765625 455.059570312 726.643554688 c 1,2,3
 490.744140625 506.495117188 490.744140625 506.495117188 491.1875 51.9560546875 c 2,4,-1
 491.234375 3.9091796875 l 1,5,-1
 226.5625 3.9091796875 l 1,6,-1
 226.423828125 43.76953125 l 2,7,8
 224.669921875 516 224.669921875 516 140.75 969.436523438 c 0,9,10
 100.540039062 1183.69140625 100.540039062 1183.69140625 38.6044921875 1339.78222656 c 2,11,-1
 16.87890625 1394.53515625 l 1,12,-1
 294.34375 1394.53515625 l 1,13,-1
 362.268554688 1138.42871094 l 2,14,15
 407.874023438 967.55078125 407.874023438 967.55078125 518.169921875 966.5 c 0,16,17
 570.669921875 966 570.669921875 966 592.806640625 996.524414062 c 128,-1,18
 614.84375 1027.2421875 614.84375 1027.2421875 614.974609375 1108.02929688 c 2,19,-1
 615.439453125 1394.53515625 l 1,20,-1
 852.755859375 1394.53515625 l 1,21,-1
 851.983398438 1097.89550781 l 2,22,23
 851.795898438 1025.85253906 851.795898438 1025.85253906 876.232421875 996.926757812 c 128,-1,24
 900.669921875 968 900.669921875 968 945.877929688 966.588867188 c 0,25,26
 1032.48632812 963.88671875 1032.48632812 963.88671875 1031.97363281 1126.17480469 c 6,27,-1
 1031.12792969 1393.99511719 l 1,28,-1
 1281.84960938 1393.99511719 l 1,29,-1
 1282.64160156 1354.80273438 l 1,30,31
 1286.77246094 1058.31445312 1286.77246094 1058.31445312 1255.3203125 939.443359375 c 0,32,33
 1207.05273438 759.45703125 1207.05273438 759.45703125 1056.46875 720.334960938 c 0,34,35
 1018.66992188 710 1018.66992188 710 976.321289062 710.290039062 c 0,36,37
 835.288085938 709.142578125 835.288085938 709.142578125 740.88671875 803.859375 c 1,0,1
EndSplineSet
EndChar

StartChar: afii57396
Encoding: 1636 1636 65
Width: 1300
VWidth: 2593
GlyphClass: 2
Flags: W
LayerCount: 2
Fore
SplineSet
264.78125 345.803710938 m 0,0,1
 312.368164062 519 312.368164062 519 483.798828125 679.595703125 c 1,2,3
 368.368164062 704 368.368164062 704 310.368164062 772.5 c 128,-1,4
 252.368164062 841 252.368164062 841 274.390625 922.3125 c 0,5,6
 355.458007812 1226.33496094 355.458007812 1226.33496094 759.958007812 1373.81933594 c 2,7,-1
 791.348632812 1385.26464844 l 1,8,-1
 808.200195312 1356.41308594 l 2,9,10
 831.370117188 1316.99804688 831.370117188 1316.99804688 838.139648438 1200.14453125 c 2,11,-1
 839.428710938 1177.89550781 l 1,12,-1
 821.1875 1165.09179688 l 2,13,14
 614.368164062 1020 614.368164062 1020 538.344726562 940.504882812 c 0,15,16
 523.868164062 925.331054688 523.868164062 925.331054688 558.942382812 902.782226562 c 128,-1,17
 594.015625 880.233398438 594.015625 880.233398438 872.34375 824.791992188 c 2,18,-1
 907.55859375 817.77734375 l 1,19,-1
 904.37109375 782.01171875 l 2,20,21
 899.967773438 735.784179688 899.967773438 735.784179688 894.759765625 663.750976562 c 2,22,-1
 893.228515625 642.569335938 l 1,23,-1
 874.82421875 631.97265625 l 2,24,25
 614.368164062 482 614.368164062 482 541.518554688 387.573242188 c 0,26,27
 533.368164062 377 533.368164062 377 531.368164062 369.678710938 c 1,28,29
 537.368164062 366 537.368164062 366 548.387695312 362.016601562 c 0,30,31
 710.772460938 310.873046875 710.772460938 310.873046875 967.89453125 333.9921875 c 2,32,-1
 1006.04882812 337.422851562 l 1,33,-1
 1045.12402344 45.087890625 l 1,34,-1
 1002.48339844 42.236328125 l 2,35,36
 547.368164062 12 547.368164062 12 310.66015625 170.702148438 c 0,37,38
 231.368164062 224 231.368164062 224 264.78125 345.803710938 c 0,0,1
EndSplineSet
EndChar

StartChar: afii57397
Encoding: 1637 1637 66
Width: 1300
VWidth: 2593
GlyphClass: 2
Flags: W
LayerCount: 2
Fore
SplineSet
624.606445312 946.423828125 m 1,0,1
 453.01953125 797 453.01953125 797 380.3125 598.176757812 c 0,2,3
 361.01953125 545 361.01953125 545 360.01953125 483 c 0,4,5
 360.01953125 351 360.01953125 351 460.01953125 301 c 4,6,7
 533.01953125 264 533.01953125 264 682.078125 268.615234375 c 0,8,9
 844.880859375 272.41796875 844.880859375 272.41796875 910.01953125 373 c 0,10,11
 955.01953125 443 955.01953125 443 907.249023438 581.831054688 c 0,12,13
 838.01953125 779 838.01953125 779 624.606445312 946.423828125 c 1,0,1
355.684570312 1129.07128906 m 1,14,-1
 509.143554688 1350.6171875 l 1,15,-1
 541.215820312 1331.56054688 l 2,16,17
 1057.01953125 1025 1057.01953125 1025 1177.68847656 632.63671875 c 0,18,19
 1290.01953125 270 1290.01953125 270 1026.08789062 92.1123046875 c 0,20,21
 886.01953125 -2 886.01953125 -2 650.545898438 -1.3291015625 c 0,22,23
 350.01953125 -1 350.01953125 -1 206.890625 150.146484375 c 0,24,25
 63.01953125 302 63.01953125 302 94.3916015625 543.142578125 c 0,26,27
 135.01953125 846 135.01953125 846 409.981445312 1098.90722656 c 1,28,-1
 355.684570312 1129.07128906 l 1,14,-1
EndSplineSet
EndChar

StartChar: afii57398
Encoding: 1638 1638 67
Width: 1300
VWidth: 2593
GlyphClass: 2
Flags: W
LayerCount: 2
Fore
SplineSet
124.598632812 1384.14746094 m 6,0,1
 331.411132812 1331.00390625 331.411132812 1331.00390625 548.232421875 1330.56835938 c 4,2,3
 766.01953125 1331.00292969 766.01953125 1331.00292969 1008.01171875 1385.54296875 c 6,4,-1
 1062.60742188 1397.84765625 l 5,5,-1
 1062.92382812 1338.15039062 l 6,6,7
 1066.47460938 674.255859375 1066.47460938 674.255859375 1217.86523438 59.6728515625 c 2,8,-1
 1231.6015625 3.9091796875 l 1,9,-1
 944.885742188 3.9091796875 l 1,10,-1
 937.1953125 39.3720703125 l 2,11,12
 848.475585938 447 848.475585938 447 829.959960938 654.838867188 c 4,13,14
 804.475585938 936 804.475585938 936 801.005859375 1082.62109375 c 5,15,16
 664.475585938 1052 664.475585938 1052 502.866210938 1051.71777344 c 4,17,18
 404.475585938 1052 404.475585938 1052 304.056640625 1066.27246094 c 4,19,20
 202.401367188 1081.15722656 202.401367188 1081.15722656 101.153320312 1109.7890625 c 6,21,-1
 68.3984375 1119.05175781 l 5,22,-1
 68.3984375 1398.58886719 l 5,23,-1
 124.598632812 1384.14746094 l 6,0,1
EndSplineSet
EndChar

StartChar: afii57399
Encoding: 1639 1639 68
Width: 1300
VWidth: 2593
GlyphClass: 2
Flags: W
LayerCount: 2
Fore
SplineSet
522.939453125 42.1611328125 m 2,0,1
 480.499023438 322.02734375 480.499023438 322.02734375 381.3984375 640.80859375 c 4,2,3
 241.81640625 1086.99902344 241.81640625 1086.99902344 98.4013671875 1321.35058594 c 6,4,-1
 56.48828125 1389.83984375 l 5,5,-1
 364.8828125 1389.83984375 l 5,6,-1
 377.186523438 1364.48535156 l 6,7,8
 574.12890625 958 574.12890625 958 656.913085938 641.801757812 c 5,9,10
 743.991210938 987.451171875 743.991210938 987.451171875 945.002929688 1365.94628906 c 6,11,-1
 957.692382812 1389.83984375 l 5,12,-1
 1243.51171875 1389.83984375 l 5,13,-1
 1210.39453125 1324.49609375 l 6,14,15
 1015.12890625 939 1015.12890625 939 923.255859375 604.276367188 c 4,16,17
 812.619140625 201.782226562 812.619140625 201.782226562 792.326171875 43.197265625 c 2,18,-1
 787.298828125 3.9091796875 l 1,19,-1
 528.740234375 3.9091796875 l 1,20,-1
 522.939453125 42.1611328125 l 2,0,1
EndSplineSet
EndChar

StartChar: afii57400
Encoding: 1640 1640 69
Width: 1300
VWidth: 2593
GlyphClass: 2
Flags: W
LayerCount: 2
Fore
SplineSet
531.8203125 1389.83984375 m 5,0,-1
 790.357421875 1389.83984375 l 5,1,-1
 795.383789062 1350.54589844 l 6,2,3
 861.295898438 832 861.295898438 832 1122.09472656 259.213867188 c 0,4,5
 1163.0859375 168.672851562 1163.0859375 168.672851562 1213.45507812 69.2451171875 c 2,6,-1
 1246.55371094 3.9091796875 l 1,7,-1
 960.75 3.9091796875 l 1,8,-1
 948.05859375 27.8056640625 l 2,9,10
 757.295898438 387 757.295898438 387 660.8046875 761.888671875 c 1,11,12
 602.295898438 528 602.295898438 528 529.123046875 360.23046875 c 0,13,14
 457.541992188 194.87890625 457.541992188 194.87890625 374.208007812 28.7333984375 c 2,15,-1
 361.756835938 3.9091796875 l 1,16,-1
 53.4462890625 3.9091796875 l 1,17,-1
 95.8115234375 72.5458984375 l 2,18,19
 239.077148438 305.661132812 239.077148438 305.661132812 384.627929688 753.481445312 c 0,20,21
 479.375976562 1045.24707031 479.375976562 1045.24707031 526.001953125 1351.609375 c 6,22,-1
 531.8203125 1389.83984375 l 5,0,-1
EndSplineSet
EndChar

StartChar: afii57401
Encoding: 1641 1641 70
Width: 1300
VWidth: 2593
GlyphClass: 2
Flags: W
LayerCount: 2
Fore
SplineSet
819.713867188 580.315429688 m 5,0,1
 702.141601562 528 702.141601562 528 579.127929688 527.93359375 c 4,2,3
 263.141601562 528 263.141601562 528 173.481445312 785.20703125 c 4,4,5
 148.141601562 858 148.141601562 858 147.865234375 940.624023438 c 4,6,7
 148.141601562 1131 148.141601562 1131 260.368164062 1253.25390625 c 4,8,9
 397.141601562 1404 397.141601562 1404 670.849609375 1404 c 4,10,11
 943.141601562 1404 943.141601562 1404 1014.29199219 1174.13378906 c 4,12,13
 1029.14160156 1126 1029.14160156 1126 1045.42285156 926.90625 c 4,14,15
 1060.14160156 751 1060.14160156 751 1061.47363281 719.869140625 c 4,16,17
 1071.14160156 495 1071.14160156 495 1152.13476562 13.9091796875 c 1,18,-1
 906.1171875 13.9091796875 l 1,19,20
 848.141601562 298 848.141601562 298 819.713867188 580.315429688 c 5,0,1
404.618164062 880.81640625 m 4,21,22
 436.141601562 774 436.141601562 774 553.641601562 767 c 4,23,24
 710.141601562 758 710.141601562 758 795.072265625 841.750976562 c 5,25,26
 791.141601562 1074 791.141601562 1074 732.380859375 1128.38964844 c 4,27,28
 696.141601562 1162 696.141601562 1162 641.641601562 1162 c 4,29,30
 467.141601562 1162 467.141601562 1162 413.748046875 1044.40332031 c 4,31,32
 378.141601562 967 378.141601562 967 404.618164062 880.81640625 c 4,21,22
EndSplineSet
EndChar

StartChar: afii57381
Encoding: 1642 1642 71
Width: 1391
VWidth: 2593
GlyphClass: 2
Flags: W
LayerCount: 2
Fore
SplineSet
899.037109375 181.149414062 m 132,-1,1
 899.037109375 253.149414062 899.037109375 253.149414062 950.037109375 304.149414062 c 132,-1,2
 1001.03710938 355.149414062 1001.03710938 355.149414062 1073.03710938 355.149414062 c 132,-1,3
 1145.03710938 355.149414062 1145.03710938 355.149414062 1196.03710938 304.149414062 c 132,-1,4
 1247.03710938 253.149414062 1247.03710938 253.149414062 1247.03710938 181.149414062 c 132,-1,5
 1247.03710938 109.149414062 1247.03710938 109.149414062 1196.03710938 58.1494140625 c 132,-1,6
 1145.03710938 7.1494140625 1145.03710938 7.1494140625 1073.03710938 7.1494140625 c 132,-1,7
 1001.03710938 7.1494140625 1001.03710938 7.1494140625 950.037109375 58.1494140625 c 132,-1,0
 899.037109375 109.149414062 899.037109375 109.149414062 899.037109375 181.149414062 c 132,-1,1
143.966796875 1212.22363281 m 4,8,9
 143.504882812 1284 143.504882812 1284 194.966796875 1335.22363281 c 4,10,11
 245.504882812 1386 245.504882812 1386 317.966796875 1386.22363281 c 4,12,13
 389.504882812 1386 389.504882812 1386 440.966796875 1335.22363281 c 4,14,15
 491.504882812 1284 491.504882812 1284 491.966796875 1212.22363281 c 4,16,17
 491.504882812 1140 491.504882812 1140 440.966796875 1089.22363281 c 4,18,19
 389.504882812 1038 389.504882812 1038 317.966796875 1038.22363281 c 4,20,21
 245.504882812 1038 245.504882812 1038 194.966796875 1089.22363281 c 4,22,23
 143.504882812 1140 143.504882812 1140 143.966796875 1212.22363281 c 4,8,9
927.278320312 1394 m 5,24,-1
 1160.50488281 1394 l 5,25,-1
 444.23046875 8.9091796875 l 5,26,-1
 211.0078125 8.9091796875 l 5,27,-1
 927.278320312 1394 l 5,24,-1
EndSplineSet
EndChar

StartChar: uni066B
Encoding: 1643 1643 72
Width: 717
VWidth: 2593
GlyphClass: 2
Flags: W
LayerCount: 2
Fore
SplineSet
10.623046875 -268.62890625 m 5,0,-1
 476.620117188 647.659179688 l 5,1,-1
 689.349609375 646.075195312 l 5,2,-1
 226.294921875 -271.587890625 l 5,3,-1
 10.623046875 -268.62890625 l 5,0,-1
EndSplineSet
EndChar

StartChar: uni066C
Encoding: 1644 1644 73
Width: 826
VWidth: 2593
GlyphClass: 2
Flags: W
LayerCount: 2
Fore
SplineSet
317.16796875 1912.61914062 m 1,0,-1
 610.866210938 1912.61914062 l 1,1,-1
 610.866210938 1703.90332031 l 1,2,-1
 399.310546875 1292.39746094 l 1,3,-1
 210.03125 1292.39746094 l 1,4,-1
 317.16796875 1709.19238281 l 1,5,-1
 317.16796875 1912.61914062 l 1,0,-1
EndSplineSet
EndChar

StartChar: afii63167
Encoding: 1645 1645 74
Width: 1411
VWidth: 2593
GlyphClass: 2
Flags: W
LayerCount: 2
Fore
SplineSet
70.2958984375 990.817382812 m 1,0,-1
 554.716796875 990.817382812 l 1,1,-1
 705.772460938 1450.71679688 l 1,2,-1
 856.821289062 990.817382812 l 1,3,-1
 1341.24316406 990.817382812 l 1,4,-1
 949.951171875 704.772460938 l 1,5,-1
 1099.7578125 244.548828125 l 1,6,-1
 705.771484375 529.247070312 l 1,7,-1
 311.780273438 244.549804688 l 1,8,-1
 461.586914062 704.772460938 l 1,9,-1
 70.2958984375 990.817382812 l 1,0,-1
EndSplineSet
EndChar

StartChar: uni066E
Encoding: 1646 1646 75
Width: 1971
VWidth: 2593
GlyphClass: 2
Flags: W
AnchorPoint: "Anchor-10" 869.751 1269.53 basechar 0
AnchorPoint: "Anchor-7" 869.751 -174.707 basechar 0
LayerCount: 2
Fore
SplineSet
1879.44042969 487.8203125 m 6,0,1
 1878.89503971 0.997281700661 1878.89503971 0.997281700661 1466.51367188 -0.0966796875 c 6,2,-1
 462.915039062 -0.0966796875 l 6,3,4
 191.506775182 0.044738116552 191.506775182 0.044738116552 97.1552734375 220.198242188 c 4,5,6
 51.150390625 327.543945312 51.150390625 327.543945312 51.1494140625 481.977539062 c 6,7,-1
 51.1484375 733.75 l 5,8,-1
 309.904296875 733.75 l 5,9,-1
 309.904296875 492.540039062 l 6,10,11
 309.90234375 371.709960938 309.90234375 371.709960938 348.3984375 320.455078125 c 132,-1,12
 386.89453125 269.200195312 386.89453125 269.200195312 467.470703125 269.200195312 c 6,13,-1
 1463.0546875 269.200195312 l 6,14,15
 1569.19660388 269.480528602 1569.19660388 269.480528602 1602.60644531 360.841796875 c 4,16,17
 1620.68261719 410.26953125 1620.68261719 410.26953125 1620.68261719 491.366210938 c 6,18,-1
 1620.68261719 733.75 l 5,19,-1
 1879.44042969 733.75 l 5,20,-1
 1879.44042969 487.8203125 l 6,0,1
EndSplineSet
Substitution2: "'init' Initial Forms in Arabic lookup 13 subtable" uni066E.init
Substitution2: "'medi' Medial Forms in Arabic lookup 11 subtable" uni066E.medi
Substitution2: "'fina' Terminal Forms in Arabic lookup 9 subtable" uni066E.fina
EndChar

StartChar: uni066F
Encoding: 1647 1647 76
Width: 1551
VWidth: 2593
GlyphClass: 2
Flags: W
AnchorPoint: "Anchor-10" 343.676 1261.52 basechar 0
AnchorPoint: "Anchor-7" 415.271 -613.467 basechar 0
LayerCount: 2
Fore
SplineSet
1200.2890625 113.170898438 m 1,0,1
 1147.94323484 112.955710772 1147.94323484 112.955710772 1053.87298461 112.98322648 c 0,2,3
 870.463377972 113.036874101 870.463377972 113.036874101 779.126708517 213.889530801 c 128,-1,4
 687.790039062 314.7421875 687.790039062 314.7421875 705.26953125 542.8828125 c 0,5,6
 717.115234375 705.791015625 717.115234375 705.791015625 794.259765625 789.825195312 c 0,7,8
 896.489257812 903.327148438 896.489257812 903.327148438 1086.47509766 899.677734375 c 128,-1,9
 1276.4609375 896.028320312 1276.4609375 896.028320312 1369.75292969 778.098632812 c 128,-1,10
 1463.04492188 660.16796875 1463.04492188 660.16796875 1459.73535156 444.525390625 c 0,11,12
 1458.00683594 330.169921875 1458.00683594 330.169921875 1459.29101562 275.836914062 c 1,13,-1
 1459.29101562 142.71484375 l 1,14,-1
 1458.84375 102.333007812 l 2,15,16
 1455.76464844 -186.678710938 1455.76464844 -186.678710938 1297.00097656 -335.51171875 c 128,-1,17
 1138.23828125 -484.34375 1138.23828125 -484.34375 836.791015625 -482.71484375 c 2,18,-1
 728.424804688 -482.129882812 l 1,19,-1
 701.186523438 -482.129882812 l 2,20,21
 383.823242188 -482.129882812 383.823242188 -482.129882812 217.440429688 -338.862304688 c 128,-1,22
 51.056640625 -195.59375 51.056640625 -195.59375 51.12109375 83.2646484375 c 2,23,-1
 50.98828125 525.9921875 l 1,24,-1
 309.877929688 526.041015625 l 1,25,-1
 309.877929688 84.4638671875 l 2,26,27
 309.932617188 -66.5244140625 309.932617188 -66.5244140625 403.901367188 -139.678710938 c 128,-1,28
 497.87109375 -212.833007812 497.87109375 -212.833007812 703.356445312 -212.833007812 c 2,29,-1
 728.485351562 -212.833007812 l 1,30,-1
 845.165039062 -212.247070312 l 2,31,32
 1087.83963199 -210.855382547 1087.83963199 -210.855382547 1162.13183594 -79.2353515625 c 0,33,34
 1199.24902344 -13.4775390625 1199.24902344 -13.4775390625 1200.08886719 88.8037109375 c 2,35,-1
 1200.2890625 113.170898438 l 1,0,1
1204.90917969 383.408203125 m 1,36,37
 1209 557 1209 557 1181.12856312 601.917222613 c 0,38,39
 1153 648 1153 648 1077.36328125 645.071289062 c 4,40,41
 939 641 939 641 942.869140625 490.895507812 c 0,42,43
 945 423 945 423 986 395 c 0,44,45
 1024 369 1024 369 1204.90917969 383.408203125 c 1,36,37
EndSplineSet
Substitution2: "'init' Initial Forms in Arabic lookup 13 subtable" uni066F.init
Substitution2: "'medi' Medial Forms in Arabic lookup 11 subtable" uni066F.medi
Substitution2: "'fina' Terminal Forms in Arabic lookup 9 subtable" uni066F.fina
EndChar

StartChar: uni0670
Encoding: 1648 1648 77
Width: 11
VWidth: 2553
GlyphClass: 4
Flags: W
AnchorPoint: "Anchor-10" 648 1490.29 mark 0
AnchorPoint: "Anchor-9" 648 1490.29 mark 0
AnchorPoint: "Anchor-1" 648 2306.6 basemark 0
AnchorPoint: "Anchor-1" 648 1490.29 mark 0
LayerCount: 2
Fore
SplineSet
604.571289062 1557.38378906 m 1,0,-1
 604.571289062 2239.51757812 l 1,1,-1
 691.427734375 2239.51757812 l 1,2,-1
 691.427734375 1557.38378906 l 1,3,-1
 604.571289062 1557.38378906 l 1,0,-1
EndSplineSet
EndChar

StartChar: uni0674
Encoding: 1652 1652 78
Width: 759
VWidth: 2553
GlyphClass: 2
Flags: W
LayerCount: 2
Fore
SplineSet
166.505859375 1772.55189975 m 1,0,-1
 284.099074734 1799.68737176 l 1,1,2
 228.534163362 1830.5952319 228.534163362 1830.5952319 201.888255599 1867.48124271 c 0,3,4
 169.018554688 1912.98286923 169.018554688 1912.98286923 169.018554688 1987.76855469 c 0,5,6
 169.018554688 2091.15816823 169.018554688 2091.15816823 277.244347366 2152.69868643 c 0,7,8
 318.524158208 2176.17233943 318.524158208 2176.17233943 368.239194691 2181.82955714 c 128,-1,9
 417.954231174 2187.48677486 417.954231174 2187.48677486 474.790475556 2175.47783978 c 0,10,11
 511.916402062 2167.7163891 511.916402062 2167.7163891 548.972817278 2148.18207382 c 2,12,-1
 554.309570312 2145.36880071 l 1,13,-1
 554.309570312 2040.87946932 l 1,14,-1
 540.520095373 2046.5260917 l 2,15,16
 455.196248364 2081.46516995 455.196248364 2081.46516995 401.296342109 2075.85038253 c 0,17,18
 277.338671476 2063.21449888 277.338671476 2063.21449888 270.459992129 1984.50391551 c 0,19,20
 262.011270926 1886.66617243 262.011270926 1886.66617243 394.435567355 1846.5604546 c 0,21,22
 432.903532996 1835.43187871 432.903532996 1835.43187871 568.557776209 1864.92984837 c 2,23,-1
 580.682617188 1867.56639097 l 1,24,-1
 580.682617188 1756.89942626 l 1,25,-1
 166.505859375 1663.91623775 l 1,26,-1
 166.505859375 1772.55189975 l 1,0,-1
EndSplineSet
EndChar

StartChar: uni06A1
Encoding: 1697 1697 82
Width: 1978
VWidth: 2593
GlyphClass: 2
Flags: W
AnchorPoint: "Anchor-10" 494.245 1247.49 basechar 0
AnchorPoint: "Anchor-7" 511.19 -145.02 basechar 0
LayerCount: 2
Fore
SplineSet
309.311523438 492.416992188 m 2,0,1
 309.311523438 370.591378552 309.311523438 370.591378552 347.619140625 320.34375 c 0,2,3
 385.918239192 269.109375 385.918239192 269.109375 466.877929688 269.109375 c 2,4,-1
 995.208007812 269.109375 l 1,5,-1
 1284.97265625 269.426757812 l 2,6,7
 1592 270 1592 270 1617.06835938 369.90625 c 1,8,-1
 1485.62011719 369.90234375 l 2,9,10
 1318 370 1318 370 1215.11523438 466.8984375 c 4,11,12
 1113 564 1113 564 1132.39355469 799.825195312 c 0,13,14
 1145 949 1145 949 1222.38476562 1033.91308594 c 0,15,16
 1337 1160 1337 1160 1509.703125 1156.65136719 c 0,17,18
 1683 1154 1683 1154 1775.8203125 1072.57226562 c 0,19,20
 1869 992 1869 992 1877.93261719 848.494140625 c 128,-1,21
 1887 705 1887 705 1886.91796875 644.869140625 c 1,22,23
 1883 640 1883 640 1884.51171875 594.375 c 0,24,25
 1886 537 1886 537 1886.39257812 532.1484375 c 2,26,-1
 1886.39257812 394.797851562 l 2,27,28
 1886 203 1886 203 1741.95605469 100.735351562 c 0,29,30
 1598.31055231 -1.77837194599 1598.31055231 -1.77837194599 1328.38378906 -1.06640625 c 2,31,-1
 995.165039062 -0.1875 l 1,32,-1
 462.358398438 -0.1875 l 2,33,34
 244.219851945 0.00154270766788 244.219851945 0.00154270766788 155.249023438 124.326171875 c 0,35,36
 50.5564796089 271.624013842 50.5564796089 271.624013842 50.5556640625 481.885742188 c 2,37,-1
 50.5546875 733.66015625 l 1,38,-1
 309.311523438 733.66015625 l 1,39,-1
 309.311523438 492.416992188 l 2,0,1
1631.91015625 640.07421875 m 1,40,41
 1635 813 1635 813 1609.484375 855.293945312 c 0,42,43
 1584 898 1584 898 1514.35546875 901.454101562 c 0,44,45
 1381 908 1381 908 1372.09863281 777.252929688 c 0,46,47
 1366 686 1366 686 1415 654 c 0,48,49
 1456 628 1456 628 1631.91015625 640.07421875 c 1,40,41
EndSplineSet
Substitution2: "'init' Initial Forms in Arabic lookup 13 subtable" uni06A1.init
Substitution2: "'medi' Medial Forms in Arabic lookup 11 subtable" uni06A1.medi
Substitution2: "'fina' Terminal Forms in Arabic lookup 9 subtable" uni06A1.fina
EndChar

StartChar: uni06A9
Encoding: 1705 1705 83
Width: 1875
VWidth: 2593
GlyphClass: 2
Flags: W
AnchorPoint: "Anchor-10" 459.222 1445.6 basechar 0
AnchorPoint: "Anchor-7" 439.269 -275.044 basechar 0
LayerCount: 2
Fore
SplineSet
308.814453125 491.571289062 m 2,0,1
 308.814453125 319.07984012 308.814453125 319.07984012 394.251953125 282.31640625 c 0,2,3
 424.552279217 269.19389953 424.552279217 269.19389953 466.374023438 269.200195312 c 2,4,-1
 1290.23925781 269.32421875 l 2,5,6
 1385 269 1385 269 1421.5 293 c 128,-1,7
 1458 317 1458 317 1457.93613261 360.738738533 c 128,-1,8
 1457.87226522 404.477477065 1457.87226522 404.477477065 1360.88085938 515.05859375 c 2,9,-1
 1090.109375 823.768554688 l 2,10,11
 1079 837 1079 837 1056.52182317 861.618955575 c 128,-1,12
 1034.04364634 886.237911149 1034.04364634 886.237911149 1004.02182317 927.618955575 c 128,-1,13
 974 969 974 969 979 1038.5 c 128,-1,14
 984 1108 984 1108 1020.88973327 1160.84273495 c 128,-1,15
 1057.77946655 1213.68546991 1057.77946655 1213.68546991 1122.8203125 1237.45507812 c 2,16,-1
 1823.82421875 1493.64160156 l 1,17,-1
 1823.82421875 1223.37011719 l 1,18,-1
 1243.41113281 1026.53808594 l 1,19,-1
 1536.21386719 696.110351562 l 2,20,21
 1718 491 1718 491 1699 322 c 128,-1,22
 1680 153 1680 153 1541.02929688 60.53515625 c 0,23,24
 1450.01869669 0.0124334370373 1450.01869669 0.0124334370373 1338.75488281 0 c 2,25,-1
 473.591796875 -0.0966796875 l 2,26,27
 266 -0 266 -0 157.948242188 124.19921875 c 0,28,29
 50.0585133497 248.932351731 50.0585133497 248.932351731 50.0576171875 481.977539062 c 2,30,-1
 50.056640625 735.930664062 l 1,31,-1
 308.814453125 734.479492188 l 1,32,-1
 308.814453125 491.571289062 l 2,0,1
EndSplineSet
Substitution2: "'init' Initial Forms in Arabic lookup 13 subtable" uniFB90
Substitution2: "'medi' Medial Forms in Arabic lookup 11 subtable" uniFB91
Substitution2: "'fina' Terminal Forms in Arabic lookup 9 subtable" uniFB8F
EndChar

StartChar: afii57514
Encoding: 1722 1722 85
Width: 1462
VWidth: 2593
GlyphClass: 2
Flags: W
AnchorPoint: "Anchor-10" 587.158 965.159 basechar 0
AnchorPoint: "Anchor-7" 691.132 -666.307 basechar 0
LayerCount: 2
Fore
SplineSet
50.986328125 525.9921875 m 1,0,-1
 309.877929688 526.041015625 l 1,1,-1
 309.877929688 144.602539062 l 2,2,3
 309.93359375 -32.9892578125 309.93359375 -32.9892578125 409.51953125 -118.076171875 c 128,-1,4
 509.10546875 -203.163085938 509.10546875 -203.163085938 723.842773438 -203.163085938 c 2,5,-1
 765.240234375 -203.163085938 l 1,6,-1
 806.706054688 -202.576171875 l 2,7,8
 983.485351562 -199.99609375 983.485351562 -199.99609375 1066.2265625 -115.149414062 c 128,-1,9
 1148.96777344 -30.302734375 1148.96777344 -30.302734375 1148.84277344 148.668945312 c 2,10,-1
 1148.46679688 684.797851562 l 1,11,-1
 1409.94726562 684.931640625 l 1,12,-1
 1409.94726562 139.314453125 l 2,13,14
 1409.97460938 -155.450195312 1409.97460938 -155.450195312 1254.3515625 -311.016601562 c 128,-1,15
 1098.72753906 -466.583984375 1098.72753906 -466.583984375 799.2734375 -471.868164062 c 2,16,-1
 765.711914062 -472.459960938 l 1,17,-1
 721.642578125 -472.459960938 l 2,18,19
 265.280273438 -472.126953125 265.280273438 -472.126953125 117.223632812 -175.733398438 c 0,20,21
 51.3955078125 -42.77734375 51.3955078125 -42.77734375 51.12109375 143.403320312 c 2,22,-1
 50.986328125 525.9921875 l 1,0,-1
EndSplineSet
Substitution2: "'init' Initial Forms in Arabic lookup 13 subtable" uni06BA.init
Substitution2: "'medi' Medial Forms in Arabic lookup 11 subtable" uni06BA.medi
Substitution2: "'fina' Terminal Forms in Arabic lookup 9 subtable" uniFB9F
EndChar

StartChar: uni06F4
Encoding: 1780 1780 92
Width: 1300
VWidth: 2593
GlyphClass: 2
Flags: W
LayerCount: 2
Fore
SplineSet
1104.00683594 1152.34765625 m 2,0,1
 994.080078125 1179.99804688 994.080078125 1179.99804688 921.001953125 1179.77148438 c 0,2,3
 779.723632812 1180 779.723632812 1180 711.505859375 1110.79199219 c 0,4,5
 643.723632812 1042 643.723632812 1042 643.609375 984.526367188 c 0,6,7
 643.723632812 927 643.723632812 927 668.813476562 893.453125 c 4,8,9
 722.723632812 821 722.723632812 821 916.877929688 821.126953125 c 0,10,11
 982.157226562 821.002929688 982.157226562 821.002929688 1176.15820312 849.200195312 c 2,12,-1
 1226.83203125 856.565429688 l 1,13,-1
 1230.52929688 617.944335938 l 1,14,-1
 1195.03515625 609.805664062 l 2,15,16
 810.723632812 522 810.723632812 522 586.448242188 640.1484375 c 1,17,18
 642.237304688 390.764648438 642.237304688 390.764648438 639.610351562 48.564453125 c 2,19,-1
 639.267578125 3.9091796875 l 1,20,-1
 374.758789062 3.9091796875 l 1,21,-1
 374.559570312 51.705078125 l 2,22,23
 373.723632812 327 373.723632812 327 345.060546875 493.46484375 c 0,24,25
 316.723632812 658 316.723632812 658 267.202148438 845.319335938 c 0,26,27
 218.44921875 1030.24707031 218.44921875 1030.24707031 95.3544921875 1326.39453125 c 2,28,-1
 69.470703125 1388.66699219 l 1,29,-1
 361.911132812 1388.66699219 l 1,30,-1
 372.465820312 1358.55859375 l 2,31,32
 415.723632812 1235 415.723632812 1235 450.291015625 1132.62792969 c 1,33,34
 566.723632812 1406 566.723632812 1406 892.551757812 1419.24804688 c 0,35,36
 987.096679688 1422.97558594 987.096679688 1422.97558594 1127.46289062 1382.45996094 c 2,37,-1
 1159.98339844 1373.07324219 l 1,38,-1
 1159.98339844 1138.26757812 l 1,39,-1
 1104.00683594 1152.34765625 l 2,0,1
EndSplineSet
EndChar

StartChar: uni06F5
Encoding: 1781 1781 93
Width: 1300
VWidth: 2593
GlyphClass: 2
Flags: W
LayerCount: 2
Fore
SplineSet
424.470703125 279.596679688 m 0,0,1
 474.134765625 280 474.134765625 280 494.575195312 289.021484375 c 0,2,3
 537.161132812 308.01171875 537.161132812 308.01171875 563.614257812 377.70703125 c 2,4,-1
 573.409179688 403.513671875 l 1,5,-1
 744.072265625 403.513671875 l 1,6,-1
 752.356445312 374.493164062 l 2,7,8
 770.661132812 308.702148438 770.661132812 308.702148438 812.900390625 286.270507812 c 4,9,10
 867.134765625 257 867.134765625 257 936.134765625 280 c 0,11,12
 1024.13476562 308 1024.13476562 308 963.668945312 499.28515625 c 0,13,14
 915.134765625 652 915.134765625 652 654.415039062 953.161132812 c 1,15,16
 437.134765625 694 437.134765625 694 350.134765625 494 c 0,17,18
 256.134765625 279 256.134765625 279 424.470703125 279.596679688 c 0,0,1
652.138671875 115.8671875 m 1,19,20
 575.134765625 0 575.134765625 0 413.229492188 -0.107421875 c 0,21,22
 251.134765625 0 251.134765625 0 161.368164062 84.2724609375 c 0,23,24
 72.134765625 169 72.134765625 169 66.03125 327.189453125 c 0,25,26
 53.134765625 623 53.134765625 623 487.221679688 1131.36132812 c 1,27,28
 487.134765625 1132 487.134765625 1132 461.124023438 1159.20898438 c 2,29,-1
 436.560546875 1185.49023438 l 1,30,-1
 607.134765625 1382 l 1,31,32
 627.134765625 1362 627.134765625 1362 733.975585938 1251.58789062 c 0,33,34
 1269.13476562 690 1269.13476562 690 1231.921875 328.654296875 c 0,35,36
 1216.13476562 173 1216.13476562 173 1129.95410156 88.26171875 c 0,37,38
 1044.13476562 3 1044.13476562 3 887.360351562 -0.142578125 c 0,39,40
 730.134765625 -4 730.134765625 -4 652.138671875 115.8671875 c 1,19,20
EndSplineSet
EndChar

StartChar: uni06F6
Encoding: 1782 1782 94
Width: 1300
VWidth: 2593
GlyphClass: 2
Flags: WO
LayerCount: 2
Fore
SplineSet
526.521484375 629.818359375 m 1,0,1
 289 670 289 670 262.467773438 905.551757812 c 0,2,3
 242 1086 242 1086 358.017578125 1219.22363281 c 0,4,5
 498 1381 498 1381 719.818359375 1381.12011719 c 0,6,7
 803 1381 803 1381 911.405273438 1338.90722656 c 1,8,-1
 909.8984375 1114.99902344 l 1,9,10
 802 1135 802 1135 749.021484375 1134.85253906 c 0,11,12
 619 1135 619 1135 548.505859375 1064.71582031 c 0,13,14
 502 1019 502 1019 507.521484375 948.326171875 c 0,15,16
 513.130629641 877.346987837 513.130629641 877.346987837 559.623046875 854.541015625 c 4,17,18
 628 821 628 821 710.776367188 841.642578125 c 0,19,20
 803.101004481 866.468564191 803.101004481 866.468564191 840.049804688 880.32421875 c 0,21,22
 957 916 957 916 1078.22070312 965.178710938 c 1,23,-1
 1078.22070312 692.975585938 l 1,24,25
 656 598 656 598 489.1328125 3.9091796875 c 1,26,-1
 221.779296875 3.9091796875 l 1,27,28
 360 380 360 380 526.521484375 629.818359375 c 1,0,1
EndSplineSet
EndChar

StartChar: uniFB8F
Encoding: 64399 64399 109
Width: 2038
VWidth: 2593
GlyphClass: 2
Flags: W
AnchorPoint: "Anchor-7" 443.692 -250.794 basechar 0
AnchorPoint: "Anchor-10" 475.382 1412.92 basechar 0
LayerCount: 2
Fore
SplineSet
1680.60742188 182.334960938 m 1,0,1
 1586.01263797 0.0243569012392 1586.01263797 0.0243569012392 1362.19042969 0 c 2,2,-1
 473.774414062 -0.0966796875 l 2,3,4
 188.780535776 0.000415461769271 188.780535776 0.000415461769271 94.2041015625 228.581054688 c 0,5,6
 50.2281047432 334.450850365 50.2281047432 334.450850365 50.2275390625 481.977539062 c 2,7,-1
 50.2265625 736.66015625 l 1,8,-1
 308.984375 736.66015625 l 1,9,-1
 308.984375 492.541015625 l 2,10,11
 309 372 309 372 347.486328125 320.516601562 c 128,-1,12
 385.859167445 269.188380237 385.859167445 269.188380237 466.559570312 269.200195312 c 2,13,-1
 1313.67578125 269.32421875 l 2,14,15
 1408 269 1408 269 1444.54980469 293.025390625 c 128,-1,16
 1481 317 1481 317 1481.46972656 363.123046875 c 0,17,18
 1482 378 1482 378 1457.07421875 419.020507812 c 0,19,20
 1433.79372134 458.648915768 1433.79372134 458.648915768 1384.35839844 515.010742188 c 2,21,-1
 1113.54492188 823.768554688 l 2,22,23
 1026 924 1026 924 1012.19498096 957.912166355 c 0,24,25
 999 992 999 992 1003.05509361 1050.47689597 c 0,26,27
 1008 1109 1008 1109 1044.37597656 1161.91503906 c 0,28,29
 1080.70146638 1214.56728825 1080.70146638 1214.56728825 1146.38769531 1238.47363281 c 2,30,-1
 1847.26074219 1493.5546875 l 1,31,-1
 1847.26074219 1223.37011719 l 1,32,-1
 1266.96289062 1026.57714844 l 1,33,-1
 1830.6640625 392.643554688 l 2,34,35
 1940.2080732 269.766601561 1940.2080732 269.766601561 2023.04882812 269.766601562 c 2,36,-1
 2050.73828125 269.766601562 l 5,37,-1
 2050.73828125 0.5859375 l 5,38,-1
 2030.12792969 0.5859375 l 2,39,40
 1835 1 1835 1 1680.60742188 182.334960938 c 1,0,1
EndSplineSet
EndChar

StartChar: uniFB9F
Encoding: 64415 64415 117
Width: 1610
VWidth: 2593
GlyphClass: 2
Flags: W
AnchorPoint: "Anchor-10" 322.402 839.573 basechar 0
AnchorPoint: "Anchor-7" 282.474 -662.176 basechar 0
LayerCount: 2
Fore
SplineSet
1487.19433594 -0.48046875 m 2,0,1
 1425.05421722 -0.0992057659768 1425.05421722 -0.0992057659768 1361.65722656 43.474609375 c 1,2,3
 1343.90880747 -324.535040152 1343.90880747 -324.535040152 1003.01074219 -422.977539062 c 0,4,5
 891.940429688 -455.051757812 891.940429688 -455.051757812 749.182617188 -456.348632812 c 2,6,-1
 684.103515625 -456.940429688 l 1,7,-1
 633.106445312 -456.940429688 l 2,8,9
 239.053710938 -456.983398438 239.053710938 -456.983398438 109.479492188 -198.142578125 c 0,10,11
 51.330078125 -80.8076171875 51.330078125 -80.8076171875 51.12109375 83.2646484375 c 2,12,-1
 50.98828125 525.9921875 l 1,13,-1
 309.877929688 526.041015625 l 1,14,-1
 309.877929688 84.46484375 l 2,15,16
 309.932617188 -55.3017578125 309.932617188 -55.3017578125 387.375976562 -121.474609375 c 128,-1,17
 464.8203125 -187.646484375 464.8203125 -187.646484375 635.271484375 -187.643554688 c 2,18,-1
 683.84375 -187.642578125 l 1,19,-1
 757.071289062 -187.0546875 l 2,20,21
 1015.10742188 -185.02734375 1015.10742188 -185.02734375 1080.65429688 -44.9208984375 c 4,22,23
 1106.02539062 10.4736328125 1106.02539062 10.4736328125 1106.16210938 88.5322265625 c 2,24,-1
 1105.7890625 684.797851562 l 1,25,-1
 1367.26757812 684.931640625 l 1,26,-1
 1367.26757812 459.271484375 l 2,27,28
 1367.15039062 358.00390625 1367.15039062 358.00390625 1411.52050781 313.3515625 c 128,-1,29
 1455.890625 268.700195312 1455.890625 268.700195312 1556.40722656 268.700195312 c 2,30,-1
 1664.953125 268.700195312 l 1,31,-1
 1664.953125 -0.48046875 l 1,32,-1
 1487.19433594 -0.48046875 l 2,0,1
EndSplineSet
EndChar

StartChar: uniFBE8
Encoding: 64488 64488 120
Width: 718
VWidth: 2593
GlyphClass: 2
Flags: W
AnchorPoint: "Anchor-10" 379.938 1260.35 basechar 0
AnchorPoint: "Anchor-7" 417.497 -102.32 basechar 0
LayerCount: 2
Fore
SplineSet
626.322265625 450.46875 m 2,0,1
 626.322265625 233.387025485 626.322265625 233.387025485 528.529296875 115.942382812 c 0,2,3
 430.944617557 -1.06640625 430.944617557 -1.06640625 242.688476562 -1.06640625 c 2,4,-1
 -12.53515625 -1.06640625 l 1,5,-1
 -12.53515625 268.23046875 l 1,6,-1
 227.540039062 268.23046875 l 2,7,8
 301 268 301 268 334.20703125 308.520507812 c 0,9,10
 367.56640625 348.480612226 367.56640625 348.480612226 367.56640625 444.623046875 c 2,11,-1
 367.56640625 735.689453125 l 1,12,-1
 626.322265625 735.689453125 l 1,13,-1
 626.322265625 450.46875 l 2,0,1
EndSplineSet
EndChar

StartChar: uniFBE9
Encoding: 64489 64489 121
Width: 877
VWidth: 2593
GlyphClass: 2
Flags: W
AnchorPoint: "Anchor-10" 369.939 1166.45 basechar 0
AnchorPoint: "Anchor-7" 348.812 -107.016 basechar 0
LayerCount: 2
Fore
SplineSet
791.33203125 -1.06640625 m 2,0,1
 614.701247038 -0.932098277928 614.701247038 -0.932098277928 503.862304688 110.366210938 c 1,2,3
 394.935086797 -1.06640625 394.935086797 -1.06640625 216.1484375 -1.06640625 c 2,4,-1
 -8.55859375 -1.06640625 l 1,5,-1
 -8.55859375 268.23046875 l 1,6,-1
 161.158203125 268.23046875 l 2,7,8
 275 268 275 268 323.8359375 308.366022797 c 128,-1,9
 372.671875 348.732045593 372.671875 348.732045593 372.671875 437.358398438 c 2,10,-1
 372.671875 691.372070312 l 1,11,-1
 637.15625 691.372070312 l 1,12,-1
 637.15625 437.336914062 l 2,13,14
 637.15625 349.876008352 637.15625 349.876008352 688.433844237 309.053238551 c 128,-1,15
 739.711438475 268.23046875 739.711438475 268.23046875 860.405273438 268.23046875 c 2,16,-1
 886.2265625 268.23046875 l 1,17,-1
 886.2265625 -1.06640625 l 1,18,-1
 791.33203125 -1.06640625 l 2,0,1
EndSplineSet
EndChar

StartChar: uniFE73
Encoding: 65139 65139 129
Width: 683
VWidth: 2553
GlyphClass: 2
Flags: W
AnchorPoint: "Anchor-10" 252.404 1490.29 basechar 0
AnchorPoint: "Anchor-7" 252.404 -142.32 basechar 0
LayerCount: 2
Fore
SplineSet
342.298828125 400.2109375 m 2,0,1
 342.298828125 320.515620792 342.298828125 320.515620792 408.206542969 254.607908052 c 128,-1,2
 474.114257812 188.700195312 474.114257812 188.700195312 609.067382812 188.700195312 c 2,3,-1
 677.61328125 188.700195312 l 1,4,-1
 677.61328125 8.9091796875 l 1,5,-1
 539.997070312 8.9091796875 l 2,6,7
 372.288085938 8.9091796875 372.288085938 8.9091796875 267.398925781 113.798339844 c 128,-1,8
 162.509765625 218.6875 162.509765625 218.6875 162.509765625 385.141601562 c 2,9,-1
 162.509765625 413.498046875 l 1,10,-1
 342.298828125 413.498046875 l 1,11,-1
 342.298828125 400.2109375 l 2,0,1
EndSplineSet
EndChar

StartChar: uniFE8E
Encoding: 65166 65166 155
Width: 551
VWidth: 2593
GlyphClass: 2
Flags: W
AnchorPoint: "Anchor-10" 250.923 1533.04 basechar 0
AnchorPoint: "Anchor-7" 265.009 -252.554 basechar 0
LayerCount: 2
Fore
SplineSet
376.448242188 466.135742188 m 2,0,1
 376.448242188 358.38639434 376.448242188 358.38639434 414.194335938 313.68359375 c 0,2,3
 451.809274546 268.23046875 451.809274546 268.23046875 534.014648438 268.23046875 c 2,4,-1
 599.901367188 268.23046875 l 1,5,-1
 599.901367188 -1.06640625 l 1,6,-1
 541.221679688 -1.06640625 l 2,7,8
 335 -1 335 -1 226.665039062 117.015625 c 0,9,10
 117.69140625 236.337899243 117.69140625 236.337899243 117.69140625 457.182617188 c 2,11,-1
 117.69140625 1387.18847656 l 5,12,-1
 376.448242188 1387.18847656 l 5,13,-1
 376.448242188 466.135742188 l 2,0,1
EndSplineSet
EndChar

StartChar: uniFEA2
Encoding: 65186 65186 175
Width: 1398
VWidth: 2593
GlyphClass: 2
Flags: W
AnchorPoint: "Anchor-10" 677.761 1501.94 basechar 0
AnchorPoint: "Anchor-7" 481.334 -853.653 basechar 0
LayerCount: 2
Fore
SplineSet
1134.92089844 547.291015625 m 1,0,1
 1135 541 1135 541 1134.81542969 535.640625 c 0,2,3
 1135 395 1135 395 1189.58691406 331.63671875 c 0,4,5
 1244.26213975 268.698242189 1244.26213975 268.698242189 1362.16308594 268.698242188 c 2,6,-1
 1410.23925781 268.698242188 l 1,7,-1
 1410.23925781 -0.48046875 l 1,8,-1
 1390.734375 -0.48046875 l 2,9,10
 1171 -0 1171 -0 1051.92285156 125.706054688 c 0,11,12
 933 252 933 252 923.095703125 489.751953125 c 1,13,14
 303.974677879 256.601212934 303.974677879 256.601212934 299.16796875 -100.520507812 c 0,15,16
 299 -113 299 -113 298.688476562 -124.571289062 c 0,17,18
 299 -313 299 -313 423.263671875 -405.758789062 c 0,19,20
 548.44761599 -498.331007346 548.44761599 -498.331007346 815.327148438 -498.172851562 c 2,21,-1
 1283.33007812 -497.895507812 l 1,22,-1
 1283.33007812 -755.555664062 l 1,23,-1
 802.356445312 -754.58203125 l 2,24,25
 398 -754 398 -754 218 -581.5 c 128,-1,26
 38 -409 38 -409 50.5 -115 c 128,-1,27
 63 179 63 179 259.899414062 379.568359375 c 0,28,29
 457 580 457 580 828.413085938 699.786132812 c 1,30,31
 790 713 790 713 751.5 725.5 c 128,-1,32
 713 738 713 738 673.708984375 750.8828125 c 0,33,34
 541 793 541 793 461.283203125 787.469726562 c 0,35,36
 386.705064872 781.935775749 386.705064872 781.935775749 320.9765625 631.70703125 c 2,37,-1
 305.756835938 596.920898438 l 1,38,-1
 89.8798828125 678.267578125 l 1,39,-1
 104.479492188 715.918945312 l 2,40,41
 134 793 134 793 162.522460938 846.306640625 c 0,42,43
 224 963 224 963 326.5 1009.5 c 128,-1,44
 429 1056 429 1056 543.127320551 1032.77468839 c 128,-1,45
 657.254641103 1009.54937679 657.254641103 1009.54937679 874.90234375 927.791015625 c 2,46,-1
 1265.27734375 781.1484375 l 1,47,-1
 1265.171875 562.702148438 l 1,48,-1
 1228.84472656 559.368164062 l 2,49,50
 1181 555 1181 555 1134.92089844 547.291015625 c 1,0,1
EndSplineSet
EndChar

StartChar: uniFEA3
Encoding: 65187 65187 176
Width: 1332
VWidth: 2593
GlyphClass: 2
Flags: W
AnchorPoint: "Anchor-10" 490.912 1279.39 basechar 0
AnchorPoint: "Anchor-7" 425.185 -253.728 basechar 0
LayerCount: 2
Fore
SplineSet
-8.55859375 -1.06640625 m 5,0,-1
 -8.55859375 268.215820312 l 5,1,-1
 927.5390625 268.681640625 l 1,2,3
 802 381 802 381 703.606933594 477.206542969 c 0,4,5
 605 573 605 573 558.975585937 598.856933594 c 0,6,7
 466 651 466 651 374.0234375 583.234375 c 0,8,9
 320.077096346 543.317102969 320.077096346 543.317102969 256.920898438 470.767578125 c 2,10,-1
 231.01171875 441.004882812 l 1,11,-1
 39.587890625 603.123046875 l 1,12,-1
 62.509765625 633.325195312 l 2,13,14
 115 702 115 702 170.406738281 755.763671875 c 0,15,16
 225 808 225 808 248.000976562 823.776367188 c 0,17,18
 339 885 339 885 471.306640625 885.620117188 c 0,19,20
 639 887 639 887 883.373046875 657.389648438 c 0,21,22
 1068 483 1068 483 1260.21582031 302.315429688 c 1,23,24
 1249 182 1249 182 1210.31933594 132.293945312 c 0,25,26
 1117 11 1117 11 982.91015625 -1.07421875 c 1,27,-1
 -8.55859375 -1.06640625 l 5,0,-1
EndSplineSet
EndChar

StartChar: uniFEA4
Encoding: 65188 65188 177
Width: 1378
VWidth: 2593
GlyphClass: 2
Flags: W
AnchorPoint: "Anchor-10" 454.527 1259.29 basechar 0
AnchorPoint: "Anchor-7" 494.433 -251.487 basechar 0
LayerCount: 2
Fore
SplineSet
1359.07324219 0 m 2,0,1
 1220 0 1220 0 1111.02929688 81.6884765625 c 1,2,3
 1017 -4 1017 -4 890.786132812 0 c 1,4,-1
 -8.55859375 0 l 5,5,-1
 -8.55859375 268.216796875 l 5,6,-1
 927.919921875 268.680664062 l 1,7,8
 789 394 789 394 704.257324219 476.499023437 c 0,9,10
 538 638 538 638 459.495605469 626.443847656 c 0,11,12
 380.685001871 613.95006359 380.685001871 613.95006359 257.0078125 470.875 c 2,13,-1
 231.112304688 440.91796875 l 1,14,-1
 39.5947265625 603.119140625 l 1,15,-1
 62.505859375 633.319335938 l 2,16,17
 114 701 114 701 215.562011719 799.673828125 c 0,18,19
 316 897 316 897 470.75 891.516601562 c 1,20,21
 636.020059546 899.000908403 636.020059546 899.000908403 883.8125 656.965820312 c 2,22,-1
 1246.32617188 302.875 l 2,23,24
 1280.75996286 269.234507077 1280.75996286 269.234507077 1303.23242188 269.09765625 c 2,25,-1
 1385.17773438 268.598632812 l 1,26,-1
 1385.17871094 0 l 1,27,-1
 1359.07324219 0 l 2,0,1
EndSplineSet
EndChar

StartChar: uniFEAA
Encoding: 65194 65194 183
Width: 1237
VWidth: 2593
GlyphClass: 2
Flags: W
AnchorPoint: "Anchor-10" 402.389 1356.77 basechar 0
AnchorPoint: "Anchor-7" 333.739 -246.099 basechar 0
LayerCount: 2
Fore
SplineSet
875.71484375 130.831054688 m 5,0,1
 772.274414062 14.30859375 772.274414062 14.30859375 563.107421875 -1.0712890625 c 5,2,-1
 50.8994140625 -1.060546875 l 5,3,-1
 50.8994140625 268.313476562 l 5,4,-1
 358.760742188 268.223632812 l 6,5,6
 583 268 583 268 627.5 286.5 c 132,-1,7
 672 305 672 305 679 326.5 c 4,8,9
 693.080078125 369.747070312 693.080078125 369.747070312 605.512695312 478.795898438 c 4,10,11
 580 509 580 509 576.768554688 513.137695312 c 6,12,-1
 284.15625 853.671875 l 5,13,-1
 472.791015625 1040.78808594 l 5,14,-1
 952.178710938 450.32421875 l 6,15,16
 1096.21777344 273.467773438 1096.21777344 273.467773438 1224.96191406 269.055664062 c 6,17,-1
 1247.18945312 268.293945312 l 5,18,-1
 1247.18945312 -0.48046875 l 5,19,-1
 1196.19335938 -0.48046875 l 5,20,21
 1023 1 1023 1 875.71484375 130.831054688 c 5,0,1
EndSplineSet
EndChar

StartChar: uniFEAE
Encoding: 65198 65198 187
Width: 922
VWidth: 2593
GlyphClass: 2
Flags: W
AnchorPoint: "Anchor-10" 429.643 988.634 basechar 0
AnchorPoint: "Anchor-7" 313.358 -717.397 basechar 0
LayerCount: 2
Fore
SplineSet
746.383789062 22.69921875 m 2,0,1
 746.383789062 -245.641457358 746.383789062 -245.641457358 597.92977002 -384.597641717 c 128,-1,2
 449.475750978 -523.553826075 449.475750978 -523.553826075 164.333984375 -523.412109375 c 2,3,-1
 20.896484375 -523.340820312 l 1,4,-1
 20.9013671875 -255.16796875 l 1,5,-1
 159.612304688 -255.265625 l 2,6,7
 327 -255 327 -255 403.706054688 -188.264648438 c 128,-1,8
 480.584960938 -121.361185556 480.584960938 -121.361185556 480.584960938 21.5498046875 c 2,9,-1
 480.584960938 628.3984375 l 1,10,-1
 745.209960938 629.913085938 l 1,11,-1
 745.209960938 385.975585938 l 2,12,13
 745 327 745 327 783.848618289 297.615234375 c 128,-1,14
 822.697236577 268.23046875 822.697236577 268.23046875 911.923828125 268.23046875 c 2,15,-1
 934.022460938 268.23046875 l 1,16,-1
 934.022460938 -1.06640625 l 1,17,-1
 910.895507812 -1.06640625 l 2,18,19
 816 -1 816 -1 746.383789062 36.7158203125 c 1,20,-1
 746.383789062 22.69921875 l 2,0,1
EndSplineSet
PairPos2: "'kern' Horizontal Kerning lookup 15-2" uniFB90 dx=-142 dy=0 dh=-142 dv=0 dx=0 dy=0 dh=0 dv=0
PairPos2: "'kern' Horizontal Kerning lookup 15-2" uniFB8E dx=-142 dy=0 dh=-142 dv=0 dx=0 dy=0 dh=0 dv=0
PairPos2: "'kern' Horizontal Kerning lookup 15-2" uni06A9 dx=-142 dy=0 dh=-142 dv=0 dx=0 dy=0 dh=0 dv=0
PairPos2: "'kern' Horizontal Kerning lookup 15-2" uni064A dx=-47 dy=0 dh=-47 dv=0 dx=0 dy=0 dh=0 dv=0
PairPos2: "'kern' Horizontal Kerning lookup 15-2" uni0649 dx=-47 dy=0 dh=-47 dv=0 dx=0 dy=0 dh=0 dv=0
PairPos2: "'kern' Horizontal Kerning lookup 15-2" uni0648 dx=-47 dy=0 dh=-47 dv=0 dx=0 dy=0 dh=0 dv=0
PairPos2: "'kern' Horizontal Kerning lookup 15-2" uniFEEB dx=-142 dy=0 dh=-142 dv=0 dx=0 dy=0 dh=0 dv=0
PairPos2: "'kern' Horizontal Kerning lookup 15-2" uni0647 dx=-142 dy=0 dh=-142 dv=0 dx=0 dy=0 dh=0 dv=0
PairPos2: "'kern' Horizontal Kerning lookup 15-2" uniFEE7 dx=-142 dy=0 dh=-142 dv=0 dx=0 dy=0 dh=0 dv=0
PairPos2: "'kern' Horizontal Kerning lookup 15-2" uni0646 dx=-47 dy=0 dh=-47 dv=0 dx=0 dy=0 dh=0 dv=0
PairPos2: "'kern' Horizontal Kerning lookup 15-2" uniFEE3 dx=-142 dy=0 dh=-142 dv=0 dx=0 dy=0 dh=0 dv=0
PairPos2: "'kern' Horizontal Kerning lookup 15-2" uni0645 dx=-142 dy=0 dh=-142 dv=0 dx=0 dy=0 dh=0 dv=0
PairPos2: "'kern' Horizontal Kerning lookup 15-2" uni0644 dx=-47 dy=0 dh=-47 dv=0 dx=0 dy=0 dh=0 dv=0
PairPos2: "'kern' Horizontal Kerning lookup 15-2" uniFEDB dx=-142 dy=0 dh=-142 dv=0 dx=0 dy=0 dh=0 dv=0
PairPos2: "'kern' Horizontal Kerning lookup 15-2" uni0643 dx=-142 dy=0 dh=-142 dv=0 dx=0 dy=0 dh=0 dv=0
PairPos2: "'kern' Horizontal Kerning lookup 15-2" uniFED7 dx=-142 dy=0 dh=-142 dv=0 dx=0 dy=0 dh=0 dv=0
PairPos2: "'kern' Horizontal Kerning lookup 15-2" uni0642 dx=-47 dy=0 dh=-47 dv=0 dx=0 dy=0 dh=0 dv=0
PairPos2: "'kern' Horizontal Kerning lookup 15-2" uniFED3 dx=-142 dy=0 dh=-142 dv=0 dx=0 dy=0 dh=0 dv=0
PairPos2: "'kern' Horizontal Kerning lookup 15-2" uni0641 dx=-142 dy=0 dh=-142 dv=0 dx=0 dy=0 dh=0 dv=0
PairPos2: "'kern' Horizontal Kerning lookup 15-2" uniFECF dx=-142 dy=0 dh=-142 dv=0 dx=0 dy=0 dh=0 dv=0
PairPos2: "'kern' Horizontal Kerning lookup 15-2" uniFECB dx=-142 dy=0 dh=-142 dv=0 dx=0 dy=0 dh=0 dv=0
PairPos2: "'kern' Horizontal Kerning lookup 15-2" uniFEC7 dx=-142 dy=0 dh=-142 dv=0 dx=0 dy=0 dh=0 dv=0
PairPos2: "'kern' Horizontal Kerning lookup 15-2" uni0638 dx=-142 dy=0 dh=-142 dv=0 dx=0 dy=0 dh=0 dv=0
PairPos2: "'kern' Horizontal Kerning lookup 15-2" uniFEC3 dx=-142 dy=0 dh=-142 dv=0 dx=0 dy=0 dh=0 dv=0
PairPos2: "'kern' Horizontal Kerning lookup 15-2" uni0637 dx=-142 dy=0 dh=-142 dv=0 dx=0 dy=0 dh=0 dv=0
PairPos2: "'kern' Horizontal Kerning lookup 15-2" uniFEBF dx=-142 dy=0 dh=-142 dv=0 dx=0 dy=0 dh=0 dv=0
PairPos2: "'kern' Horizontal Kerning lookup 15-2" uni0636 dx=-142 dy=0 dh=-142 dv=0 dx=0 dy=0 dh=0 dv=0
PairPos2: "'kern' Horizontal Kerning lookup 15-2" uniFEBB dx=-142 dy=0 dh=-142 dv=0 dx=0 dy=0 dh=0 dv=0
PairPos2: "'kern' Horizontal Kerning lookup 15-2" uni0635 dx=-142 dy=0 dh=-142 dv=0 dx=0 dy=0 dh=0 dv=0
PairPos2: "'kern' Horizontal Kerning lookup 15-2" uniFEB7 dx=-142 dy=0 dh=-142 dv=0 dx=0 dy=0 dh=0 dv=0
PairPos2: "'kern' Horizontal Kerning lookup 15-2" uni0634 dx=-142 dy=0 dh=-142 dv=0 dx=0 dy=0 dh=0 dv=0
PairPos2: "'kern' Horizontal Kerning lookup 15-2" uniFEB3 dx=-142 dy=0 dh=-142 dv=0 dx=0 dy=0 dh=0 dv=0
PairPos2: "'kern' Horizontal Kerning lookup 15-2" uni0633 dx=-142 dy=0 dh=-142 dv=0 dx=0 dy=0 dh=0 dv=0
PairPos2: "'kern' Horizontal Kerning lookup 15-2" uni0632 dx=-47 dy=0 dh=-47 dv=0 dx=0 dy=0 dh=0 dv=0
PairPos2: "'kern' Horizontal Kerning lookup 15-2" uni0631 dx=-47 dy=0 dh=-47 dv=0 dx=0 dy=0 dh=0 dv=0
PairPos2: "'kern' Horizontal Kerning lookup 15-2" uniFEA7 dx=-142 dy=0 dh=-142 dv=0 dx=0 dy=0 dh=0 dv=0
PairPos2: "'kern' Horizontal Kerning lookup 15-2" uniFEA3 dx=-142 dy=0 dh=-142 dv=0 dx=0 dy=0 dh=0 dv=0
PairPos2: "'kern' Horizontal Kerning lookup 15-2" uniFE9F dx=-142 dy=0 dh=-142 dv=0 dx=0 dy=0 dh=0 dv=0
PairPos2: "'kern' Horizontal Kerning lookup 15-2" uniFE9B dx=-142 dy=0 dh=-142 dv=0 dx=0 dy=0 dh=0 dv=0
PairPos2: "'kern' Horizontal Kerning lookup 15-2" uni062B dx=-142 dy=0 dh=-142 dv=0 dx=0 dy=0 dh=0 dv=0
PairPos2: "'kern' Horizontal Kerning lookup 15-2" uniFE97 dx=-142 dy=0 dh=-142 dv=0 dx=0 dy=0 dh=0 dv=0
PairPos2: "'kern' Horizontal Kerning lookup 15-2" uni062A dx=-142 dy=0 dh=-142 dv=0 dx=0 dy=0 dh=0 dv=0
PairPos2: "'kern' Horizontal Kerning lookup 15-2" uni0629 dx=-142 dy=0 dh=-142 dv=0 dx=0 dy=0 dh=0 dv=0
PairPos2: "'kern' Horizontal Kerning lookup 15-2" uniFE91 dx=-47 dy=0 dh=-47 dv=0 dx=0 dy=0 dh=0 dv=0
PairPos2: "'kern' Horizontal Kerning lookup 15-2" uni0628 dx=-142 dy=0 dh=-142 dv=0 dx=0 dy=0 dh=0 dv=0
PairPos2: "'kern' Horizontal Kerning lookup 15-2" uni0627 dx=-188 dy=0 dh=-188 dv=0 dx=0 dy=0 dh=0 dv=0
PairPos2: "'kern' Horizontal Kerning lookup 15-2" uni0622 dx=-188 dy=0 dh=-188 dv=0 dx=0 dy=0 dh=0 dv=0
PairPos2: "'kern' Horizontal Kerning lookup 15-2" uni0621 dx=-142 dy=0 dh=-142 dv=0 dx=0 dy=0 dh=0 dv=0
PairPos2: "'kern' Horizontal Kerning lookup 15-2" uniFB94 dx=-142 dy=0 dh=-142 dv=0 dx=0 dy=0 dh=0 dv=0
PairPos2: "'kern' Horizontal Kerning lookup 15-2" uniFB92 dx=-142 dy=0 dh=-142 dv=0 dx=0 dy=0 dh=0 dv=0
PairPos2: "'kern' Horizontal Kerning lookup 15-2" afii57509 dx=-142 dy=0 dh=-142 dv=0 dx=0 dy=0 dh=0 dv=0
PairPos2: "'kern' Horizontal Kerning lookup 15-2" afii57508 dx=-47 dy=0 dh=-47 dv=0 dx=0 dy=0 dh=0 dv=0
PairPos2: "'kern' Horizontal Kerning lookup 15-2" uniFB7C dx=-142 dy=0 dh=-142 dv=0 dx=0 dy=0 dh=0 dv=0
PairPos2: "'kern' Horizontal Kerning lookup 15-2" afii57506 dx=-142 dy=0 dh=-142 dv=0 dx=0 dy=0 dh=0 dv=0
PairPos2: "'kern' Horizontal Kerning lookup 15-2" afii57440 dx=-142 dy=0 dh=-142 dv=0 dx=0 dy=0 dh=0 dv=0
EndChar

StartChar: uniFEB2
Encoding: 65202 65202 191
Width: 2646
VWidth: 2593
GlyphClass: 2
Flags: W
AnchorPoint: "Anchor-10" 684.089 1069.03 basechar 0
AnchorPoint: "Anchor-7" 261.557 -585.885 basechar 0
LayerCount: 2
Fore
SplineSet
1546.9446371 -1.02897357981 m 0,0,1
 1429 0 1429 0 1359.04101562 64.7431640625 c 1,2,3
 1333 -434 1333 -434 729.025390625 -452.787109375 c 1,4,-1
 701.23828125 -452.787109375 l 1,5,-1
 700.242882846 -452.787443493 l 2,6,7
 384 -453 384 -453 217.449485478 -317.458694682 c 0,8,9
 51.16015625 -182.13033718 51.16015625 -182.13033718 51.16015625 83.2763671875 c 2,10,-1
 51 526 l 1,11,-1
 309.91796875 526.033203125 l 1,12,-1
 309.91796875 84.4580078125 l 2,13,14
 310.050014841 -183.490234375 310.050014841 -183.490234375 703.396484375 -183.490234375 c 2,15,-1
 728.2578125 -183.490234375 l 1,16,-1
 755.552734375 -182.91015625 l 2,17,18
 1104.03144433 -175.441662814 1104.03144433 -175.441662814 1103.88574219 88.53515625 c 6,19,-1
 1103.55664062 684.787109375 l 1,20,-1
 1373.78808594 685.025390625 l 1,21,-1
 1374.48339844 423.245117188 l 2,22,23
 1375 258 1375 258 1531.28613281 257.494140625 c 0,24,25
 1651.26750929 256.998895807 1651.26750929 256.998895807 1650.69042969 436.658203125 c 2,26,-1
 1649.87011719 692.041992188 l 1,27,-1
 1903.83007812 692.041992188 l 1,28,-1
 1904.58886719 430.748046875 l 2,29,30
 1905 259 1905 259 2032.62527167 258.493569939 c 0,31,32
 2152.39550781 257.998364723 2152.39550781 257.998364723 2152.39550781 451.665039062 c 2,33,-1
 2152.39550781 693.979492188 l 1,34,-1
 2411.15234375 693.979492188 l 1,35,-1
 2411.15234375 457.622070312 l 2,36,37
 2411 358 2411 358 2456.56835938 313.142578125 c 0,38,39
 2502.30855966 268.700195312 2502.30855966 268.700195312 2605.48144531 268.700195312 c 2,40,-1
 2656.71191406 268.700195312 l 1,41,-1
 2656.71191406 -0.48046875 l 1,42,-1
 2571.89160156 -0.48046875 l 2,43,44
 2384 -0 2384 -0 2286.30761719 115.874023438 c 1,45,46
 2176 -1 2176 -1 2036.3984375 -1.06640625 c 0,47,48
 1856 -1 1856 -1 1771.56152344 126.634765625 c 1,49,50
 1693 -2 1693 -2 1546.9446371 -1.02897357981 c 0,0,1
EndSplineSet
EndChar

StartChar: uniFEB3
Encoding: 65203 65203 192
Width: 1614
VWidth: 2593
GlyphClass: 2
Flags: W
AnchorPoint: "Anchor-10" 744.679 1153.53 basechar 0
AnchorPoint: "Anchor-7" 904.307 -287.179 basechar 0
LayerCount: 2
Fore
SplineSet
361.203125 121.516601562 m 1,0,1
 242.935931734 -1.06640625 242.935931734 -1.06640625 88.82421875 -1.06640625 c 2,2,-1
 -12.9033203125 -1.06640625 l 1,3,-1
 -12.9033203125 268.23046875 l 1,4,-1
 19.732421875 268.23046875 l 2,5,6
 166 268 166 268 206.762695312 343.747070312 c 0,7,8
 227.247664803 381.455902584 227.247664803 381.455902584 227.376953125 442.033203125 c 2,9,-1
 227.895507812 684.999023438 l 1,10,-1
 485.653320312 684.999023438 l 1,11,-1
 486.34765625 437.569335938 l 2,12,13
 487 268 487 268 637.422851562 268.5 c 0,14,15
 754.739902099 269.99668178 754.739902099 269.99668178 754.215820312 432.587890625 c 2,16,-1
 753.3984375 686.172851562 l 1,17,-1
 1011.6171875 686.172851562 l 1,18,-1
 1012.37695312 434.125 l 2,19,20
 1012.9953952 269.227793391 1012.9953952 269.227793391 1145.99755859 268.450195312 c 0,21,22
 1263.484375 267.99813625 1263.484375 267.99813625 1263.484375 432.9921875 c 2,23,-1
 1263.484375 733.362304688 l 1,24,-1
 1522.2421875 733.362304688 l 1,25,-1
 1522.2421875 431.955078125 l 1,26,27
 1521 -0 1521 -0 1152.78076172 -0.67626953125 c 0,28,29
 965 -1 965 -1 878.701171875 125.662109375 c 1,30,31
 800 -1 800 -1 626.067382812 -0.96875 c 128,-1,32
 452 -1 452 -1 361.203125 121.516601562 c 1,0,1
EndSplineSet
EndChar

StartChar: uniFEB4
Encoding: 65204 65204 193
Width: 1771
VWidth: 2588
GlyphClass: 2
Flags: W
AnchorPoint: "Anchor-10" 850.65 1147.67 basechar 0
AnchorPoint: "Anchor-7" 862.824 -247.272 basechar 0
LayerCount: 2
Fore
SplineSet
383.348632812 121.838867188 m 5,0,1
 293.95169845 -1.06640625 293.95169845 -1.06640625 89.7490234375 -1.06640625 c 6,2,-1
 -10.236328125 -1.06640625 l 1,3,-1
 -10.236328125 268.227539062 l 1,4,-1
 47.953125 268.229492188 l 1,5,6
 193.618470085 269.008657209 193.618470085 269.008657209 230.829101562 334.176757812 c 0,7,8
 249.396640638 367.716477051 249.396640638 367.716477051 248.880859375 415.547851562 c 2,9,-1
 245.946289062 687.6875 l 1,10,-1
 514.5546875 687.6875 l 1,11,-1
 514.108398438 424.13671875 l 2,12,13
 514 269 514 269 638.241210938 268.974609375 c 0,14,15
 776.340194344 269.000062702 776.340194344 269.000062702 776.149414062 424.692382812 c 2,16,-1
 775.827148438 687.6875 l 1,17,-1
 1030.74902344 687.6875 l 1,18,-1
 1032.34472656 426.975585938 l 2,19,20
 1033 341 1033 341 1065.56152344 304.9609375 c 128,-1,21
 1098 269 1098 269 1163.16954264 269.068721192 c 0,22,23
 1282.64971779 269.000200882 1282.64971779 269.000200882 1283.10644531 420.3125 c 2,24,-1
 1283.92285156 690.78515625 l 1,25,-1
 1527.04199219 690.78515625 l 1,26,-1
 1527.01757812 457.540039062 l 2,27,28
 1527 353 1527 353 1598.83398438 298.635742188 c 0,29,30
 1637.62185249 269.286132811 1637.62185249 269.286132811 1719.37304688 269.286132812 c 2,31,-1
 1780.8046875 269.286132812 l 1,32,-1
 1780.8046875 -1.06640625 l 1,33,-1
 1666.80078125 -1.06640625 l 2,34,35
 1506 -1 1506 -1 1415.60253906 117.942382812 c 1,36,37
 1342 -1 1342 -1 1168.42669759 -0.0191152045766 c 128,-1,38
 995 1 995 1 903.119140625 128.510742188 c 1,39,40
 825 3 825 3 651.163860753 2.99514021664 c 0,41,42
 478 3 478 3 383.348632812 121.838867188 c 5,0,1
EndSplineSet
EndChar

StartChar: uniFEBA
Encoding: 65210 65210 199
Width: 2749
VWidth: 2593
GlyphClass: 2
Flags: W
AnchorPoint: "Anchor-10" 652.398 1186.4 basechar 0
AnchorPoint: "Anchor-7" 270.946 -652.786 basechar 0
LayerCount: 2
Fore
SplineSet
1682.91894531 281.046875 m 1,0,-1
 1994.08496094 281.046875 l 2,1,2
 2096.94628906 280.790039062 2096.94628906 280.790039062 2158.41308593 307.346679687 c 128,-1,3
 2219.87988281 333.903320312 2219.87988281 333.903320312 2243.18359375 358.274414062 c 0,4,5
 2290.05006316 407.289478262 2290.05006316 407.289478262 2285.48206283 496.268762568 c 128,-1,6
 2280.9140625 585.248046875 2280.9140625 585.248046875 2249.98242188 617.567382812 c 128,-1,7
 2219.04980469 649.88671875 2219.04980469 649.88671875 2146.34015328 648.042975325 c 0,8,9
 2016.67276786 644.754919548 2016.67276786 644.754919548 1682.91894531 281.046875 c 1,0,-1
1359.92578125 59.7353515625 m 1,10,11
 1345 -434 1345 -434 729.025390625 -452.787109375 c 1,12,-1
 701.241210938 -452.787109375 l 2,13,14
 384 -453 384 -453 217.780273438 -317.37890625 c 0,15,16
 51.2655604558 -182.215560769 51.2655604558 -182.215560769 51.16015625 83.2607421875 c 2,17,-1
 50.984375 525.9921875 l 1,18,-1
 309.91796875 526.041015625 l 1,19,-1
 309.91796875 84.4599609375 l 2,20,21
 310.000150357 -183.490234375 310.000150357 -183.490234375 703.396484375 -183.490234375 c 2,22,-1
 728.2578125 -183.490234375 l 1,23,-1
 755.572265625 -182.91015625 l 2,24,25
 938 -179 938 -179 1021.11523438 -112.549804688 c 0,26,27
 1103.97014614 -46.0239702528 1103.97014614 -46.0239702528 1103.88574219 88.5322265625 c 2,28,-1
 1103.51171875 684.797851562 l 1,29,-1
 1364.98828125 684.931640625 l 1,30,-1
 1364.98828125 517.10546875 l 2,31,32
 1365 370 1365 370 1419.02539062 347.081054688 c 1,33,34
 1752 736 1752 736 1970.03417969 855.255859375 c 0,35,36
 2111 933 2111 933 2303.10058594 882.383789062 c 0,37,38
 2547 818 2547 818 2552.125 466.392578125 c 0,39,40
 2553 412 2553 412 2542.9296875 360.958007812 c 1,41,42
 2615.82728235 268.21972656 2615.82728235 268.21972656 2728.1171875 268.219726562 c 2,43,-1
 2761.49902344 268.219726562 l 5,44,-1
 2761.49902344 -0.9609375 l 5,45,-1
 2703.0078125 -0.9609375 l 2,46,47
 2520 -1 2520 -1 2421.66113281 138.551757812 c 1,48,49
 2377 98 2377 98 2294.91308594 48.6708984375 c 0,50,51
 2212.61135985 -0.230921167334 2212.61135985 -0.230921167334 2072.05761719 -0.2958984375 c 2,52,-1
 1672.80957031 -0.48046875 l 2,53,54
 1462 -1 1462 -1 1359.92578125 59.7353515625 c 1,10,11
EndSplineSet
EndChar

StartChar: uniFEBB
Encoding: 65211 65211 200
Width: 1695
VWidth: 2593
GlyphClass: 2
Flags: W
AnchorPoint: "Anchor-10" 630.109 1290.04 basechar 0
AnchorPoint: "Anchor-7" 630.109 -226.146 basechar 0
LayerCount: 2
Fore
SplineSet
733.919921875 281.52734375 m 1,0,-1
 1045.08496094 281.52734375 l 2,1,2
 1147.9584518 281.272026546 1147.9584518 281.272026546 1218.84983137 311.823024992 c 128,-1,3
 1289.74121094 342.374023438 1289.74121094 342.374023438 1314.79394531 386.823242188 c 0,4,5
 1354.31328989 456.942233648 1354.31328989 456.942233648 1328.40820312 562.282226562 c 0,6,7
 1316.43208844 610.979727501 1316.43208844 610.979727501 1286.14550781 630.577148438 c 0,8,9
 1183.6762195 696.881555731 1183.6762195 696.881555731 996.981445312 538.161132812 c 0,10,11
 871.607421875 431.571289062 871.607421875 431.571289062 733.919921875 281.52734375 c 1,0,-1
1364.1953125 59.3701171875 m 0,12,13
 1265.41832658 0.250375722273 1265.41832658 0.250375722273 1123.05859375 0.1845703125 c 2,14,-1
 723.76953125 0 l 2,15,16
 476 -0 476 -0 366.876953125 124.4296875 c 1,17,18
 255.91385055 -0.0966796875 255.91385055 -0.0966796875 58.154296875 -0.0966796875 c 2,19,-1
 -12.9033203125 -0.0966796875 l 5,20,-1
 -12.9033203125 269.200195312 l 5,21,-1
 51.201171875 269.200195312 l 2,22,23
 151 269 151 269 194.580078125 309.302734375 c 0,24,25
 237.774414062 348.793754928 237.774414062 348.793754928 237.774414062 437.534179688 c 2,26,-1
 237.774414062 693.1796875 l 1,27,-1
 484.493164062 693.1796875 l 1,28,-1
 485.828125 485.254882812 l 2,29,30
 486 410 486 410 494.171875 367.729492188 c 1,31,32
 798.159289981 749.180580042 798.159289981 749.180580042 1028.56152344 859.911132812 c 0,33,34
 1176 931 1176 931 1354.34765625 882.797851562 c 0,35,36
 1599 817 1599 817 1603.12695312 466.823242188 c 0,37,38
 1607 205 1607 205 1364.1953125 59.3701171875 c 0,12,13
EndSplineSet
EndChar

StartChar: uniFEBC
Encoding: 65212 65212 201
Width: 1800
VWidth: 2593
GlyphClass: 2
Flags: W
AnchorPoint: "Anchor-10" 689.854 1292.04 basechar 0
AnchorPoint: "Anchor-7" 719.196 -263.704 basechar 0
LayerCount: 2
Fore
SplineSet
733.919921875 281.52734375 m 1,0,-1
 1045.08496094 281.52734375 l 2,1,2
 1147.9584518 281.272026546 1147.9584518 281.272026546 1218.84983137 311.823024992 c 128,-1,3
 1289.74121094 342.374023438 1289.74121094 342.374023438 1314.79394531 386.823242188 c 0,4,5
 1354.31328989 456.942233648 1354.31328989 456.942233648 1328.40820312 562.282226562 c 0,6,7
 1316.43208844 610.979727501 1316.43208844 610.979727501 1286.14550781 630.577148438 c 0,8,9
 1183.6762195 696.881555731 1183.6762195 696.881555731 996.981445312 538.161132812 c 0,10,11
 871.607421875 431.571289062 871.607421875 431.571289062 733.919921875 281.52734375 c 1,0,-1
1753.9921875 -0.48046875 m 2,12,13
 1572.34311655 -0.48046875 1572.34311655 -0.48046875 1472.984375 138.65234375 c 1,14,15
 1323.26735172 0.277116281057 1323.26735172 0.277116281057 1123.05859375 0.1845703125 c 2,16,-1
 723.76953125 0 l 2,17,18
 476 -0 476 -0 366.876953125 124.4296875 c 1,19,20
 255.91385055 -0.0966796875 255.91385055 -0.0966796875 58.154296875 -0.0966796875 c 2,21,-1
 -12.9033203125 -0.0966796875 l 1,22,-1
 -12.9033203125 269.200195312 l 1,23,-1
 51.201171875 269.200195312 l 2,24,25
 151 269 151 269 194.387207031 308.896877464 c 128,-1,26
 237.774414062 348.793754928 237.774414062 348.793754928 237.774414062 437.534179688 c 2,27,-1
 237.774414062 693.1796875 l 1,28,-1
 484.493164062 693.1796875 l 1,29,-1
 485.828125 485.254882812 l 2,30,31
 486 408 486 408 494.171875 367.729492188 c 1,32,33
 798 749 798 749 1028.56152344 859.911132812 c 0,34,35
 1176 931 1176 931 1357.0859791 881.856460646 c 128,-1,36
 1538.17195821 832.712921291 1538.17195821 832.712921291 1586.35839844 618.829101562 c 0,37,38
 1617.59514548 481.375323173 1617.59514548 481.375323173 1593.96582031 361.450195312 c 1,39,40
 1668.2400838 268.70019531 1668.2400838 268.70019531 1779.11816406 268.700195312 c 2,41,-1
 1812.49902344 268.700195312 l 1,42,-1
 1812.49902344 -0.48046875 l 1,43,-1
 1753.9921875 -0.48046875 l 2,12,13
EndSplineSet
EndChar

StartChar: uniFEC2
Encoding: 65218 65218 207
Width: 1530
VWidth: 2593
GlyphClass: 2
Flags: W
AnchorPoint: "Anchor-10" 424.545 1597.1 basechar 0
LayerCount: 2
Fore
SplineSet
500.643554688 282.217773438 m 1,0,-1
 811.80859375 282.217773438 l 2,1,2
 914.668945312 281.962890625 914.668945312 281.962890625 985.566894531 312.514160156 c 128,-1,3
 1056.46484375 343.065429688 1056.46484375 343.065429688 1081.51757812 387.514648438 c 128,-1,4
 1106.56933594 431.962890625 1106.56933594 431.962890625 1102.60351562 509.190429688 c 128,-1,5
 1098.63769531 586.41796875 1098.63769531 586.41796875 1067.70605469 618.73828125 c 128,-1,6
 1036.7734375 651.057617188 1036.7734375 651.057617188 970.393554688 649.247070312 c 0,7,8
 834.479087853 646.012602172 834.479087853 646.012602172 500.643554688 282.217773438 c 1,0,-1
1445.81152344 0.4892578125 m 2,9,10
 1326.57231234 0.4892578125 1326.57231234 0.4892578125 1220.66796875 121.639648438 c 1,11,12
 1139.13581562 49.5813018326 1139.13581562 49.5813018326 1046.15361482 24.6808427366 c 128,-1,13
 953.171414029 -0.219616359394 953.171414029 -0.219616359394 889.676757812 -0.0947265625 c 2,14,-1
 490.499023438 0.6904296875 l 1,15,-1
 50.7412109375 -0.1650390625 l 1,16,-1
 50.7412109375 269.200195312 l 1,17,-1
 170.985351562 269.200195312 l 1,18,19
 228 342 228 342 287.919921875 410.317382812 c 1,20,-1
 287.919921875 1388.74414062 l 1,21,-1
 543.014648438 1388.74414062 l 1,22,-1
 543.014648438 680.233398438 l 1,23,24
 668 793 668 793 785.955078125 851.607421875 c 0,25,26
 944 931 944 931 1120.99414062 883.509765625 c 0,27,28
 1368.08583728 816.738849441 1368.08583728 816.738849441 1369.85449219 467.05859375 c 0,29,30
 1370 402 1370 402 1355.95996094 342.422851562 c 1,31,32
 1408.23718037 269.669921875 1408.23718037 269.669921875 1514.98046875 269.669921875 c 2,33,-1
 1539.57128906 269.669921875 l 1,34,-1
 1539.57128906 0.4892578125 l 1,35,-1
 1445.81152344 0.4892578125 l 2,9,10
EndSplineSet
EndChar

StartChar: uniFEC3
Encoding: 65219 65219 208
Width: 1309
VWidth: 2593
GlyphClass: 2
Flags: W
AnchorPoint: "Anchor-10" 214.277 1576.82 basechar 0
AnchorPoint: "Anchor-7" 348.078 -262.734 basechar 0
LayerCount: 2
Fore
SplineSet
348.353515625 282.217773438 m 1,0,-1
 659.518554688 282.217773438 l 2,1,2
 762.387695312 281.962890625 762.387695312 281.962890625 833.28125 312.514160156 c 128,-1,3
 904.174804688 343.065429688 904.174804688 343.065429688 929.227539062 387.514648438 c 128,-1,4
 954.279296875 431.962890625 954.279296875 431.962890625 950.313476562 509.190429688 c 128,-1,5
 946.34765625 586.41796875 946.34765625 586.41796875 915.416015625 618.73828125 c 128,-1,6
 884.484375 651.057617188 884.484375 651.057617188 818.104492188 649.247070312 c 0,7,8
 682.187869381 646.01131692 682.187869381 646.01131692 348.353515625 282.217773438 c 1,0,-1
135.629882812 409.624023438 m 1,9,-1
 135.629882812 1388.74414062 l 1,10,-1
 390.724609375 1388.74414062 l 1,11,-1
 390.724609375 680.235351562 l 1,12,13
 521.614588889 796.432597788 521.614588889 796.432597788 633.657226562 851.603515625 c 0,14,15
 792 931 792 931 968.740234375 883.5 c 0,16,17
 1215.20419273 818.182450665 1215.20419273 818.182450665 1217.5625 467.310546875 c 0,18,19
 1220.485093 204.408217434 1220.485093 204.408217434 998.202148438 71.2021484375 c 0,20,21
 879.307332635 -0.373876534262 879.307332635 -0.373876534262 737.387695312 -0.0947265625 c 2,22,-1
 338.21484375 0.6904296875 l 1,23,-1
 -12.0791015625 -0.1767578125 l 1,24,-1
 -12.0791015625 269.200195312 l 1,25,-1
 19.4248046875 269.200195312 l 1,26,-1
 135.629882812 409.624023438 l 1,9,-1
EndSplineSet
EndChar

StartChar: uniFEC4
Encoding: 65220 65220 209
Width: 1384
VWidth: 2593
GlyphClass: 2
Flags: W
AnchorPoint: "Anchor-10" 209.783 1598.53 basechar 0
AnchorPoint: "Anchor-7" 490.837 -254.314 basechar 0
LayerCount: 2
Fore
SplineSet
354.173828125 282.217773438 m 1,0,-1
 665.338867188 282.217773438 l 2,1,2
 768.208007812 281.962890625 768.208007812 281.962890625 839.1015625 312.514160156 c 128,-1,3
 909.995117188 343.065429688 909.995117188 343.065429688 935.047851562 387.514648438 c 0,4,5
 974.567172583 457.632057561 974.567172583 457.632057561 948.661132812 562.971679688 c 0,6,7
 936.685306606 611.669970521 936.685306606 611.669970521 906.3984375 631.267578125 c 0,8,9
 803.926826909 697.569362501 803.926826909 697.569362501 617.236328125 538.850585938 c 0,10,11
 491.860351562 432.26171875 491.860351562 432.26171875 354.173828125 282.217773438 c 1,0,-1
24.515625 269.200195312 m 1,12,13
 62.8622456314 318.741326184 62.8622456314 318.741326184 141.450195312 410.317382812 c 1,14,-1
 141.450195312 1388.74414062 l 1,15,-1
 396.544921875 1388.74414062 l 1,16,-1
 396.544921875 680.233398438 l 1,17,18
 618.918093554 881.721897153 618.918093554 881.721897153 802.629882812 898.924804688 c 0,19,20
 887 907 887 907 972.5 884 c 0,21,22
 1141.84217601 838.445964347 1141.84217601 838.445964347 1196.35839844 663.333984375 c 0,23,24
 1246.55623557 503.260237714 1246.55623557 503.260237714 1209.48828125 342.423828125 c 1,25,26
 1262.23932689 269.669921875 1262.23932689 269.669921875 1368.50976562 269.669921875 c 2,27,-1
 1393.1015625 269.669921875 l 1,28,-1
 1393.1015625 0.4892578125 l 1,29,-1
 1299.34179688 0.4892578125 l 2,30,31
 1180.57041518 0.4892578125 1180.57041518 0.4892578125 1074.58300781 121.19921875 c 1,32,33
 942.393010098 -0.486517025185 942.393010098 -0.486517025185 743.20703125 -0.0947265625 c 6,34,-1
 344.034179688 0.6904296875 l 1,35,-1
 -13.048828125 -0.1748046875 l 1,36,-1
 -13.048828125 269.200195312 l 1,37,-1
 24.515625 269.200195312 l 1,12,13
EndSplineSet
EndChar

StartChar: uniFECA
Encoding: 65226 65226 215
Width: 1288
VWidth: 2593
GlyphClass: 2
Flags: W
AnchorPoint: "Anchor-10" 554.282 1388.27 basechar 0
AnchorPoint: "Anchor-7" 222.935 -721.024 basechar 0
LayerCount: 2
Fore
SplineSet
782.814453125 484.7734375 m 1,0,1
 963.250357377 268.700195311 963.250357377 268.700195311 1207.4453125 268.700195312 c 2,2,-1
 1308.79492188 268.700195312 l 1,3,-1
 1308.79492188 -0.48046875 l 1,4,-1
 1205.21679688 -0.48046875 l 2,5,6
 873 -0 873 -0 608.052734375 340.330078125 c 1,7,8
 301 144 301 144 300.408203125 -119.693359375 c 0,9,10
 300 -310 300 -310 416.954101562 -402.388671875 c 128,-1,11
 533.774601604 -494.821655905 533.774601604 -494.821655905 784.344726562 -494.651367188 c 2,12,-1
 1199.625 -494.369140625 l 1,13,-1
 1198.11035156 -757.831054688 l 1,14,-1
 801.520507812 -758.103515625 l 2,15,16
 396 -758 396 -758 217.415039062 -578.135742188 c 0,17,18
 57 -416 57 -416 51.8359375 -107.190429688 c 0,19,20
 46 260 46 260 417.920898438 506.330078125 c 1,21,22
 247 673 247 673 208.299804688 769.958984375 c 0,23,24
 157 902 157 902 244.903320312 1004.4296875 c 0,25,26
 313 1084 313 1084 439.5 1105.5 c 128,-1,27
 566 1127 566 1127 787.5 1112.5 c 0,28,29
 1042 1096 1042 1096 1090.18847656 904.666015625 c 0,30,31
 1121 779 1121 779 996.69921875 652.021484375 c 0,32,33
 920 573 920 573 782.814453125 484.7734375 c 1,0,1
712.10546875 884.809570312 m 0,34,35
 670.112304688 889.12109375 670.112304688 889.12109375 631.629882813 889.12109375 c 0,36,37
 551.426976144 889.12109375 551.426976144 889.12109375 506.788085938 880.452148438 c 0,38,39
 426.283975491 864.825121388 426.283975491 864.825121388 448.817382812 835.423828125 c 0,40,41
 511.3515625 749.700195312 511.3515625 749.700195312 620.805664062 650.897460938 c 1,42,43
 677.916015625 683.114257812 677.916015625 683.114257812 760.394042969 741.848144531 c 128,-1,44
 842.872070312 800.58203125 842.872070312 800.58203125 842.872070312 835.984285012 c 128,-1,45
 842.872070312 871.386538774 842.872070312 871.386538774 712.10546875 884.809570312 c 0,34,35
EndSplineSet
EndChar

StartChar: uniFECB
Encoding: 65227 65227 216
Width: 1167
VWidth: 2593
GlyphClass: 2
Flags: W
AnchorPoint: "Anchor-10" 394.602 1461.91 basechar 0
AnchorPoint: "Anchor-7" 545.228 -222.038 basechar 0
LayerCount: 2
Fore
SplineSet
1043.82519531 119.991210938 m 2,0,1
 488.326686109 -1.09223168406 488.326686109 -1.09223168406 374.755859375 -1.0859375 c 2,2,-1
 -12.9033203125 -1.064453125 l 5,3,-1
 -12.9033203125 268.219726562 l 5,4,-1
 224.6796875 268.288085938 l 1,5,6
 63 492 63 492 161.950195312 708.188476562 c 0,7,8
 276 957 276 957 602.791015625 957.416015625 c 0,9,10
 862.997152734 957.99999361 862.997152734 957.99999361 987.765625 821.39453125 c 2,11,-1
 1004.38964844 803.193359375 l 1,12,-1
 920.08984375 582.184570312 l 1,13,-1
 877.416992188 615.40625 l 2,14,15
 720 738 720 738 513.836914062 683.53515625 c 0,16,17
 440 664 440 664 406.18359375 620.288085938 c 0,18,19
 357 554 357 554 386.589355469 459.470703125 c 128,-1,20
 416 365 416 365 516.349609375 316.513671875 c 0,21,22
 573.771494387 289.109054395 573.771494387 289.109054395 729.21484375 323.229492188 c 2,23,-1
 1075.30761719 399.198242188 l 1,24,-1
 1075.30761719 126.853515625 l 1,25,-1
 1043.82519531 119.991210938 l 2,0,1
EndSplineSet
EndChar

StartChar: uniFECC
Encoding: 65228 65228 217
Width: 1104
VWidth: 2593
GlyphClass: 2
Flags: W
AnchorPoint: "Anchor-10" 505.677 1248.6 basechar 0
AnchorPoint: "Anchor-7" 456.382 -223.212 basechar 0
LayerCount: 2
Fore
SplineSet
729.958984375 613.883789062 m 0,0,1
 741.954740297 637.184124182 741.954740297 637.184124182 691.122687902 652.914517435 c 128,-1,2
 640.290635507 668.644910688 640.290635507 668.644910688 547.837700566 668.787787375 c 0,3,4
 348.562863461 669.095746539 348.562863461 669.095746539 362.661132812 628.791992188 c 0,5,6
 363.345703125 626.834960938 363.345703125 626.834960938 363.647949219 625.890136719 c 0,7,8
 378 578 378 578 560.908203125 473.370117188 c 1,9,10
 702.869015237 561.230046301 702.869015237 561.230046301 729.958984375 613.883789062 c 0,0,1
551.602539062 93.4326171875 m 1,11,12
 422.909565015 -1.06640625 422.909565015 -1.06640625 52.9580078125 -1.06640625 c 2,13,-1
 -9.73046875 -1.06640625 l 5,14,-1
 -9.73046875 268.23046875 l 5,15,-1
 25.328125 268.23046875 l 2,16,17
 270 268 270 268 368.594726562 302.499023438 c 1,18,19
 74 484 74 484 82.5283203125 652.154296875 c 0,20,21
 90 798 90 798 243.197265625 870.985351562 c 0,22,23
 340 917 340 917 542.14453125 917.323242188 c 0,24,25
 833 917 833 917 937.756835938 824.04296875 c 0,26,27
 1018 752 1018 752 1001.72671013 608.433443787 c 0,28,29
 985 464 985 464 739.130859375 299.159179688 c 1,30,31
 843.305304458 263.553865876 843.305304458 263.553865876 1074.9375 268.228515625 c 2,32,-1
 1112.6328125 268.989257812 l 1,33,-1
 1112.6328125 -0.48046875 l 1,34,-1
 1047.61230469 -0.48046875 l 2,35,36
 675 -0 675 -0 551.602539062 93.4326171875 c 1,11,12
EndSplineSet
EndChar

StartChar: uniFEDA
Encoding: 65242 65242 231
Width: 2039
VWidth: 2593
GlyphClass: 2
Flags: W
AnchorPoint: "Anchor-10" 637.624 1559.46 basechar 0
AnchorPoint: "Anchor-7" 544.902 -273.681 basechar 0
LayerCount: 2
Fore
SplineSet
739.555664062 813.330078125 m 2,0,1
 801.751953125 805.491210938 801.751953125 805.491210938 854.663574219 805.491210938 c 0,2,3
 972.395459264 805.491210938 972.395459264 805.491210938 1009.99609375 843.94921875 c 0,4,5
 1032.58045964 867.051351145 1032.58045964 867.051351145 1026.30821533 879.140654944 c 128,-1,6
 1020.03597102 891.229958743 1020.03597102 891.229958743 970.965820312 898.994140625 c 0,7,8
 864.276367188 915.874023438 864.276367188 915.874023438 818.487304688 975.76171875 c 0,9,10
 751.124023438 1063.86523438 751.124023438 1063.86523438 780.751953125 1156.98876953 c 0,11,12
 837.277821329 1334.65520558 837.277821329 1334.65520558 1128.52148438 1356.29980469 c 2,13,-1
 1200.75488281 1361.66699219 l 1,14,-1
 1200.75488281 1181.28027344 l 1,15,-1
 1138.95703125 1176.25292969 l 2,16,17
 996.47608063 1164.66383351 996.47608063 1164.66383351 959.913085938 1116.46582031 c 0,18,19
 959.6328125 1110.79492188 959.6328125 1110.79492188 959.6328125 1101.79204858 c 128,-1,20
 959.6328125 1092.78917528 959.6328125 1092.78917528 966.754045515 1082.97152926 c 128,-1,21
 973.87527853 1073.15388325 973.87527853 1073.15388325 1026.77650645 1065.04276194 c 128,-1,22
 1079.67773438 1056.93164062 1079.67773438 1056.93164062 1098.51855469 1050.29199219 c 0,23,24
 1211.64941406 1010.41588584 1211.64941406 1010.41588584 1211.64941406 891.016601562 c 0,25,26
 1211.64941406 822.29520767 1211.64941406 822.29520767 1182.203125 775.510742188 c 0,27,28
 1055.48339844 574.1875 1055.48339844 574.1875 720.762695312 626.504882812 c 2,29,-1
 663.897460938 635.393554688 l 1,30,-1
 663.897460938 822.864257812 l 1,31,-1
 739.555664062 813.330078125 l 2,0,1
1690.03515625 106.500976562 m 1,32,33
 1579.43979662 -1.06640625 1579.43979662 -1.06640625 1395.66992188 -1.06640625 c 2,34,-1
 493.983398438 -1.06640625 l 2,35,36
 306 -1 306 -1 199.5 108 c 128,-1,37
 93 217 93 217 85.740234375 415.0546875 c 0,38,39
 84.8274920346 438.415111516 84.8274920346 438.415111516 83.4137460173 458.207555758 c 128,-1,40
 82 478 82 478 82.2666015625 478.444335938 c 2,41,-1
 82.1953125 479.626953125 l 1,42,-1
 82.1875 735.689453125 l 1,43,-1
 340.944335938 735.689453125 l 1,44,-1
 340.944335938 491.5703125 l 2,45,46
 341 371 341 371 379.413691702 319.615234375 c 128,-1,47
 417.827383404 268.23046875 417.827383404 268.23046875 498.510742188 268.23046875 c 2,48,-1
 1402.7578125 268.23046875 l 2,49,50
 1487 268 1487 268 1523.72802735 313.802541416 c 128,-1,51
 1560.45605469 359.605082832 1560.45605469 359.605082832 1560.45605469 456.446289062 c 2,52,-1
 1560.45605469 1387.18847656 l 1,53,-1
 1819.21289062 1387.18847656 l 1,54,-1
 1819.21289062 431.0625 l 2,55,56
 1819.21289062 344.754629901 1819.21289062 344.754629901 1860.5234375 306.416992188 c 128,-1,57
 1901.87980558 268.111328125 1901.87980558 268.111328125 1998.14257812 268.111328125 c 2,58,-1
 2049.734375 268.111328125 l 1,59,-1
 2049.734375 -1.06640625 l 1,60,-1
 1987.75488281 -1.06640625 l 2,61,62
 1802 -1 1802 -1 1690.03515625 106.500976562 c 1,32,33
EndSplineSet
EndChar

StartChar: uniFEDB
Encoding: 65243 65243 232
Width: 928
VWidth: 2593
GlyphClass: 2
Flags: W
AnchorPoint: "Anchor-10" 296.18 1506.67 basechar 0
AnchorPoint: "Anchor-7" 421.179 -234.565 basechar 0
LayerCount: 2
Fore
SplineSet
342.8984375 269.227539062 m 2,0,1
 512.806893134 268.252923377 512.806893134 268.252923377 510.708984375 362.985351562 c 4,2,3
 510 395 510 395 486.238593179 427.093751698 c 128,-1,4
 462.477186358 459.187503397 462.477186358 459.187503397 413.575195312 514.94140625 c 2,5,-1
 142.794921875 823.662109375 l 1,6,7
 75.2325572933 902.679394871 75.2325572933 902.679394871 61.4970703125 921.615234375 c 0,8,9
 26 969 26 969 32 1041.5 c 0,10,11
 44.2391186737 1189.38935064 44.2391186737 1189.38935064 175.544921875 1237.37597656 c 2,12,-1
 876.5 1493.54492188 l 1,13,-1
 876.5 1223.2734375 l 1,14,-1
 296.086914062 1026.44140625 l 1,15,-1
 588.904296875 695.997070312 l 2,16,17
 847.959992744 404.539032325 847.959992744 404.539032325 701.119140625 168.75 c 0,18,19
 596.367524406 0.253637217732 596.367524406 0.253637217732 391.446289062 -0.0966796875 c 2,20,-1
 -13.310546875 -0.0966796875 l 1,21,-1
 -13.310546875 269.197265625 l 1,22,-1
 342.8984375 269.227539062 l 2,0,1
EndSplineSet
EndChar

StartChar: uniFEDC
Encoding: 65244 65244 233
Width: 1066
VWidth: 2593
GlyphClass: 2
Flags: W
AnchorPoint: "Anchor-10" 293.27 1441.68 basechar 0
AnchorPoint: "Anchor-7" 307.814 -291.873 basechar 0
LayerCount: 2
Fore
SplineSet
339.98828125 268.2578125 m 1,0,1
 508.853467258 267.196273089 508.853467258 267.196273089 507.799804688 362.015625 c 0,2,3
 509.38250738 401.421061873 509.38250738 401.421061873 410.665039062 513.970703125 c 2,4,-1
 139.884765625 822.692382812 l 2,5,6
 85 885 85 885 54 927 c 128,-1,7
 23 969 23 969 29 1041 c 0,8,9
 41.3840185907 1189.60822309 41.3840185907 1189.60822309 172.689453125 1237.39648438 c 2,10,-1
 873.58984375 1492.48730469 l 1,11,-1
 873.58984375 1222.30371094 l 1,12,-1
 293.086914062 1025.44140625 l 1,13,-1
 840.421875 406.079101562 l 2,14,15
 962.265902618 268.700195311 962.265902618 268.700195311 1046.55273438 268.700195312 c 2,16,-1
 1077.06835938 268.700195312 l 1,17,-1
 1077.06835938 -0.48046875 l 1,18,-1
 1056.40332031 -0.48046875 l 2,19,20
 861 -0 861 -0 706.728515625 181.495117188 c 1,21,22
 610.442762375 -1.06640625 610.442762375 -1.06640625 388.515625 -1.06640625 c 2,23,-1
 -13.310546875 -1.06640625 l 1,24,-1
 -13.310546875 268.227539062 l 1,25,-1
 339.98828125 268.2578125 l 1,0,1
EndSplineSet
EndChar

StartChar: uniFEDE
Encoding: 65246 65246 235
Width: 1587
VWidth: 2593
GlyphClass: 2
Flags: W
AnchorPoint: "Anchor-10" 509.754 1141.62 basechar 0
AnchorPoint: "Anchor-7" 288.91 -637.293 basechar 0
LayerCount: 2
Fore
SplineSet
1358.6640625 39.3896484375 m 1,0,1
 1326.96227629 -467.36261362 1326.96227629 -467.36261362 728.985351562 -485.651367188 c 1,2,-1
 701.2109375 -485.651367188 l 2,3,4
 384 -486 384 -486 217.60276135 -342.088695753 c 128,-1,5
 51.2055226993 -198.177391507 51.2055226993 -198.177391507 51.12109375 83.2646484375 c 2,6,-1
 50.98828125 525.9921875 l 1,7,-1
 309.877929688 526.041015625 l 1,8,-1
 309.877929688 84.44921875 l 2,9,10
 309.877929688 -67.9032746176 309.877929688 -67.9032746176 403.895507812 -142.400390625 c 0,11,12
 498.453253864 -216.354492188 498.453253864 -216.354492188 703.356445312 -216.354492188 c 2,13,-1
 728.217773438 -216.354492188 l 1,14,-1
 755.538085938 -215.7734375 l 2,15,16
 995.594852995 -210.29202841 995.594852995 -210.29202841 1068.86523438 -78.8828125 c 0,17,18
 1105.95526593 -13.0793651604 1105.95526593 -13.0793651604 1107.36914062 88.9697265625 c 2,19,-1
 1108.03710938 137.181640625 l 1,20,21
 1108 426 1108 426 1107.37695312 473.494140625 c 2,22,-1
 1107.37695312 1386.63671875 l 1,23,-1
 1361.29882812 1386.63671875 l 1,24,-1
 1361.29882812 473.741210938 l 1,25,26
 1359.92399217 295.502263823 1359.92399217 295.502263823 1483.93164062 273.595703125 c 0,27,28
 1519.15724317 268.700195312 1519.15724317 268.700195312 1540.24902344 268.700195312 c 2,29,-1
 1605.79492188 268.700195312 l 1,30,-1
 1605.79492188 -0.48046875 l 1,31,-1
 1556.79394531 -0.48046875 l 1,32,33
 1431.5995014 0.597641386105 1431.5995014 0.597641386105 1358.6640625 39.3896484375 c 1,0,1
EndSplineSet
EndChar

StartChar: uniFEDF
Encoding: 65247 65247 236
Width: 630
VWidth: 2553
GlyphClass: 2
Flags: W
AnchorPoint: "Anchor-10" 336.682 1491.64 basechar 0
AnchorPoint: "Anchor-7" 181.01 -202.415 basechar 0
LayerCount: 2
Fore
SplineSet
96.9697265625 269.200195312 m 2,0,1
 173.172314501 269.200195312 173.172314501 269.200195312 207.063803579 308.575391178 c 128,-1,2
 240.95703125 347.950082026 240.95703125 347.950082026 240.95703125 442.866210938 c 2,3,-1
 240.95703125 1387.15820312 l 1,4,-1
 499.71484375 1387.15820312 l 1,5,-1
 499.71484375 434.967773438 l 2,6,7
 500 224 500 224 391.453205109 111.951660156 c 128,-1,8
 282.906341523 -0.0966796875 282.906341523 -0.0966796875 76.173828125 -0.0966796875 c 2,9,-1
 -12.876953125 -0.0966796875 l 1,10,-1
 -12.876953125 269.200195312 l 1,11,-1
 96.9697265625 269.200195312 l 2,0,1
EndSplineSet
EndChar

StartChar: uniFEE0
Encoding: 65248 65248 237
Width: 773
VWidth: 2593
GlyphClass: 2
Flags: W
AnchorPoint: "Anchor-10" 415.225 1519.2 basechar 0
AnchorPoint: "Anchor-7" 291.065 -252.554 basechar 0
LayerCount: 2
Fore
SplineSet
574.02734375 504.258789062 m 2,0,1
 574.02734375 376.964091131 574.02734375 376.964091131 615.426316585 322.597360247 c 128,-1,2
 656.824507361 268.23046875 656.824507361 268.23046875 743.973632812 268.23046875 c 2,3,-1
 790.518554688 268.23046875 l 1,4,-1
 790.518554688 -1.06640625 l 1,5,-1
 734.044921875 -1.06640625 l 2,6,7
 571 -1 571 -1 446.168945312 113.23046875 c 1,8,9
 317.925490816 -1.06640625 317.925490816 -1.06640625 99.7177734375 -1.06640625 c 2,10,-1
 -14.900390625 -1.06640625 l 5,11,-1
 -14.900390625 268.23046875 l 5,12,-1
 87.8544921875 268.23046875 l 2,13,14
 209 268 209 268 263.95703125 324.504882812 c 128,-1,15
 318.931640625 380.929837162 318.931640625 380.929837162 318.931640625 505.43359375 c 2,16,-1
 318.931640625 1387.72753906 l 1,17,-1
 574.02734375 1387.72753906 l 1,18,-1
 574.02734375 504.258789062 l 2,0,1
EndSplineSet
EndChar

StartChar: uniFEE2
Encoding: 65250 65250 239
Width: 1360
VWidth: 2593
GlyphClass: 2
Flags: W
AnchorPoint: "Anchor-10" 589.565 1194.03 basechar 0
LayerCount: 2
Fore
SplineSet
921.65234375 565.506835938 m 0,0,1
 889 579 889 579 819.827636719 579.059082031 c 0,2,3
 751 579 751 579 716.018554688 574.709960938 c 1,4,5
 711 537 711 537 711.33203125 418.492601761 c 0,6,7
 712 307 712 307 756.698242188 261.684570312 c 4,8,9
 795 223 795 223 858.740234375 222.890625 c 0,10,11
 869 223 869 223 879.649414062 223.673828125 c 0,12,13
 983 231 983 231 982.97265625 451.822265625 c 0,14,15
 983 540 983 540 921.65234375 565.506835938 c 0,0,1
1230 346 m 0,16,17
 1227 267 1227 267 1321.3671875 267.079101562 c 2,18,-1
 1372.01464844 267.079101562 l 1,19,-1
 1372.01464844 -1.06640625 l 1,20,-1
 1330.15429688 -1.06640625 l 2,21,22
 1189 -1 1189 -1 1114.96582031 78.009765625 c 1,23,24
 1024 -25 1024 -25 829.946289062 -15.9609375 c 0,25,26
 679 -9 679 -9 583.473632812 82.7294921875 c 0,27,28
 453 207 453 207 458.90234375 466.270507812 c 0,29,30
 460 511 460 511 461.65625 544.856445312 c 1,31,32
 305.010742188 496.00335017 305.010742188 496.00335017 305.010742188 201.032226562 c 2,33,-1
 305.010742188 -496.416992188 l 1,34,-1
 50.94921875 -496.416992188 l 1,35,-1
 50.94921875 196.595703125 l 2,36,37
 51 481 51 481 161.132847714 641.693872432 c 0,38,39
 271 802 271 802 491.245117188 824.525390625 c 1,40,-1
 928.400390625 824.5390625 l 2,41,42
 1063 825 1063 825 1147.53507499 735.046009951 c 0,43,44
 1243 633 1243 633 1231.5 393.5 c 0,45,46
 1231 383 1231 383 1230 346 c 0,16,17
EndSplineSet
EndChar

StartChar: uniFEE3
Encoding: 65251 65251 240
Width: 995
VWidth: 2593
GlyphClass: 2
Flags: W
AnchorPoint: "Anchor-10" 401.346 1104.25 basechar 0
AnchorPoint: "Anchor-7" 408.389 -212.648 basechar 0
LayerCount: 2
Fore
SplineSet
64.7763671875 268.228515625 m 2,0,1
 116.066258319 268.228515625 116.066258319 268.228515625 125.118164062 299.447265625 c 1,2,-1
 125.112304688 302.17578125 l 1,3,4
 122 565 122 565 163.990994182 667.003341233 c 0,5,6
 247 872 247 872 492.44140625 887.879882812 c 0,7,8
 498 888 498 888 503.264648438 888.006835938 c 0,9,10
 663 888 663 888 761.625 816.798828125 c 0,11,12
 860 746 860 746 886.986328125 607.9453125 c 0,13,14
 905 518 905 518 904.510742188 390.258465499 c 0,15,16
 905 263 905 263 848.876953125 149.1953125 c 0,17,18
 769 -15 769 -15 524.69140625 -13.58984375 c 0,19,20
 328 -13 328 -13 241.817382812 67.5234375 c 1,21,22
 167.928463373 -1.06640625 167.928463373 -1.06640625 47.23046875 -1.06640625 c 2,23,-1
 -12.9033203125 -1.06640625 l 5,24,-1
 -12.9033203125 268.228515625 l 5,25,-1
 64.7763671875 268.228515625 l 2,0,1
519.029296875 636.109375 m 0,26,27
 450.508789062 636.19140625 450.508789062 636.19140625 416.962890625 591.721679688 c 128,-1,28
 383.416992188 547.250976562 383.416992188 547.250976562 381.678710938 440.342285156 c 128,-1,29
 379.940429688 333.43359375 379.940429688 333.43359375 413.630859375 288.881835938 c 128,-1,30
 447.322265625 244.330078125 447.322265625 244.330078125 517.106933594 243.950683594 c 128,-1,31
 586.891601562 243.571289062 586.891601562 243.571289062 618.795898438 287.749023438 c 128,-1,32
 650.700195312 331.92578125 650.700195312 331.92578125 650.700195312 439.733398438 c 0,33,34
 650.700195312 609.809010235 650.700195312 609.809010235 558.602539062 631.909179688 c 0,35,36
 540.989257812 636.135742188 540.989257812 636.135742188 519.029296875 636.109375 c 0,26,27
EndSplineSet
EndChar

StartChar: uniFEE4
Encoding: 65252 65252 241
Width: 1057
VWidth: 2593
GlyphClass: 2
Flags: W
AnchorPoint: "Anchor-10" 516.487 1200.49 basechar 0
AnchorPoint: "Anchor-7" 495.36 -234.948 basechar 0
LayerCount: 2
Fore
SplineSet
402.006835937 367.355957031 m 0,0,1
 417.161148001 226.828273764 417.161148001 226.828273764 563.532226562 245.041015625 c 0,2,3
 675.219451902 258.458340191 675.219451902 258.458340191 662.055440556 441.563245519 c 128,-1,4
 648.89142921 624.668150848 648.89142921 624.668150848 586.793594217 635.996705194 c 0,5,6
 491.672847191 653.349654009 491.672847191 653.349654009 452.112302502 614.983420754 c 0,7,8
 382.575410103 547.545809506 382.575410103 547.545809506 402.006835937 367.355957031 c 0,0,1
147.345703125 297.21875 m 1,9,10
 146 520 146 520 178.927917484 636.827779462 c 0,11,12
 212 754 212 754 306.099609375 822.53125 c 128,-1,13
 400 891 400 891 541.724121094 891.18359375 c 0,14,15
 683 891 683 891 772.735351562 820.107421875 c 0,16,17
 862 749 862 749 886.846679688 622.640625 c 0,18,19
 909.952106491 506.310627409 909.952106491 506.310627409 904.614257812 315.013671875 c 0,20,21
 904 293 904 293 920.315781218 281.174510748 c 0,22,23
 937.517608946 268.359375 937.517608946 268.359375 1002.97363281 268.359375 c 2,24,-1
 1065.24023438 268.359375 l 1,25,-1
 1065.24023438 -0.8203125 l 1,26,-1
 978.501953125 -0.8203125 l 2,27,28
 867 -1 867 -1 804.577148438 63.1865234375 c 1,29,30
 737 -11 737 -11 541.974046984 -13.4084029823 c 128,-1,31
 347 -16 347 -16 253.465820312 69.3720703125 c 1,32,33
 160.912745094 -1.06640625 160.912745094 -1.06640625 53.826171875 -1.06640625 c 2,34,-1
 -8.55859375 -1.06640625 l 5,35,-1
 -8.55859375 268.228515625 l 5,36,-1
 61.3603515625 268.228515625 l 2,37,38
 143 268 143 268 147.345703125 297.21875 c 1,9,10
EndSplineSet
EndChar

StartChar: uniFEEA
Encoding: 65258 65258 247
Width: 1078
VWidth: 2593
GlyphClass: 2
Flags: W
AnchorPoint: "Anchor-10" 643.183 1300.91 basechar 0
AnchorPoint: "Anchor-7" 323.281 -234.565 basechar 0
LayerCount: 2
Fore
SplineSet
632.491210938 478.459960938 m 1,0,-1
 594.860351562 683.260742188 l 1,1,2
 434.208007812 658.139648438 434.208007812 658.139648438 362.517578125 615.116210938 c 128,-1,3
 290.828125 572.092773438 290.828125 572.092773438 291.428710938 521.4453125 c 0,4,5
 291.443359375 520.518554688 291.443359375 520.518554688 291.5234375 519.575195312 c 0,6,7
 292.680664062 505.890625 292.680664062 505.890625 321.875976562 493.828125 c 128,-1,8
 351.0703125 481.765625 351.0703125 481.765625 426.748046875 473.728515625 c 128,-1,9
 502.42578125 465.69140625 502.42578125 465.69140625 632.491210938 478.459960938 c 1,0,-1
709.868164062 216.951171875 m 1,10,11
 694 215 694 215 679.150390625 214.15625 c 0,12,13
 76 163 76 163 50.41796875 469.1328125 c 0,14,15
 36 647 36 647 162.311523438 760.669921875 c 0,16,17
 289 874 289 874 540.028320312 923.301757812 c 1,18,-1
 521.580078125 1016.1953125 l 1,19,-1
 780.381835938 1065.95898438 l 1,20,-1
 886.598632812 459.71484375 l 2,21,22
 899 391 899 391 921.879882812 348.51953125 c 0,23,24
 945 306 945 306 978.383789062 287.637695312 c 0,25,26
 1010.50282428 269.284098283 1010.50282428 269.284098283 1058.08789062 269.223632812 c 2,27,-1
 1094.97753906 269.176757812 l 1,28,-1
 1096.6484375 -0.0966796875 l 1,29,-1
 1037.00390625 -0.0966796875 l 2,30,31
 989 -0 989 -0 946.815429688 8.798828125 c 0,32,33
 904 18 904 18 868.194335938 35.314453125 c 0,34,35
 832 53 832 53 802.055664062 78.9853515625 c 128,-1,36
 772 105 772 105 748.975585938 139.685546875 c 0,37,38
 726 174 726 174 709.868164062 216.951171875 c 1,10,11
EndSplineSet
EndChar

StartChar: uniFEEB
Encoding: 65259 65259 248
Width: 1259
VWidth: 2593
GlyphClass: 2
Flags: W
AnchorPoint: "Anchor-10" 572.837 1482.83 basechar 0
AnchorPoint: "Anchor-7" 518.543 -239.197 basechar 0
LayerCount: 2
Fore
SplineSet
426.076171875 322.75390625 m 1,0,1
 505.801968408 360.251997714 505.801968408 360.251997714 549.216087909 472.81909901 c 128,-1,2
 592.630207409 585.386200305 592.630207409 585.386200305 511.868164062 625.67578125 c 0,3,4
 459.809744108 651.648251805 459.809744108 651.648251805 396.058508227 617.260312129 c 128,-1,5
 332.307272345 582.872372453 332.307272345 582.872372453 308.373362735 513.038725289 c 128,-1,6
 284.439453125 443.205078125 284.439453125 443.205078125 311.052734375 399.685546875 c 128,-1,7
 337.665039062 356.166015625 337.665039062 356.166015625 426.076171875 322.75390625 c 1,0,1
789.337890625 500.512695312 m 1,8,9
 772.415039062 340.653320312 772.415039062 340.653320312 655.41796875 234.33203125 c 1,10,11
 752.637101234 197.715521609 752.637101234 197.715521609 813.818550617 194.357760805 c 132,-1,12
 875 191 875 191 906.778320312 245.772460938 c 0,13,14
 927.572123839 277.936323698 927.572123839 277.936323698 890.437299353 348.057335667 c 0,15,16
 851.133789062 422.2734375 851.133789062 422.2734375 789.337890625 500.512695312 c 1,8,9
558.33984375 863.314453125 m 1,17,-1
 685.661132812 1007.00195312 l 1,18,-1
 715.620117188 973.606445312 l 2,19,20
 945 718 945 718 1057 544.5 c 128,-1,21
 1169 371 1169 371 1167.45996094 259.477539062 c 0,22,23
 1166 119 1166 119 1034.99804688 24.560546875 c 0,24,25
 947.768125554 -38.0109583651 947.768125554 -38.0109583651 807.627929688 -37.9892578125 c 0,26,27
 765 -38 765 -38 717.194335938 -32.189453125 c 0,28,29
 534 -10 534 -10 429.75390625 66.1474609375 c 1,30,31
 200.665658275 -0.0966796875 200.665658275 -0.0966796875 16.302734375 -0.0966796875 c 2,32,-1
 -12.951171875 -0.0966796875 l 1,33,-1
 -12.951171875 269.388671875 l 1,34,-1
 120.719726562 269.125976562 l 1,35,36
 58 356 58 356 59.5 481 c 128,-1,37
 61 606 61 606 149.899414062 717.333984375 c 0,38,39
 239 828 239 828 359.5 858 c 128,-1,40
 480 888 480 888 558.33984375 863.314453125 c 1,17,-1
EndSplineSet
EndChar

StartChar: uniFEEC
Encoding: 65260 65260 249
Width: 977
VWidth: 2593
GlyphClass: 2
Flags: W
AnchorPoint: "Anchor-7" 142.183 -682.715 basechar 0
AnchorPoint: "Anchor-10" 415.514 1216.02 basechar 0
LayerCount: 2
Fore
SplineSet
516.717773438 -329.096679688 m 0,0,1
 569 -329 569 -329 592.808105469 -302.204101563 c 0,2,3
 615 -277 615 -277 615 -204 c 4,4,5
 615 -128 615 -128 560.081054688 -63.4130859375 c 0,6,7
 507 -1 507 -1 416.989257812 0.4443359375 c 2,8,-1
 374.552734375 0.9921875 l 1,9,10
 368 -67 368 -67 394.48046875 -162.775390625 c 0,11,12
 439 -329 439 -329 516.717773438 -329.096679688 c 0,0,1
985.715820312 268.66015625 m 1,13,-1
 985.715820312 -0.4208984375 l 1,14,-1
 782.396484375 -0.9287109375 l 1,15,16
 909 -160 909 -160 836.90690216 -363.113530521 c 128,-1,17
 764.813804321 -566.227061042 764.813804321 -566.227061042 534.140386325 -569.198813786 c 128,-1,18
 303.466968329 -572.17056653 303.466968329 -572.17056653 200.93359375 -343.190429688 c 0,19,20
 140 -207 140 -207 143.8359375 -1.06640625 c 1,21,-1
 -49.1865234375 -1.06640625 l 1,22,-1
 -49.1865234375 268.219726562 l 1,23,-1
 140.71484375 268.28515625 l 1,24,25
 135 472 135 472 194 602 c 0,26,27
 310.449775696 858.584251533 310.449775696 858.584251533 567.288085938 835.793945312 c 0,28,29
 693 824 693 824 769.512695312 738.340820312 c 0,30,31
 869 626 869 626 857.859375 474.763671875 c 0,32,33
 850 360 850 360 785.430664062 269.380859375 c 1,34,-1
 985.715820312 268.66015625 l 1,13,-1
614 482 m 0,35,36
 614 547 614 547 592.805664062 570.970214844 c 0,37,38
 569 599 569 599 516.717773438 598.630859375 c 0,39,40
 475 599 475 599 440.33203125 548.139648438 c 0,41,42
 405 498 405 498 382.520507812 381.276367188 c 0,43,44
 370 318 370 318 374.581054688 268.541992188 c 1,45,-1
 416.98828125 269.08984375 l 2,46,47
 541.853038304 270.702949764 541.853038304 270.702949764 589 366 c 0,48,49
 614 416 614 416 614 482 c 0,35,36
EndSplineSet
EndChar

StartChar: uniFEEE
Encoding: 65262 65262 251
Width: 951
VWidth: 2593
GlyphClass: 2
Flags: W
AnchorPoint: "Anchor-10" 388.37 1277.36 basechar 0
AnchorPoint: "Anchor-7" 430.055 -648.957 basechar 0
LayerCount: 2
Fore
SplineSet
845.65234375 331.205078125 m 1,0,-1
 844.091796875 266.879882812 l 1,1,-1
 961.352539062 269.20703125 l 1,2,-1
 961.352539062 -0.48046875 l 1,3,-1
 842.66015625 -0.48046875 l 1,4,5
 830 -261 830 -261 688.741455315 -392.274767216 c 128,-1,6
 547.482910631 -523.549534432 547.482910631 -523.549534432 262.734375 -523.412109375 c 2,7,-1
 117.044921875 -523.341796875 l 1,8,-1
 116.899414062 -255.166992188 l 1,9,-1
 256.940429688 -255.265625 l 2,10,11
 413 -255 413 -255 489.5 -193 c 128,-1,12
 566 -131 566 -131 577.565429688 0.0361328125 c 1,13,14
 572 0 572 0 533.810058594 0 c 2,15,16
 425.240234375 0 l 2,17,18
 255 0 255 0 163 102.5 c 128,-1,19
 71 205 71 205 91.205078125 456.94140625 c 0,20,21
 105.217689247 622.039690208 105.217689247 622.039690208 180.25390625 703.740234375 c 0,22,23
 285 817 285 817 478.291015625 813.583007812 c 0,24,25
 629 811 629 811 721 731 c 128,-1,26
 813 651 813 651 836.854492188 501.227539062 c 0,27,28
 847 437 847 437 845.65234375 331.205078125 c 1,0,-1
532.729492188 545.201171875 m 0,29,30
 501.79306609 560.622817965 501.79306609 560.622817965 454.606445313 559.122070312 c 0,31,32
 334.594305719 553.364345809 334.594305719 553.364345809 329.799804688 428.043945312 c 0,33,34
 327.059054789 356.405234054 327.059054789 356.405234054 336.0078125 331.852539062 c 4,35,36
 357 277 357 277 437.676757812 268.53125 c 0,37,38
 494.473632812 263.0703125 494.473632812 263.0703125 590.73828125 270.234375 c 1,39,40
 595.07073478 468.970008688 595.07073478 468.970008688 567.786132812 513.65625 c 0,41,42
 555.436523438 533.880859375 555.436523438 533.880859375 532.729492188 545.201171875 c 0,29,30
EndSplineSet
EndChar

StartChar: uniFEF0
Encoding: 65264 65264 253
Width: 1466
VWidth: 2593
GlyphClass: 2
Flags: W
AnchorPoint: "Anchor-10" 244.973 741.354 basechar 0
AnchorPoint: "Anchor-7" 210.008 -633.278 basechar 0
LayerCount: 2
Fore
SplineSet
747.252929688 -527.177734375 m 2,0,1
 292.964597326 -527.177734375 292.964597326 -527.177734375 131.66015625 -292.82421875 c 0,2,3
 50.3488208267 -174.507571429 50.3488208267 -174.507571429 50.2431640625 0.6455078125 c 2,4,-1
 49.9755859375 444.224609375 l 1,5,-1
 309.000976562 442.77734375 l 1,6,-1
 309.000976562 1.841796875 l 2,7,8
 309 -127 309 -127 413.815429688 -192.428710938 c 128,-1,9
 518.808883497 -257.880859375 518.808883497 -257.880859375 749.427734375 -257.880859375 c 2,10,-1
 790.775390625 -257.880859375 l 1,11,-1
 824.01953125 -257.298828125 l 2,12,13
 1002 -254 1002 -254 1080.65283203 -201.898079012 c 128,-1,14
 1159.30566406 -149.796158024 1159.30566406 -149.796158024 1159.30566406 -50.384765625 c 2,15,-1
 1159.30566406 -0.1943359375 l 1,16,-1
 947.477539062 -0.2578125 l 2,17,18
 851.19335578 0.300295401783 851.19335578 0.300295401783 822 174.947265625 c 0,19,20
 809.437845339 250.541012716 809.437845339 250.541012716 873.270507812 268.2265625 c 1,21,-1
 1477.68261719 268.724609375 l 1,22,-1
 1477.68261719 -0.5830078125 l 1,23,-1
 1415.71484375 -0.2900390625 l 1,24,-1
 1415.71484375 -46.8369140625 l 2,25,26
 1416 -278 1416 -278 1262.14758597 -398.883725769 c 128,-1,27
 1108.29517194 -519.767451537 1108.29517194 -519.767451537 816.815429688 -526.583007812 c 2,28,-1
 791.380859375 -527.177734375 l 1,29,-1
 747.252929688 -527.177734375 l 2,0,1
EndSplineSet
EndChar

StartChar: uniFEFB
Encoding: 65275 65275 264
Width: 1198
VWidth: 2593
GlyphClass: 3
Flags: W
AnchorPoint: "Anchor-9" 910.412 1576.27 baselig 0
AnchorPoint: "Anchor-6" 816.517 -224.566 baselig 0
AnchorPoint: "Anchor-6" 156.087 -276.797 baselig 1
AnchorPoint: "Anchor-9" 168.411 1579.19 baselig 1
LayerCount: 2
Fore
SplineSet
133.5859375 345 m 1,0,-1
 133.5859375 1388.69726562 l 1,1,-1
 388.681640625 1388.69726562 l 1,2,-1
 388.681640625 345 l 5,3,-1
 133.5859375 345 l 1,0,-1
50.650390625 269.200195312 m 1,4,-1
 50.650390625 -0.0966796875 l 1,5,-1
 645.16796875 -0.0966796875 l 2,6,7
 850.905467791 -0.0966796875 850.905467791 -0.0966796875 960.061523438 111.5390625 c 0,8,9
 1069 223 1069 223 1068.70898438 433.971679688 c 2,10,-1
 1068.70898438 1388.15820312 l 1,11,-1
 809.951171875 1388.15820312 l 1,12,-1
 809.951171875 451.596679688 l 2,13,14
 809.951171875 384.884842781 809.951171875 384.884842781 793.06640625 345.063476562 c 0,15,16
 776 305 776 305 741.999911772 287.120472286 c 0,17,18
 707 269 707 269 652.358398438 269.200195312 c 2,19,-1
 50.650390625 269.200195312 l 1,4,-1
EndSplineSet
LCarets2: 1 0
Ligature2: "'rlig' Required Ligatures in Arabic lookup 16 subtable" uniFEDF uniFE8E
EndChar

StartChar: arabic_dot
Encoding: 65536 -1 265
Width: 204
VWidth: 2629
GlyphClass: 2
Flags: W
LayerCount: 2
Fore
SplineSet
-35.5 89 m 0,0,1
 -35.5 117.410441763 -35.5 117.410441763 -25.4675955869 141.879760918 c 128,-1,2
 -15.4351911737 166.349080074 -15.4351911737 166.349080074 4.35786437625 186.142135624 c 0,3,4
 17.5451676595 199.329438907 17.5451676595 199.329438907 32.8539754747 208.205877973 c 128,-1,5
 48.1627832899 217.082317039 48.1627832899 217.082317039 65.3710503066 221.54115852 c 128,-1,6
 82.5793173233 226 82.5793173233 226 101.5 226 c 128,-1,7
 120.42064783 226 120.42064783 226 137.628863662 221.541192775 c 128,-1,8
 154.837079495 217.08238555 154.837079495 217.08238555 170.145929025 208.205939121 c 128,-1,9
 185.454778555 199.329492693 185.454778555 199.329492693 198.642135624 186.142135624 c 0,10,11
 238.5 146.284271248 238.5 146.284271248 238.5 89.0000000001 c 128,-1,12
 238.5 31.7157287526 238.5 31.7157287526 198.642135624 -8.14213562372 c 128,-1,13
 158.784271248 -48 158.784271248 -48 101.5 -48 c 128,-1,14
 44.2157287526 -48 44.2157287526 -48 4.35786437623 -8.14213562373 c 128,-1,15
 -35.5 31.7157287526 -35.5 31.7157287526 -35.5 89 c 0,0,1
EndSplineSet
EndChar

StartChar: arabic_2dots
Encoding: 65537 -1 266
Width: 527
VWidth: 2629
GlyphClass: 2
Flags: W
LayerCount: 2
Fore
SplineSet
288.5 89 m 0,0,1
 288.5 146.284713749 288.5 146.284713749 328.357643126 186.142356874 c 128,-1,2
 368.215286251 226 368.215286251 226 425.5 226 c 128,-1,3
 482.784713749 226 482.784713749 226 522.642356874 186.142356874 c 128,-1,4
 562.5 146.284713749 562.5 146.284713749 562.5 89 c 128,-1,5
 562.5 31.7152862513 562.5 31.7152862513 522.642356874 -8.14235687437 c 128,-1,6
 482.784713749 -48 482.784713749 -48 425.5 -48 c 0,7,8
 397.089352762 -48 397.089352762 -48 372.619976309 -37.9676568023 c 128,-1,9
 348.150599856 -27.9353136045 348.150599856 -27.9353136045 328.357643126 -8.14235687437 c 128,-1,10
 308.564750264 11.6505359871 308.564750264 11.6505359871 298.532375132 36.11992726 c 128,-1,11
 288.5 60.5893185328 288.5 60.5893185328 288.5 89 c 0,0,1
-35.5 89 m 0,12,13
 -35.5 117.410441763 -35.5 117.410441763 -25.4675955869 141.879760918 c 128,-1,14
 -15.4351911737 166.349080074 -15.4351911737 166.349080074 4.35786437625 186.142135624 c 0,15,16
 17.5451676595 199.329438907 17.5451676595 199.329438907 32.8539754747 208.205877973 c 128,-1,17
 48.1627832899 217.082317039 48.1627832899 217.082317039 65.3710503066 221.54115852 c 128,-1,18
 82.5793173233 226 82.5793173233 226 101.5 226 c 128,-1,19
 120.42064783 226 120.42064783 226 137.628863662 221.541192775 c 128,-1,20
 154.837079495 217.08238555 154.837079495 217.08238555 170.145929025 208.205939121 c 128,-1,21
 185.454778555 199.329492693 185.454778555 199.329492693 198.642135624 186.142135624 c 0,22,23
 238.5 146.284271248 238.5 146.284271248 238.5 89.0000000001 c 128,-1,24
 238.5 31.7157287526 238.5 31.7157287526 198.642135624 -8.14213562372 c 128,-1,25
 158.784271248 -48 158.784271248 -48 101.5 -48 c 128,-1,26
 44.2157287526 -48 44.2157287526 -48 4.35786437623 -8.14213562373 c 128,-1,27
 -35.5 31.7157287526 -35.5 31.7157287526 -35.5 89 c 0,12,13
EndSplineSet
EndChar

StartChar: arabic_3dots
Encoding: 65538 -1 267
Width: 527
VWidth: 2629
GlyphClass: 2
Flags: W
LayerCount: 2
Fore
SplineSet
288.5 89 m 0,0,1
 288.5 146.284713749 288.5 146.284713749 328.357643126 186.142356874 c 128,-1,2
 368.215286251 226 368.215286251 226 425.5 226 c 128,-1,3
 482.784713749 226 482.784713749 226 522.642356874 186.142356874 c 128,-1,4
 562.5 146.284713749 562.5 146.284713749 562.5 89 c 128,-1,5
 562.5 31.7152862513 562.5 31.7152862513 522.642356874 -8.14235687437 c 128,-1,6
 482.784713749 -48 482.784713749 -48 425.5 -48 c 0,7,8
 397.089352762 -48 397.089352762 -48 372.619976309 -37.9676568023 c 128,-1,9
 348.150599856 -27.9353136045 348.150599856 -27.9353136045 328.357643126 -8.14235687437 c 128,-1,10
 308.564750264 11.6505359871 308.564750264 11.6505359871 298.532375132 36.11992726 c 128,-1,11
 288.5 60.5893185328 288.5 60.5893185328 288.5 89 c 0,0,1
167.857864376 301.857864376 m 0,12,13
 128 341.715728752 128 341.715728752 128 398.999999999 c 0,14,15
 128 427.410441761 128 427.410441761 138.032404413 451.879760917 c 128,-1,16
 148.064808826 476.349080073 148.064808826 476.349080073 167.857864376 496.142135624 c 0,17,18
 207.715728752 536 207.715728752 536 264.999999998 536 c 0,19,20
 279.187534125 536 279.187534125 536 292.436206119 533.483722783 c 128,-1,21
 305.684878113 530.967445566 305.684878113 530.967445566 317.863838576 525.975918025 c 128,-1,22
 330.042799039 520.984390484 330.042799039 520.984390484 341.147181557 513.508548827 c 128,-1,23
 352.251564075 506.032707171 352.251564075 506.032707171 362.142135622 496.142135625 c 0,24,25
 402 456.284271249 402 456.284271249 402 399.000000001 c 0,26,27
 402 384.812465873 402 384.812465873 399.483722783 371.563793879 c 128,-1,28
 396.967445566 358.315121884 396.967445566 358.315121884 391.975918025 346.136161421 c 128,-1,29
 386.984390483 333.957200958 386.984390483 333.957200958 379.508548827 322.85281844 c 128,-1,30
 372.03270717 311.748435923 372.03270717 311.748435923 362.142135624 301.857864376 c 0,31,32
 342.349143927 282.064872679 342.349143927 282.064872679 317.879809971 272.032436339 c 128,-1,33
 293.410476016 262 293.410476016 262 265 262 c 128,-1,34
 236.589558237 262 236.589558237 262 212.120239082 272.032404413 c 128,-1,35
 187.650919926 282.064808826 187.650919926 282.064808826 167.857864376 301.857864376 c 0,12,13
-35.5 89 m 0,36,37
 -35.5 117.410441763 -35.5 117.410441763 -25.4675955869 141.879760918 c 128,-1,38
 -15.4351911737 166.349080074 -15.4351911737 166.349080074 4.35786437625 186.142135624 c 0,39,40
 17.5451676595 199.329438907 17.5451676595 199.329438907 32.8539754747 208.205877973 c 128,-1,41
 48.1627832899 217.082317039 48.1627832899 217.082317039 65.3710503066 221.54115852 c 128,-1,42
 82.5793173233 226 82.5793173233 226 101.5 226 c 128,-1,43
 120.42064783 226 120.42064783 226 137.628863662 221.541192775 c 128,-1,44
 154.837079495 217.08238555 154.837079495 217.08238555 170.145929025 208.205939121 c 128,-1,45
 185.454778555 199.329492693 185.454778555 199.329492693 198.642135624 186.142135624 c 0,46,47
 238.5 146.284271248 238.5 146.284271248 238.5 89.0000000001 c 128,-1,48
 238.5 31.7157287526 238.5 31.7157287526 198.642135624 -8.14213562372 c 128,-1,49
 158.784271248 -48 158.784271248 -48 101.5 -48 c 128,-1,50
 44.2157287526 -48 44.2157287526 -48 4.35786437623 -8.14213562373 c 128,-1,51
 -35.5 31.7157287526 -35.5 31.7157287526 -35.5 89 c 0,36,37
EndSplineSet
EndChar

StartChar: arabic_3dots_a
Encoding: 65539 -1 268
Width: 527
VWidth: 2629
GlyphClass: 2
Flags: W
LayerCount: 2
Fore
SplineSet
288.5 107 m 0,0,1
 288.5 164.284713749 288.5 164.284713749 328.357643126 204.142356874 c 128,-1,2
 368.215286251 244 368.215286251 244 425.5 244 c 128,-1,3
 482.784713749 244 482.784713749 244 522.642356874 204.142356874 c 128,-1,4
 562.5 164.284713749 562.5 164.284713749 562.5 107 c 128,-1,5
 562.5 49.7152862513 562.5 49.7152862513 522.642356874 9.85764312563 c 128,-1,6
 482.784713749 -30 482.784713749 -30 425.5 -30 c 0,7,8
 397.089352762 -30 397.089352762 -30 372.619976309 -19.9676568023 c 128,-1,9
 348.150599856 -9.9353136045 348.150599856 -9.9353136045 328.357643126 9.85764312563 c 128,-1,10
 308.564750264 29.6505359871 308.564750264 29.6505359871 298.532375132 54.11992726 c 128,-1,11
 288.5 78.5893185328 288.5 78.5893185328 288.5 107 c 0,0,1
128 -203 m 0,12,13
 128 -174.589558237 128 -174.589558237 138.032404413 -150.120239082 c 128,-1,14
 148.064808826 -125.650919926 148.064808826 -125.650919926 167.857864376 -105.857864376 c 0,15,16
 207.715728752 -66 207.715728752 -66 264.999999999 -66 c 128,-1,17
 322.284271246 -66 322.284271246 -66 362.142135624 -105.857864376 c 128,-1,18
 402 -145.715728752 402 -145.715728752 402 -203 c 0,19,20
 402 -231.410441763 402 -231.410441763 391.967595587 -255.879760918 c 128,-1,21
 381.935191174 -280.349080074 381.935191174 -280.349080074 362.142135624 -300.142135624 c 0,22,23
 348.954832341 -313.329438907 348.954832341 -313.329438907 333.646024526 -322.205877973 c 128,-1,24
 318.33721671 -331.082317039 318.33721671 -331.082317039 301.128949694 -335.54115852 c 128,-1,25
 283.920682677 -340 283.920682677 -340 265 -340 c 0,26,27
 236.589558237 -340 236.589558237 -340 212.120239082 -329.967595587 c 128,-1,28
 187.650919926 -319.935191174 187.650919926 -319.935191174 167.857864376 -300.142135624 c 0,29,30
 128 -260.284271248 128 -260.284271248 128 -203 c 0,12,13
-35.5 107 m 0,31,32
 -35.5 135.410441763 -35.5 135.410441763 -25.4675955869 159.879760918 c 128,-1,33
 -15.4351911737 184.349080074 -15.4351911737 184.349080074 4.35786437625 204.142135624 c 128,-1,34
 24.1508560736 223.935127321 24.1508560736 223.935127321 48.6201900289 233.967563661 c 128,-1,35
 73.0895239843 244 73.0895239843 244 101.5 244 c 0,36,37
 120.42064783 244 120.42064783 244 137.628863662 239.541192775 c 128,-1,38
 154.837079495 235.08238555 154.837079495 235.08238555 170.145929025 226.205939121 c 128,-1,39
 185.454778555 217.329492693 185.454778555 217.329492693 198.642135624 204.142135624 c 0,40,41
 238.5 164.284271248 238.5 164.284271248 238.5 107 c 128,-1,42
 238.5 49.7157287526 238.5 49.7157287526 198.642135624 9.85786437624 c 128,-1,43
 158.784271248 -30 158.784271248 -30 101.5 -30 c 128,-1,44
 44.2157287526 -30 44.2157287526 -30 4.35786437622 9.85786437624 c 128,-1,45
 -35.5 49.7157287526 -35.5 49.7157287526 -35.5 107 c 0,31,32
EndSplineSet
EndChar

StartChar: uni066E.fina
Encoding: 65540 -1 269
Width: 2070
VWidth: 2593
GlyphClass: 2
Flags: W
AnchorPoint: "Anchor-10" 672.312 1279.13 basechar 0
AnchorPoint: "Anchor-7" 672.312 -175.677 basechar 0
LayerCount: 2
Fore
SplineSet
309.904296875 491.571289062 m 2,0,1
 309.904296875 332.058386529 309.904296875 332.058386529 380.008789062 289.2890625 c 0,2,3
 413.632021753 268.23046875 413.632021753 268.23046875 467.470703125 268.23046875 c 2,4,-1
 1131.78515625 268.23046875 l 1,5,-1
 1402.02050781 271.442382812 l 2,6,7
 1520 273 1520 273 1571.81347656 318.802734375 c 0,8,9
 1623.49433341 365.446149692 1623.49433341 365.446149692 1623.41796875 464.260742188 c 2,10,-1
 1623.2421875 691.71875 l 1,11,-1
 1885.97363281 691.71875 l 1,12,-1
 1886.18847656 461.975585938 l 2,13,14
 1886 358 1886 358 1924.91113281 313.19921875 c 0,15,16
 1964.26514101 268.700195311 1964.26514101 268.700195311 2048.51269531 268.700195312 c 2,17,-1
 2080.89453125 268.700195312 l 1,18,-1
 2080.89453125 -0.48046875 l 1,19,-1
 2046.66503906 -0.48046875 l 2,20,21
 1833 -0 1833 -0 1744.29882812 142.880859375 c 1,22,23
 1628.9467854 -1.06640625 1628.9467854 -1.06640625 1343.95996094 -1.06640625 c 6,24,-1
 461.766601562 -1.06640625 l 2,25,26
 260 -1 260 -1 155.314453125 126.8984375 c 0,27,28
 51.1503798372 254.815328638 51.1503798372 254.815328638 51.1494140625 493.916992188 c 2,29,-1
 51.1484375 735.689453125 l 1,30,-1
 309.904296875 735.689453125 l 1,31,-1
 309.904296875 491.571289062 l 2,0,1
EndSplineSet
EndChar

StartChar: uni06A1.fina
Encoding: 65543 -1 272
Width: 2090
VWidth: 2593
GlyphClass: 2
Flags: W
AnchorPoint: "Anchor-10" 464.606 1404.71 basechar 0
AnchorPoint: "Anchor-7" 590.192 -227.906 basechar 0
LayerCount: 2
Fore
SplineSet
1380.62011719 562.622070312 m 0,0,1
 1380.62011719 469.677163709 1380.62011719 469.677163709 1464.30078125 421.3203125 c 0,2,3
 1500.6631206 400.30859375 1500.6631206 400.30859375 1559.13429467 400.30859375 c 128,-1,4
 1617.60546875 400.30859375 1617.60546875 400.30859375 1666.4453125 448.051217279 c 128,-1,5
 1715.28515625 495.793840808 1715.28515625 495.793840808 1715.28515625 562.622070312 c 0,6,7
 1715.28515625 655.513431355 1715.28515625 655.513431355 1631.65625 703.891601562 c 0,8,9
 1595.28877043 724.9296875 1595.28877043 724.9296875 1536.79526412 724.9296875 c 128,-1,10
 1478.30175781 724.9296875 1478.30175781 724.9296875 1429.4609375 677.189453125 c 128,-1,11
 1380.62011719 629.44921875 1380.62011719 629.44921875 1380.62011719 562.622070312 c 0,0,1
309.944335938 492.541015625 m 2,12,13
 309.944335938 372.074645364 309.944335938 372.074645364 348.393838189 320.641841075 c 128,-1,14
 386.84334044 269.209036785 386.84334044 269.209036785 467.515625 269.200195312 c 2,15,-1
 1260.54589844 269.11328125 l 1,16,17
 1076 448 1076 448 1145.421875 696.849609375 c 0,18,19
 1192 861 1192 861 1371.85644531 933.764648438 c 0,20,21
 1452 966 1452 966 1566 966 c 128,-1,22
 1680 966 1680 966 1778.16113281 908.737304688 c 0,23,24
 1933 820 1933 820 1957.5 686.5 c 0,25,26
 2005.66985717 424.023431322 2005.66985717 424.023431322 1827.64648438 268.32421875 c 1,27,-1
 2102.54882812 269.849609375 l 1,28,-1
 2102.54882812 0.669921875 l 1,29,-1
 1902.7421875 0 l 2,30,31
 1692 -1 1692 -1 1544.84472656 100.293945312 c 1,32,33
 1377.04121291 0.0246263621093 1377.04121291 0.0246263621093 1191.47460938 0 c 2,34,-1
 462.965820312 -0.0966796875 l 2,35,36
 261 -0 261 -0 156.095088255 124.387089945 c 128,-1,37
 51.1901765098 248.774179891 51.1901765098 248.774179891 51.189453125 481.977539062 c 2,38,-1
 51.1884765625 796.799804688 l 1,39,-1
 309.944335938 796.799804688 l 1,40,-1
 309.944335938 492.541015625 l 2,12,13
EndSplineSet
EndChar

StartChar: uni06A1.init
Encoding: 65544 -1 273
Width: 871
VWidth: 2593
GlyphClass: 2
Flags: W
AnchorPoint: "Anchor-10" 568.999 1368.33 basechar 0
AnchorPoint: "Anchor-7" 451.628 -165.113 basechar 0
LayerCount: 2
Fore
SplineSet
510.484375 367.271484375 m 1,0,1
 496 367 496 367 482.485351562 367.06640625 c 128,-1,2
 469 367 469 367 435.5 367 c 128,-1,3
 402 367 402 367 364.34765625 367.544921875 c 0,4,5
 190 368 190 368 106 461 c 128,-1,6
 22 554 22 554 22 749 c 128,-1,7
 22 944 22 944 118.5 1049 c 128,-1,8
 215 1154 215 1154 399.338867188 1154.38964844 c 0,9,10
 749.792407203 1153.1667191 749.792407203 1153.1667191 771.5 829 c 2,11,-1
 779.233398438 711.973632812 l 1,12,-1
 778.727539062 529.97265625 l 1,13,-1
 778.727539062 397.430664062 l 2,14,15
 779 198 779 198 634.86328125 97.9150390625 c 128,-1,16
 490.687386744 -2.21711423082 490.687386744 -2.21711423082 222.407226562 -1.06640625 c 2,17,-1
 -7.548828125 -0.080078125 l 1,18,-1
 -8.1455078125 269.25390625 l 1,19,-1
 235.040039062 269.426757812 l 2,20,21
 487.04053348 270.513230114 487.04053348 270.513230114 510.484375 367.271484375 c 1,0,1
407.844726562 899.7265625 m 0,22,23
 382.020507813 900.956287202 382.020507813 900.956287202 356 896 c 0,24,25
 266 877 266 877 260.116699219 782.505859375 c 0,26,27
 254 680 254 680 306 653 c 0,28,29
 360 624 360 624 524.450195312 638.248046875 c 1,30,31
 525 657 525 657 525 692 c 0,32,33
 525 714.739130435 525 714.739130435 516.5 790.5 c 0,34,35
 505 894 505 894 407.844726562 899.7265625 c 0,22,23
EndSplineSet
EndChar

StartChar: uni06A1.medi
Encoding: 65545 -1 274
Width: 1078
VWidth: 2593
GlyphClass: 2
Flags: W
AnchorPoint: "Anchor-10" 529.997 1216.33 basechar 0
AnchorPoint: "Anchor-7" 529.997 -165.113 basechar 0
LayerCount: 2
Fore
SplineSet
364.181640625 561.5546875 m 0,0,1
 364.181640625 538.674804688 364.181640625 538.674804688 369.388671875 518.845703125 c 128,-1,2
 374.596679688 499.015625 374.596679688 499.015625 385.327148438 481.290039062 c 128,-1,3
 396.057617188 463.564453125 396.057617188 463.564453125 412.754882812 447.2421875 c 0,4,5
 437.85546875 422.70703125 437.85546875 422.70703125 466.837890625 410.974609375 c 128,-1,6
 495.819335938 399.2421875 495.819335938 399.2421875 531.514648438 399.2421875 c 0,7,8
 601.166992188 399.2421875 601.166992188 399.2421875 650.271484375 447.241210938 c 0,9,10
 698.846679688 494.725585938 698.846679688 494.725585938 698.846679688 561.5546875 c 128,-1,11
 698.846679688 628.37890625 698.846679688 628.37890625 650.272460938 675.861328125 c 0,12,13
 601.1640625 723.86328125 601.1640625 723.86328125 531.514648438 723.86328125 c 128,-1,14
 461.86328125 723.86328125 461.86328125 723.86328125 412.754882812 675.861328125 c 0,15,16
 364.181640625 628.3828125 364.181640625 628.3828125 364.181640625 561.5546875 c 0,0,1
529.58984375 99.8525390625 m 1,17,18
 362.89030909 -1.06640625 362.89030909 -1.06640625 174.987304688 -1.06640625 c 2,19,-1
 -8.5087890625 -1.06640625 l 5,20,-1
 -8.5087890625 268.25390625 l 5,21,-1
 244.018554688 268.096679688 l 1,22,23
 59 447 59 447 128.981445312 695.779296875 c 0,24,25
 175 860 175 860 355.391601562 932.688476562 c 0,26,27
 435 965 435 965 548 965 c 128,-1,28
 661 965 661 965 761.721679688 907.670898438 c 0,29,30
 915.834489502 819.665558868 915.834489502 819.665558868 942.056640625 681.108398438 c 0,31,32
 991.1559675 421.66883992 991.1559675 421.66883992 811.264648438 267.258789062 c 1,33,-1
 1086.109375 268.783203125 l 1,34,-1
 1086.109375 -0.3974609375 l 1,35,-1
 886.299804688 -1.06640625 l 2,36,37
 690 -2 690 -2 529.58984375 99.8525390625 c 1,17,18
EndSplineSet
EndChar

StartChar: uni066F.fina
Encoding: 65546 -1 275
Width: 1586
VWidth: 2593
GlyphClass: 2
Flags: W
AnchorPoint: "Anchor-10" 388.276 1091.72 basechar 0
AnchorPoint: "Anchor-7" 505.229 -658.06 basechar 0
LayerCount: 2
Fore
SplineSet
1197.09960938 0.3662109375 m 1,0,1
 1047.37890625 -0.0927734375 l 2,2,3
 875.224609375 0.0107421875 875.224609375 0.0107421875 783.496582031 101.484863281 c 128,-1,4
 691.768554688 202.958984375 691.768554688 202.958984375 709.651367188 429.740234375 c 0,5,6
 722.256835938 582.920898438 722.256835938 582.920898438 803.483398438 671.620117188 c 0,7,8
 910.551757812 790.383789062 910.551757812 790.383789062 1096.8359375 786.3828125 c 0,9,10
 1246.99316406 783.439453125 1246.99316406 783.439453125 1338.91503906 703.348632812 c 0,11,12
 1470.49976978 588.701270326 1470.49976978 588.701270326 1464.09277344 330.767578125 c 2,13,-1
 1462.58300781 269.982421875 l 1,14,-1
 1638.67773438 270.3671875 l 1,15,-1
 1638.67773438 0.017578125 l 1,16,-1
 1453.828125 -0.6689453125 l 1,17,-1
 1454.14648438 -23.93359375 l 2,18,19
 1457.85652668 -312.962256573 1457.85652668 -312.962256573 1297.59037271 -455.551440787 c 128,-1,20
 1137.32421875 -598.140625 1137.32421875 -598.140625 839.043945312 -595.59375 c 2,21,-1
 770.614257812 -595.008789062 l 1,22,-1
 701.18359375 -595.008789062 l 2,23,24
 255.6171875 -595.001953125 255.6171875 -595.001953125 113.178710938 -317.140625 c 0,25,26
 51.3359375 -195.327148438 51.3359375 -195.327148438 51.12109375 -26.0927734375 c 2,27,-1
 50.98828125 415.849609375 l 1,28,-1
 309.877929688 416.826171875 l 1,29,-1
 309.877929688 -24.892578125 l 2,30,31
 309.932617188 -177.796875 309.932617188 -177.796875 403.954101562 -251.75390625 c 128,-1,32
 497.974609375 -325.711914062 497.974609375 -325.711914062 703.356445312 -325.711914062 c 2,33,-1
 770.712890625 -325.711914062 l 1,34,-1
 847.44140625 -325.125976562 l 2,35,36
 1024.92285156 -323.66796875 1024.92285156 -323.66796875 1108.75878906 -249.459960938 c 128,-1,37
 1192.59458963 -175.253915276 1192.59458963 -175.253915276 1197.09960938 0.3662109375 c 1,0,1
1209.2265625 270.037109375 m 1,38,39
 1213.20445421 451.317376211 1213.20445421 451.317376211 1187.10204055 485.033689297 c 4,40,41
 1142 541 1142 541 1041.44042969 527.2109375 c 0,42,43
 957.074522856 514.057113316 957.074522856 514.057113316 949.86909099 411.847423405 c 0,44,45
 943 313 943 313 984.555664062 285.044921875 c 4,46,47
 1030 256 1030 256 1209.2265625 270.037109375 c 1,38,39
EndSplineSet
EndChar

StartChar: arabic_ring
Encoding: 65549 -1 278
Width: 524
VWidth: 2391
GlyphClass: 2
Flags: W
LayerCount: 2
Fore
SplineSet
316.577148438 134.233398438 m 0,0,1
 386.274414062 167.527775565 386.274414062 167.527775565 386.274414062 236.784667969 c 0,2,3
 386.274414062 282.827053844 386.274414062 282.827053844 376.698242188 298.102003485 c 128,-1,4
 367.122070312 313.376953125 367.122070312 313.376953125 364.889648438 316.687988281 c 0,5,6
 328.273123116 370.99609375 328.273123116 370.99609375 252.967539185 370.99609375 c 0,7,8
 177.661955254 370.99609375 177.661955254 370.99609375 146.803710938 295.033203125 c 0,9,10
 137.805664062 272.876026953 137.805664062 272.876026953 137.805664062 233.019556445 c 128,-1,11
 137.805664062 193.163085938 137.805664062 193.163085938 173.766601562 157.844726562 c 128,-1,12
 209.727539062 122.526367188 209.727539062 122.526367188 250.898802205 122.526367188 c 0,13,14
 292.070065347 122.526367188 292.070065347 122.526367188 316.577148438 134.233398438 c 0,0,1
508.694335938 246.760742188 m 128,-1,16
 508.694335938 143.036730895 508.694335938 143.036730895 437.205084824 70.9851623226 c 0,17,18
 365.71583371 -1.06640625 365.71583371 -1.06640625 262.041015625 -1.06640625 c 128,-1,19
 158.409179688 -1.06640625 158.409179688 -1.06640625 86.8974609375 71.0083007812 c 128,-1,20
 15.3857421875 143.083007812 15.3857421875 143.083007812 15.3857421875 246.760742188 c 128,-1,21
 15.3857421875 350.438476562 15.3857421875 350.438476562 86.8745117188 421.927246094 c 0,22,23
 158.36328125 493.416015625 158.36328125 493.416015625 262.041015625 493.416015625 c 128,-1,24
 365.765625 493.416015625 365.765625 493.416015625 437.793945312 422.513671875 c 0,25,15
 508.694335938 350.487304688 508.694335938 350.487304688 508.694335938 246.760742188 c 128,-1,16
EndSplineSet
EndChar

StartChar: arabic_gaf_bar
Encoding: 65550 -1 279
Width: 657
VWidth: 2391
GlyphClass: 2
Flags: W
LayerCount: 2
Fore
SplineSet
627.461914062 1796.35058594 m 1,0,-1
 15.3857421875 1570.20507812 l 1,1,-1
 15.3857421875 1674.74902344 l 1,2,-1
 627.461914062 1900.89257812 l 1,3,-1
 627.461914062 1796.35058594 l 1,0,-1
EndSplineSet
EndChar

StartChar: uni066E.init.math
Encoding: 65560 -1 289
Width: 1039
VWidth: 2593
GlyphClass: 2
Flags: W
LayerCount: 2
Fore
SplineSet
705.489257812 122.073242188 m 0,0,1
 610.743164062 8.9091796875 610.743164062 8.9091796875 406.875 8.9091796875 c 2,2,-1
 -34.4736328125 8.9091796875 l 1,3,-1
 -34.4736328125 268.700195312 l 1,4,-1
 337.802734375 268.700195312 l 2,5,6
 355.654296875 268.700195312 355.654296875 268.700195312 372.040039062 269.9375 c 128,-1,7
 388.424804688 271.173828125 388.424804688 271.173828125 402.860351562 273.537109375 c 128,-1,8
 417.295898438 275.899414062 417.295898438 275.899414062 430.369140625 279.412109375 c 128,-1,9
 443.442382812 282.924804688 443.442382812 282.924804688 454.75 287.39453125 c 128,-1,10
 466.057617188 291.86328125 466.057617188 291.86328125 476.103515625 297.400390625 c 128,-1,11
 486.1484375 302.9375 486.1484375 302.9375 494.611328125 309.262695312 c 128,-1,12
 503.07421875 315.586914062 503.07421875 315.586914062 510.37890625 322.892578125 c 0,13,14
 564.571289062 377.083984375 564.571289062 377.083984375 564.571289062 504.258789062 c 2,15,-1
 564.571289062 791.13671875 l 1,16,-1
 824.362304688 791.13671875 l 1,17,-1
 824.362304688 504.258789062 l 2,18,19
 824.362304688 264.205078125 824.362304688 264.205078125 705.489257812 122.073242188 c 0,0,1
EndSplineSet
EndChar

StartChar: guillemotleft
Encoding: 171 171 290
Width: 995
VWidth: 2088
Flags: W
LayerCount: 2
Fore
SplineSet
505.621760414 1021.09765625 m 1,0,-1
 446.134658287 916.492573161 l 2,1,2
 436.6137627 899.752168767 436.6137627 899.752168767 427.896767517 883.105155725 c 128,-1,3
 419.179772335 866.458142682 419.179772335 866.458142682 411.259399804 849.888402998 c 128,-1,4
 403.339027274 833.318663314 403.339027274 833.318663314 396.223732812 816.84145101 c 0,5,6
 390.914804072 804.547596451 390.914804072 804.547596451 386.053037079 792.305354072 c 128,-1,7
 381.191270085 780.063111693 381.191270085 780.063111693 376.774759428 767.867216872 c 128,-1,8
 372.358248772 755.671322051 372.358248772 755.671322051 368.388004683 743.521898136 c 128,-1,9
 364.417760594 731.372474221 364.417760594 731.372474221 360.895741498 719.274932226 c 0,10,11
 351.27021655 686.21472389 351.27021655 686.21472389 344.859825236 652.898314167 c 128,-1,12
 338.45452132 619.609948724 338.45452132 619.609948724 335.255121168 586.046953437 c 128,-1,13
 332.0546875 552.485488406 332.0546875 552.485488406 332.0546875 518.6171875 c 0,14,15
 332.0546875 416.962877868 332.0546875 416.962877868 360.926902226 317.130873904 c 0,16,17
 389.145761182 219.561034129 389.145761182 219.561034129 446.058129859 119.886184146 c 2,18,-1
 505.845997575 15.177734375 l 1,19,-1
 280.932944701 15.177734375 l 1,20,-1
 260.311374137 47.65972011 l 2,21,22
 184.975869347 166.31829455 184.975869347 166.31829455 147.063132321 281.807052945 c 0,23,24
 108.0546875 400.694340365 108.0546875 400.694340365 108.0546875 518.6171875 c 0,25,26
 108.0546875 577.373356373 108.0546875 577.373356373 117.807676723 636.341431077 c 128,-1,27
 127.560665947 695.309505782 127.560665947 695.309505782 147.09184137 754.551353814 c 0,28,29
 153.42184217 773.750232078 153.42184217 773.750232078 160.792622489 793.059180377 c 128,-1,30
 168.163402808 812.368128675 168.163402808 812.368128675 176.583807129 831.806130875 c 128,-1,31
 185.00421145 851.244133076 185.00421145 851.244133076 194.467536785 870.792043172 c 0,32,33
 208.607965234 900.001013883 208.607965234 900.001013883 225.047585486 929.415358273 c 128,-1,34
 241.498417487 958.850731896 241.498417487 958.850731896 260.248053477 988.505353094 c 2,35,-1
 280.856007313 1021.09765625 l 1,36,-1
 505.621760414 1021.09765625 l 1,0,-1
881.621760414 1021.09765625 m 1,37,-1
 822.134619745 916.492505393 l 2,38,39
 793.579795932 866.284206616 793.579795932 866.284206616 772.297221179 817.010966353 c 128,-1,40
 750.985839054 767.668744065 750.985839054 767.668744065 736.895762318 719.274027172 c 0,41,42
 731.118804608 699.432810526 731.118804608 699.432810526 726.500172634 679.502893774 c 128,-1,43
 721.886126462 659.585264419 721.886126462 659.585264419 718.426399763 639.571447247 c 0,44,45
 716.697126565 629.567215536 716.697126565 629.567215536 715.255860635 619.539768793 c 128,-1,46
 713.815714097 609.512228521 713.815714097 609.512228521 712.662699283 599.459009154 c 0,47,48
 710.358629182 579.356344222 710.358629182 579.356344222 709.207638805 559.149628473 c 128,-1,49
 708.054636422 538.938408005 708.054636422 538.938408005 708.0546875 518.6171875 c 0,50,51
 708.0546875 493.200760625 708.0546875 493.200760625 709.856354738 467.919971971 c 128,-1,52
 711.658073515 442.639450607 711.658073515 442.639450607 715.262152398 417.469884761 c 128,-1,53
 718.86869285 392.289459009 718.86869285 392.289459009 724.283782662 367.206176832 c 128,-1,54
 729.697319574 342.130087857 729.697319574 342.130087857 736.926956564 317.130686029 c 0,55,56
 743.899078557 293.025566083 743.899078557 293.025566083 752.724161461 268.585505698 c 0,57,58
 757.133754745 256.372271536 757.133754745 256.372271536 762.007895989 244.079112152 c 128,-1,59
 766.882037232 231.785952768 766.882037232 231.785952768 772.220489245 219.412515158 c 0,60,61
 793.644764622 169.756029428 793.644764622 169.756029428 821.807107139 120.326694674 c 2,62,-1
 881.845205658 15.177734375 l 1,63,-1
 656.932861224 15.177734375 l 1,64,-1
 636.300806557 47.6752813836 l 2,65,66
 617.484314534 77.4345466428 617.484314534 77.4345466428 600.999884685 106.937475169 c 128,-1,67
 584.515454836 136.440403696 584.515454836 136.440403696 570.361461791 165.684730863 c 0,68,69
 542.08467784 224.106919441 542.08467784 224.106919441 523.071918166 281.780695562 c 0,70,71
 484.0546875 400.694345656 484.0546875 400.694345656 484.0546875 518.6171875 c 0,72,73
 484.0546875 531.670525585 484.0546875 531.670525585 484.53572882 544.732034771 c 128,-1,74
 485.01677014 557.793543956 485.01677014 557.793543956 485.979363737 570.869372581 c 128,-1,75
 486.941957334 583.945201206 486.941957334 583.945201206 488.386161796 597.030531591 c 128,-1,76
 489.830366259 610.115861976 489.830366259 610.115861976 491.756896223 623.216207987 c 128,-1,77
 493.683426187 636.316553997 493.683426187 636.316553997 496.092122985 649.427774725 c 128,-1,78
 498.500819782 662.538995454 498.500819782 662.538995454 501.392615305 675.665927994 c 128,-1,79
 504.284410829 688.792860533 504.284410829 688.792860533 507.658929153 701.932040749 c 128,-1,80
 511.033447477 715.071220965 511.033447477 715.071220965 514.891837752 728.226809178 c 128,-1,81
 518.750228026 741.38239739 518.750228026 741.38239739 523.091910648 754.551563939 c 0,82,83
 526.898534165 766.097903596 526.898534165 766.097903596 531.082540242 777.684307687 c 128,-1,84
 535.266140816 789.272263198 535.266140816 789.272263198 539.816412923 800.874120112 c 0,85,86
 542.091725084 806.675441502 542.091725084 806.675441502 544.461208702 812.48789008 c 128,-1,87
 546.830692321 818.300338658 546.830692321 818.300338658 549.293445872 824.121656057 c 0,88,89
 554.221978655 835.769157621 554.221978655 835.769157621 559.512039406 847.428370293 c 0,90,91
 561.275221792 851.315107625 561.275221792 851.315107625 563.080137556 855.206471203 c 128,-1,92
 564.88505332 859.097834781 564.88505332 859.097834781 566.731967915 862.994372185 c 128,-1,93
 568.578882511 866.890909589 568.578882511 866.890909589 570.467399937 870.791760506 c 128,-1,94
 572.353989582 874.688454981 572.353989582 874.688454981 574.281854084 878.58955295 c 128,-1,95
 576.209718586 882.49065092 576.209718586 882.49065092 578.179041229 886.396503154 c 128,-1,96
 580.148363872 890.302355389 580.148363872 890.302355389 582.158699108 894.21205742 c 0,97,98
 588.192417453 905.94552446 588.192417453 905.94552446 594.58281413 917.692392099 c 128,-1,99
 600.976282251 929.443125538 600.976282251 929.443125538 607.740099145 941.234286862 c 128,-1,100
 614.507341385 953.028761743 614.507341385 953.028761743 621.628495669 964.838251478 c 0,101,102
 625.190292298 970.74373064 625.190292298 970.74373064 628.845341189 976.660771596 c 128,-1,103
 632.50039008 982.577812553 632.50039008 982.577812553 636.248053477 988.505353094 c 2,104,-1
 656.856007313 1021.09765625 l 1,105,-1
 881.621760414 1021.09765625 l 1,37,-1
EndSplineSet
EndChar

